<?xml version="1.0" encoding="utf-8"?>
<!-- Generator: Adobe Illustrator 25.2.1, SVG Export Plug-In . SVG Version: 6.00 Build 0)  -->
<svg version="1.1" id="Camada_1" xmlns="http://www.w3.org/2000/svg" xmlns:xlink="http://www.w3.org/1999/xlink" x="0px" y="0px"
	 viewBox="0 0 82 82" style="enable-background:new 0 0 82 82;" xml:space="preserve">
<style type="text/css">
	.st0{fill:#882886;}
	.st1{fill:#FFFFFF;}
</style>
<path class="st0" d="M54,0H28C12.5,0,0,12.5,0,28v26c0,15.5,12.5,28,28,28h26c15.5,0,28-12.5,28-28V28C82,12.5,69.5,0,54,0z"/>
<g>
	<path class="st1" d="M64.9,41.4c-0.3,0.4-0.7,0.9-1,1.3c-1.7,1.7-3.5,3.5-5.2,5.2c-0.9,0.9-1.7,0.8-2.5,0c-1.9-1.9-3.7-3.7-5.6-5.6
		c-0.5-0.5-0.8-1.1-0.5-1.8c0.3-0.7,0.9-0.9,1.6-0.9c0.4,0,0.8,0,1.2,0c0-1.2-0.1-2.3-0.5-3.3c-1.5-4.5-4.5-7.3-9.2-8.4
		c-0.3-0.1-0.6-0.1-0.9-0.1C41.5,27.5,41,26.9,41,26c0-1.9,0-3.8,0-5.7c0-1.1,0.7-1.7,1.7-1.6c3.4,0.3,6.6,1.4,9.5,3.2
		c3.1,2,5.6,4.6,7.3,7.9c1.3,2.5,2.1,5.1,2.3,8c0,0.6,0.1,1.1,0.1,1.8c0.4,0,0.7,0,1.1,0c0.9-0.1,1.6,0.3,1.9,1.2
		C64.9,40.9,64.9,41.1,64.9,41.4z"/>
	<path class="st1" d="M27.5,22.1c-0.2-0.4-0.5-0.8-0.7-1.2c-0.3-0.6-0.4-1.2,0.1-1.7c0.4-0.5,1-0.7,1.6-0.5c2.7,0.7,5.4,1.4,8.1,2.2
		c0.9,0.2,1.3,1,1.1,1.9c-0.7,2.7-1.4,5.3-2.1,8c-0.2,0.7-0.6,1.1-1.3,1.2C33.5,32,33,31.6,32.7,31c-0.2-0.4-0.4-0.8-0.7-1.2
		c-1.4,0.8-2.5,1.8-3.4,3c-2.7,3.6-3.3,7.5-1.7,11.7c0.1,0.2,0.1,0.4,0.2,0.6c0.2,0.7,0,1.4-0.7,1.7c-1.7,1-3.5,2-5.2,3
		c-0.8,0.5-1.7,0.2-2.1-0.7c-1.5-3.2-2.2-6.7-2-10.2c0.2-3.6,1.3-6.9,3.2-10c1.7-2.7,3.9-4.8,6.5-6.5C27.1,22.4,27.3,22.2,27.5,22.1
		z"/>
	<path class="st1" d="M34.8,52.8c1,0.6,2.1,1.1,3.3,1.3c4.4,0.9,8.2-0.3,11.4-3.5c0.3-0.3,0.6-0.7,0.9-1.1c0.6-0.7,1.3-0.8,2-0.4
		c1.7,1,3.3,1.9,5,2.9c0.9,0.5,1.1,1.4,0.5,2.3c-3.1,4.4-7.4,7.3-12.7,8.5c-5.1,1.2-10,0.4-14.7-2.1c-0.1-0.1-0.2-0.1-0.3-0.2
		c-0.2,0.4-0.4,0.7-0.7,1.1c-0.3,0.6-0.8,1-1.6,0.9c-0.7-0.1-1.1-0.6-1.3-1.3c-0.7-2.6-1.4-5.3-2.1-7.9c-0.2-0.9,0.2-1.7,1.1-1.9
		c2.7-0.7,5.3-1.4,8-2.1c0.7-0.2,1.3,0,1.7,0.5c0.4,0.6,0.4,1.2,0,1.8C35.2,52.1,35,52.5,34.8,52.8z"/>
</g>
</svg>
