<?xml version="1.0" encoding="utf-8"?>
<!-- Generator: Adobe Illustrator 25.2.1, SVG Export Plug-In . SVG Version: 6.00 Build 0)  -->
<svg version="1.1" id="Camada_1" xmlns="http://www.w3.org/2000/svg" xmlns:xlink="http://www.w3.org/1999/xlink" x="0px" y="0px"
	 viewBox="0 0 82 82" style="enable-background:new 0 0 82 82;" xml:space="preserve">
<style type="text/css">
	.st0{fill:#BBBCBD;}
	.st1{fill:#FFFFFF;}
</style>
<path class="st0" d="M54,0H28C12.5,0,0,12.5,0,28v26c0,15.5,12.5,28,28,28h26c15.5,0,28-12.5,28-28V28C82,12.5,69.5,0,54,0z"/>
<path class="st1" d="M18.1,39.4c0.1-0.2,0.1-0.3,0.2-0.5c0.4-1.2,1.5-2.1,2.8-2.1c0.1,0,0.3,0,0.4,0c13,0,26,0,39,0
	c1.4,0,2.4,0.5,3.1,1.7c0.5,0.9,0.5,3.9,0,4.8c-0.5,1.1-1.5,1.7-2.7,1.8c-0.2,0-0.4,0-0.6,0c-12.8,0-25.5,0-38.3,0
	c-2.3,0-3-0.5-3.9-2.6C18.1,41.5,18.1,40.5,18.1,39.4z"/>
</svg>
