<?xml version="1.0" encoding="utf-8"?>
<!-- Generator: Adobe Illustrator 25.2.1, SVG Export Plug-In . SVG Version: 6.00 Build 0)  -->
<svg version="1.1" id="Camada_1" xmlns="http://www.w3.org/2000/svg" xmlns:xlink="http://www.w3.org/1999/xlink" x="0px" y="0px"
	 viewBox="0 0 82 82" style="enable-background:new 0 0 82 82;" xml:space="preserve">
<style type="text/css">
	.st0{fill:#A79F88;}
	.st1{fill:#3B96D2;}
	.st2{fill:#297FB9;}
	.st3{fill:#285680;}
	.st4{fill:#FA7B76;}
	.st5{fill:#EBEFF0;}
	.st6{fill:#464F5D;}
	.st7{fill:#FEFEFE;}
	.st8{fill:#2980B9;}
	.st9{fill:#802F34;}
	.st10{fill:#3A404A;}
	.st11{fill:#393F4A;}
</style>
<path class="st0" d="M54,0H28C12.5,0,0,12.5,0,28v26c0,15.5,12.5,28,28,28h26c15.5,0,28-12.5,28-28V28C82,12.5,69.5,0,54,0z"/>
<g>
	<path class="st1" d="M42.8,62.3c-1.3,0-2.6,0-3.8,0c-3.5,0-7,0-10.5,0c-0.9,0-1.5-0.3-1.8-1.1c0-9.5,0-18.9,0-28.4c0,0,0.1,0,0.2,0
		c5.1,0,10.2,0,15.2,0c0.2,0,0.5,0,0.7,0c0.1,0,0.1,0.1,0.1,0.1c0.1,0.2,0.1,0.4,0.1,0.6c0,9.4,0,18.7,0,28.1
		C42.9,61.9,43,62.1,42.8,62.3z"/>
	<path class="st2" d="M46.7,19.7c0.4,0.2,0.5,0.5,0.5,1c0,1.1,0,2.3,0,3.4c-0.2,0.2-0.4,0.1-0.6,0.1c-3.7,0-7.3,0-11,0
		c-0.2,0-0.3,0-0.5,0.1c0.3,0.4,0.6,0.7,1,1.1c1.1,1.1,2.1,2.3,3.2,3.5c1.1,1.2,2.3,2.4,3.4,3.7c0.1,0.1,0.3,0.2,0.1,0.4
		c-5,0-10,0-15.1,0c-0.2,0-0.5,0.1-0.6-0.2c-0.1-0.1,0-0.2,0.1-0.3c0.5-0.1,0.5-0.1,0.6-0.6c0.1-0.2,0.2-0.3,0.4-0.4
		c0.5,0,0.5,0,0.5-0.6c0.1-0.2,0.2-0.3,0.4-0.4c0.5,0,0.5,0,0.5-0.6c0.1-0.2,0.2-0.3,0.4-0.4c0.5,0,0.5,0,0.5-0.6
		c0.1-0.2,0.2-0.3,0.4-0.4c0.5,0,0.5,0,0.5-0.6c0.1-0.2,0.2-0.3,0.4-0.4c0.5,0,0.5,0,0.5-0.6c0.1-0.2,0.2-0.3,0.4-0.4
		c0.5,0,0.5,0,0.5-0.6c0.1-0.2,0.2-0.3,0.4-0.4c0.6,0.1,0.5-0.4,0.6-0.7c0.5-0.4,0.5-1,0.5-1.6c0-0.8,0-1.7,0-2.5
		c0-0.4,0.2-0.7,0.6-0.9C39.1,19.7,42.9,19.7,46.7,19.7z"/>
	<path class="st2" d="M42.8,62.3c0-9.8,0-19.6,0-29.4c0.2-0.2,0.4-0.1,0.5-0.1c3.8,0,7.6,0,11.3,0c0.2,0,0.4,0,0.6,0.1l0,0
		c0,0.1,0,0.2,0,0.4c0,3.7,0,7.4,0,11.1c0,0.3,0,17.7,0,18C51.5,62.3,46.6,62.3,42.8,62.3z"/>
	<path class="st3" d="M55.3,32.9c-4.2,0-8.3,0-12.5,0l0,0c0,0-0.1,0-0.1-0.1c-0.5-0.6-1.1-1.2-1.6-1.8c-1.4-1.5-2.8-3.1-4.3-4.6
		c-0.6-0.7-1.2-1.3-1.8-2c-0.1-0.1-0.2-0.2-0.2-0.4c4.1,0,8.3,0,12.4,0c2,2.2,4,4.3,5.9,6.5C53.9,31.3,54.6,32.1,55.3,32.9z"/>
	<path class="st4" d="M38.4,46.7c0.9,0.7,1.5,1.6,1.5,2.7c0,1.8-1.4,3.3-3.2,3.3c-1.3,0-2.5,0-3.8,0c-1.5,0-2.7-0.9-3.1-2.3
		c-0.4-1.4,0-2.8,1.2-3.7c0.1,0,0.1-0.1,0.2-0.1c0.3-0.5,0.9-0.6,1.4-0.6c1.5-0.1,3-0.1,4.5,0C37.5,46.1,38,46.2,38.4,46.7z"/>
	<path class="st5" d="M38.4,46.7c-0.7-0.4-1.4-0.5-2.1-0.5c-1,0-2,0-3,0c-0.8,0-1.5,0.1-2.1,0.5c0-1,0-1.9,0-2.9
		c-0.1-0.1-0.1-0.3-0.1-0.5c0-0.8,0.2-1.6,0.7-2.3c0.1-0.1,0.2-0.3,0.3-0.3c1.6-1.7,4.1-1.6,5.5,0c0.1,0,0.2,0.1,0.3,0.2
		c0.6,0.8,0.8,1.6,0.7,2.6c0,0.1,0,0.1-0.1,0.2C38.4,44.7,38.4,45.7,38.4,46.7z"/>
	<path class="st6" d="M38.4,43.7c0.1-1.1-0.2-2.1-0.9-3c0.8-0.8,1.7-1.7,2.5-2.5c0.1-0.1,0.2-0.2,0.3,0c0.6,1.6,0.6,3.4-0.8,4.8
		C39.2,43.3,38.8,43.6,38.4,43.7z"/>
	<path class="st6" d="M32,40.7c-0.7,0.9-1,1.9-0.9,3c-1.3-0.6-2-1.6-2.2-3.1c-0.1-0.9,0-1.8,0.4-2.5C30.2,39,31.1,39.9,32,40.7z"/>
	<path class="st7" d="M28.9,58.2c0-0.4,0-0.7,0-1.1c0-0.4,0.4-0.7,0.8-0.7s0.7,0.3,0.7,0.8c0,0.4,0,0.7,0,1.1c0,0.2,0.1,0.3,0.3,0.3
		c0.4,0,0.7,0,1.1,0c0.5,0,0.8,0.3,0.8,0.7s-0.3,0.7-0.7,0.8c-0.7,0-1.5,0-2.2,0c-0.5,0-0.7-0.3-0.7-0.8
		C28.8,59,28.9,58.6,28.9,58.2L28.9,58.2z"/>
	<path class="st8" d="M42.7,32.8C42.8,32.9,42.8,32.9,42.7,32.8c-5.1,0.1-10.4,0.1-15.6,0.1c-0.1,0-0.3,0-0.4-0.1
		c0.1-0.1,0.2-0.2,0.2-0.3c0.1,0.3,0.4,0.3,0.6,0.3C32.6,32.8,37.7,32.8,42.7,32.8z"/>
	<path class="st8" d="M33.5,25.4c0.2-0.2,0.4-0.4,0.6-0.7c0,0.1,0,0.2,0,0.3C34.1,25.4,34,25.5,33.5,25.4z"/>
	<path class="st8" d="M32.6,26.4c0.2-0.2,0.4-0.4,0.6-0.7c0,0.1,0,0.2,0,0.3C33.2,26.4,33.1,26.5,32.6,26.4z"/>
	<path class="st8" d="M31.7,27.4c0.2-0.2,0.4-0.4,0.6-0.7c0,0.1,0,0.2,0,0.3C32.3,27.4,32.1,27.5,31.7,27.4z"/>
	<path class="st8" d="M30.8,28.4c0.2-0.2,0.4-0.4,0.6-0.7c0,0.1,0,0.2,0,0.3C31.4,28.4,31.2,28.5,30.8,28.4z"/>
	<path class="st8" d="M29.9,29.4c0.2-0.2,0.4-0.4,0.6-0.7c0,0.1,0,0.2,0,0.3C30.5,29.4,30.3,29.5,29.9,29.4z"/>
	<path class="st8" d="M29,30.4c0.2-0.2,0.4-0.4,0.6-0.7c0,0.1,0,0.2,0,0.3C29.5,30.4,29.4,30.5,29,30.4z"/>
	<path class="st9" d="M37,49.5c0,0.2,0,0.4-0.1,0.6c-0.1,0.4-0.4,0.5-0.7,0.5c-0.4,0-0.7-0.3-0.7-0.7c0-0.2,0-0.5,0-0.7
		c0-0.5,0.3-0.8,0.7-0.8s0.7,0.3,0.8,0.7C37,49.2,37,49.3,37,49.5z"/>
	<path class="st9" d="M32.6,49.4c0-0.1,0-0.3,0-0.4c0-0.4,0.3-0.7,0.7-0.7S34,48.6,34,49c0,0.3,0,0.6,0,0.8c0,0.4-0.3,0.7-0.7,0.7
		s-0.7-0.3-0.7-0.7C32.5,49.7,32.6,49.6,32.6,49.4L32.6,49.4z"/>
	<path class="st10" d="M36.2,42.5c0.4,0,0.7,0.3,0.7,0.7s-0.3,0.7-0.7,0.7s-0.7-0.3-0.7-0.7S35.8,42.5,36.2,42.5z"/>
	<path class="st11" d="M33.3,43.9c-0.4,0-0.7-0.3-0.7-0.7s0.3-0.7,0.7-0.7s0.7,0.3,0.7,0.7C34,43.6,33.7,43.9,33.3,43.9z"/>
</g>
</svg>
