<?xml version="1.0" encoding="utf-8"?>
<!-- Generator: Adobe Illustrator 25.2.1, SVG Export Plug-In . SVG Version: 6.00 Build 0)  -->
<svg version="1.1" id="Camada_1" xmlns="http://www.w3.org/2000/svg" xmlns:xlink="http://www.w3.org/1999/xlink" x="0px" y="0px"
	 viewBox="0 0 82 82" style="enable-background:new 0 0 82 82;" xml:space="preserve">
<style type="text/css">
	.st0{fill:#A79F88;}
	.st1{fill:#FFFFFF;}
</style>
<path class="st0" d="M54,0H28C12.5,0,0,12.5,0,28v26c0,15.5,12.5,28,28,28h26c15.5,0,28-12.5,28-28V28C82,12.5,69.5,0,54,0z"/>
<path class="st1" d="M30.2,61.9c-0.3-0.2-0.4-0.5-0.4-0.9s0-0.9,0-1.3c0-1.2,0.8-2,2-2.1c0.3,0,0.6,0,0.9,0c0-0.3,0-0.6,0-0.9
	c0-1.4,0.8-2.2,2.2-2.2c1.3,0,2.5,0,3.8,0c0.1,0,0.3,0,0.5,0c0-7.7,0-15.3,0-22.9c-3.2,0-6.5,0-9.7,0c0,0.1,0.1,0.2,0.1,0.3
	c1.9,4.1,3.7,8.2,5.6,12.4c0.1,0.1,0.2,0.3,0.4,0.3c0.6,0.1,0.9,0.6,0.6,1.2c-0.4,0.8-0.8,1.7-1.3,2.4c-0.5,0.8-1.2,1-2.1,1
	c-2.6,0-5.2,0-7.9,0c-0.5,0-1,0-1.5,0c-0.9,0-1.6-0.4-2-1.2c-0.4-0.7-0.8-1.4-1.1-2.2c-0.3-0.6,0-1.1,0.6-1.2c0.1,0,0.3-0.1,0.3-0.3
	c1.9-4.2,3.8-8.4,5.7-12.5c0-0.1,0-0.1,0.1-0.2c-0.5,0-0.9,0-1.3,0c-1.4-0.1-2.2-1.3-1.5-2.5c0.3-0.5,0.7-0.8,1.3-0.9
	c0.2,0,0.4,0,0.6,0c4.2,0,8.3,0,12.5,0c0.2,0,0.3,0,0.6,0c0-0.7,0-1.4,0-2.1c0-0.1-0.2-0.3-0.3-0.4c-1-0.9-1.4-2-1.1-3.4
	c0.4-1.3,1.3-2.2,2.7-2.4c1.5-0.2,2.9,0.5,3.5,1.9c0.6,1.3,0.2,2.9-0.9,3.8c-0.2,0.2-0.3,0.3-0.3,0.6c0,0.6,0,1.2,0,1.8
	c0.2,0,0.4,0,0.5,0c4.2,0,8.4,0,12.6,0c0.3,0,0.6,0,0.8,0.1c0.8,0.2,1.3,0.9,1.2,1.7c0,0.8-0.6,1.4-1.3,1.6c-0.3,0-0.5,0-0.8,0.1
	c-0.3,0-0.5,0-0.9,0c0.1,0.2,0.1,0.3,0.2,0.4c1.8,4.1,3.7,8.1,5.5,12.2c0.1,0.2,0.2,0.4,0.5,0.5c0.5,0.1,0.8,0.6,0.6,1.1
	c-0.4,0.8-0.8,1.7-1.3,2.5s-1.2,1-2.1,1c-3,0-6.1,0-9.1,0c-0.1,0-0.2,0-0.3,0c-0.8,0-1.5-0.4-1.9-1.1c-0.4-0.7-0.8-1.5-1.2-2.3
	c-0.3-0.6,0-1.1,0.6-1.2c0.1,0,0.3-0.1,0.3-0.2c1.9-4.2,3.8-8.4,5.7-12.6c0,0,0-0.1,0-0.2c-3.2,0-6.5,0-9.7,0c0,0.6,0,1.2,0,1.8
	c0,0.2,0,0.3,0,0.5c0,0.3-0.3,0.5-0.6,0.5c-0.2,0-0.4-0.2-0.6-0.4c-0.1-0.1-0.1-0.4-0.1-0.6c0-0.8,0-1.5,0-2.3
	c0-0.7,0.2-0.9,0.9-0.9c4.5,0,9,0,13.4,0c0.2,0,0.4,0,0.5-0.1s0.3-0.3,0.3-0.5c0-0.1-0.2-0.3-0.3-0.4s-0.3,0-0.4,0
	c-4.4,0-8.9,0-13.3,0c-0.9,0-1-0.2-1-1c0-0.6,0-1.2,0-1.9c-0.4,0-0.7,0-1.2,0c0,0.6,0,1.2,0,1.8c0,0.9-0.1,1.1-1,1.1
	c-4.4,0-8.8,0-13.2,0c-0.1,0-0.2,0-0.2,0c-0.5,0-0.7,0.1-0.7,0.5s0.4,0.4,0.7,0.4c4.5,0,9,0,13.4,0c0.9,0,1,0.1,1,1
	c0,7.5,0,15.1,0,22.6c0,0.2,0,0.3,0,0.5c0.4,0,0.8,0,1.2,0c0-0.2,0-0.3,0-0.5c0-5.6,0-11.2,0-16.9c0-0.2,0-0.4,0-0.5
	c0.1-0.3,0.3-0.5,0.6-0.4c0.3,0,0.5,0.2,0.5,0.5c0,0.2,0,0.3,0,0.5c0,5.6,0,11.2,0,16.8c0,0.2,0,0.3,0,0.5c0.2,0,0.3,0,0.5,0
	c1.2,0,2.5,0,3.7,0c1.4,0,2.2,0.8,2.2,2.2c0,0.3,0,0.5,0,0.8c0.3,0,0.6,0,0.9,0c1.3,0,2.1,0.8,2.1,2.1c0,0.4,0,0.8,0,1.3
	c0,0.4-0.1,0.7-0.4,0.9C44.6,61.9,37.4,61.9,30.2,61.9z M34,44.7c-1.9-4.2-3.8-8.4-5.7-12.6c-1.9,4.2-3.8,8.4-5.7,12.6
	C26.4,44.7,30.1,44.7,34,44.7z M53.7,32.1c-1.9,4.2-3.8,8.4-5.7,12.6c3.8,0,7.6,0,11.4,0C57.6,40.4,55.7,36.3,53.7,32.1z M31,60.7
	c6.7,0,13.3,0,19.9,0c0-0.2,0-0.5,0-0.7c0-0.9-0.2-1.1-1.1-1.1c-3.6,0-7.3,0-10.9,0c-0.2,0-0.4,0-0.5,0c-0.3-0.1-0.5-0.3-0.5-0.6
	s0.2-0.5,0.5-0.6c0.1,0,0.3,0,0.4,0c2.9,0,5.7,0,8.6,0c0.2,0,0.3,0,0.5,0c0-0.3,0-0.4,0-0.6c0-1.1-0.2-1.2-1.2-1.2
	c-3.7,0-7.5,0-11.2,0c-1.6,0-1.6,0.3-1.6,1.7c0,0,0,0.1,0.1,0.2c0.5,0,1,0,1.6,0c0.4,0,0.7,0.2,0.7,0.6c0,0.4-0.3,0.6-0.7,0.6
	c-0.1,0-0.2,0-0.3,0c-1.1,0-2.3,0-3.4,0c-0.5,0-0.8,0.2-0.9,0.7C31,60,31,60.3,31,60.7z M34.8,45.9c-4.4,0-8.7,0-13.1,0
	c0.2,0.4,0.4,0.8,0.6,1.2c0.3,0.7,0.8,0.9,1.5,0.9c2,0,4.1,0,6.1,0c1,0,2,0,2.9,0c0.5,0,0.9-0.2,1.1-0.6
	C34.3,47,34.5,46.5,34.8,45.9z M47.2,45.9c0.2,0.4,0.4,0.8,0.6,1.2c0.3,0.7,0.8,0.9,1.5,0.9c2.7,0,5.3,0,8,0c0.4,0,0.8,0.1,1.2,0
	c0.3-0.1,0.7-0.2,0.9-0.5c0.4-0.5,0.6-1.1,0.9-1.6C55.9,45.9,51.6,45.9,47.2,45.9z M41,25.4c1.1,0,2-0.9,2-2s-0.9-2.1-2-2.1
	s-2.1,0.9-2,2.1C39,24.5,39.9,25.4,41,25.4z"/>
</svg>
