<?xml version="1.0" encoding="utf-8"?>
<!-- Generator: Adobe Illustrator 25.2.1, SVG Export Plug-In . SVG Version: 6.00 Build 0)  -->
<svg version="1.1" id="Camada_1" xmlns="http://www.w3.org/2000/svg" xmlns:xlink="http://www.w3.org/1999/xlink" x="0px" y="0px"
	 viewBox="0 0 82 82" style="enable-background:new 0 0 82 82;" xml:space="preserve">
<style type="text/css">
	.st0{fill:#882886;}
	.st1{fill:#FFFFFF;}
</style>
<path class="st0" d="M54,0H28C12.5,0,0,12.5,0,28v26c0,15.5,12.5,28,28,28h26c15.5,0,28-12.5,28-28V28C82,12.5,69.5,0,54,0z"/>
<path class="st1" d="M40.6,61.7c-0.6-0.2-1.2-0.4-1.8-0.7c-1.1-0.8-1.5-1.9-1.5-3.2c0-4,0-7.9,0-11.9c0-0.9-0.2-1.1-1.1-1.1
	c-4,0-7.9,0-11.9,0c-1,0-2-0.3-2.8-1c-1.1-1.1-1.5-2.4-1-3.9c0.4-1.3,1.7-2.3,3-2.4c0.4,0,0.8-0.1,1.2-0.1c3.8,0,7.6,0,11.4,0
	c0.8,0,1-0.2,1-1c0-4,0-8,0-11.9c0-1,0.3-1.9,0.9-2.7c0.9-1.1,2.5-1.5,3.9-1.1s2.4,1.7,2.5,3.1c0,0.4,0.1,0.7,0.1,1.1
	c0,3.8,0,7.7,0,11.5c0,0.8,0.2,1.1,1,1.1c4,0,8,0,11.9,0c1,0,1.9,0.2,2.7,0.9c0.7,0.6,1.1,1.3,1.3,2.2c0,0.1,0,0.1,0.1,0.2
	c0,0.3,0,0.5,0,0.8c0,0.1-0.1,0.1-0.1,0.2c-0.1,0.9-0.6,1.6-1.3,2.2c-0.8,0.7-1.7,0.9-2.7,0.9c-4,0-7.9,0-11.9,0
	c-0.9,0-1.1,0.2-1.1,1.1c0,4,0,7.9,0,11.9c0,1.3-0.4,2.5-1.5,3.2c-0.5,0.3-1.2,0.5-1.8,0.7C41.1,61.7,40.9,61.7,40.6,61.7z"/>
</svg>
