<?xml version="1.0" encoding="utf-8"?>
<!-- Generator: Adobe Illustrator 25.2.1, SVG Export Plug-In . SVG Version: 6.00 Build 0)  -->
<svg version="1.1" id="Camada_1" xmlns="http://www.w3.org/2000/svg" xmlns:xlink="http://www.w3.org/1999/xlink" x="0px" y="0px"
	 viewBox="0 0 82 82" style="enable-background:new 0 0 82 82;" xml:space="preserve">
<style type="text/css">
	.st0{fill:#A79F88;}
	.st1{fill:#FFFFFF;stroke:#FFFFFF;stroke-width:0.75;stroke-miterlimit:10;}
</style>
<path class="st0" d="M54,0H28C12.5,0,0,12.5,0,28v26c0,15.5,12.5,28,28,28h26c15.5,0,28-12.5,28-28V28C82,12.5,69.5,0,54,0z"/>
<g>
	<path class="st1" d="M54,33.3c-0.1,0-0.3-0.1-0.4-0.1C53.7,33.2,53.9,33.3,54,33.3z"/>
	<path class="st1" d="M44,35.7c-0.4,0.3-0.8,0.5-1.2,0.8C43.3,36.2,43.7,36,44,35.7z"/>
	<path class="st1" d="M41.1,38.5c0-1.9,0.1-3.8,0-5.6s-0.2-3.5-0.4-5.3c0-0.1-0.1-0.2-0.1-0.4h-0.1c0,0.5,0.1,1,0.1,1.5
		c0.1,1.6,0.2,3.1,0.3,4.7c0.1,1.3,0.1,2.5,0.1,3.8c0,0.8,0,1.5,0.2,2.2c0.3,0.8,0.3,1.6,0.4,2.4c0,0.1,0.7,1.9,0.8,2.8
		c0.1,1,0.4,2,1.1,2.7c0.7,0.7,1.1,1.1,2,0.8c0.4-0.1,0.8-0.1,1.2-0.3c0.6-0.3,2.4-0.3,3-0.7l0-0.1c-0.4,0.2-2,0.2-2.4,0.3
		c-0.4,0.2-0.9,0.2-1.3,0.3c-0.2,0.1-0.5,0.2-0.7,0.3c-0.1,0-0.3,0.1-0.4,0.1c-0.5-0.4-1.1-0.8-1.6-1.3s-0.6-1.3-0.7-2
		c-0.1-0.6-0.2-1.2-0.3-1.8c0-0.2-0.2-0.4-0.3-0.6c-0.1-0.2-0.3-0.4-0.3-0.6c0.1-1.2-0.3-2.3,0-3.5c0.1-0.2,0.1-0.4,0.2-0.5
		c-0.2,0.4-0.4,0.7-0.5,1.1C41.4,38.8,41.1,38.7,41.1,38.5z"/>
	<path class="st1" d="M41.9,37.7c0.2-0.3,0.4-0.6,0.6-0.9c0.1-0.1,0.3-0.2,0.4-0.3c-0.1,0-0.1,0.1-0.2,0.1
		C42.3,36.9,42.1,37.3,41.9,37.7z"/>
	<polygon class="st1" points="70.6,27.5 70.6,27.5 70.6,27.5 	"/>
	<path class="st1" d="M14.7,28.8c-0.7,0.1-1.5,0.2-2.2,0.4c0.1,0.1,0.3,0,0.6-0.1c0.2,0,0.5-0.1,0.7-0.1c1.3-0.2,2.6-0.5,3.8-0.6
		l0-0.1C16.6,28.4,15.7,28.6,14.7,28.8z"/>
	<path class="st1" d="M44.5,35.3c-0.2,0.1-0.3,0.2-0.5,0.3c0.4-0.2,0.8-0.5,1.2-0.7c1-0.7,2.2-1.1,3.4-1.5c-1.2,0.2-2.2,0.7-3.3,1.3
		C45,34.9,44.8,35.1,44.5,35.3z"/>
	<path class="st1" d="M66,32.7C66,32.7,66,32.7,66,32.7c0.1,0,0.1,0.1,0.2,0.2C66.1,32.9,66.1,32.8,66,32.7z"/>
	<path class="st1" d="M66.2,32.9C66.2,32.9,66.2,33,66.2,32.9C66.2,33,66.2,32.9,66.2,32.9z"/>
	<path class="st1" d="M12.1,28.7c-0.4-0.6-0.3-1.7,0.2-2.3c0.4-0.5,1-0.5,1.5-0.6c1.6-0.3,3.2-0.6,4.8-0.9c1.4-0.2,2.8-0.4,4.3-0.5
		c1.5-0.1,2.9-0.3,4.4-0.3c1.1,0,2.3,0,3.5,0c0.4,0,0.8,0.1,1.1,0.3c0.4,0.1,0.5,0.6,0.6,0.9c0.3,1,0.6,2,0.5,3.1
		c0,0.3,0.2,0.7,0.3,0.9c0.1,0.1,0.3,0.2,0.5,0.2c0.1,0,0.3-0.2,0.3-0.3c0.1-0.7,0.2-1.5,0.3-2.2c0.1-0.8,0.4-1.5,1-2.1
		c0.9-0.8,1.9-1,3.1-0.8c0.4,0.1,0.7,0.2,1.1,0.5c0.1,0.1,0.3,0.1,0.5,0.2c-0.2-0.4-0.6-0.7-1-0.8c-1.3-0.4-2.6-0.1-3.8,0.6
		c-0.9,0.6-1.1,1.6-1.3,2.5c-0.1,0.4,0,0.9,0,1.3c0,0.1,0,0.3-0.1,0.4c0,0.1-0.1,0.2-0.2,0.2c-0.1,0-0.2-0.1-0.3-0.2
		c-0.1-0.3-0.2-0.5-0.2-0.8c-0.1-0.7,0-1.4-0.1-2c-0.1-0.5-0.3-1-0.5-1.5c-0.2-0.4-0.6-0.6-1.1-0.6c-1.3-0.1-2.5-0.1-3.8-0.1
		c-1.1,0-2.2,0.1-3.4,0.2c-0.1,0-0.2,0-0.3-0.1c0.2-0.1,0.3-0.3,0.5-0.4c0.3-0.2,0.7-0.4,1-0.5c0.7-0.3,1.5-0.6,2.3-0.8
		c1.4-0.3,2.8-0.5,4.3-0.7c1-0.1,2.1,0,3.1-0.1c1.3-0.1,2.7-0.2,4-0.3c2-0.1,4.1-0.2,6.1,0.2c0.7,0.1,1.4,0.4,2.1,0.6
		c1.4,0.5,2.5,1.5,3.9,2.2c0.4,0.2,0.8,0.5,1.1,0.8c0.3,0.2,0.5,0.5,0.7,0.8c0.3,0.4,0.7,1.1,1,1.5c0,0,0.5,0.1,0.4,0
		c-0.3-0.4-0.6-0.8-0.9-1.2c-0.6-0.9-1.3-1.6-2.2-2c-0.8-0.4-1.5-1-2.3-1.4c-1.3-0.8-2.6-1.2-4.1-1.5c-1.9-0.4-3.3-0.3-4.8-0.3
		c-2,0.1-3.9,0.2-5.9,0.3c-1.6,0.1-3.2,0.1-4.7,0.3c-2.3,0.2-4.5,0.8-6.4,2c-0.7,0.4-1.3,0.6-2.1,0.7c-1.7,0.2-3.4,0.4-5.1,0.7
		c-1.2,0.2-2.4,0.5-3.6,0.7c-0.6,0.1-1.1,0.4-1.3,1.1c0,0.1-0.1,0.1-0.1,0.2c-0.4,0.7-0.1,2,0.5,2.4c0.1,0.1,0.3,0.1,0.4,0.1
		c0.2,0,0.4-0.1,0.6-0.1C12.4,29.2,12.3,29,12.1,28.7z"/>
	<path class="st1" d="M67.5,34.4c-0.3-0.6-0.8-1-1.3-1.5c0.2,0.2,0.4,0.4,0.5,0.6C67.1,33.8,67.3,34.1,67.5,34.4z"/>
	<path class="st1" d="M62,29.6c-0.4,0.1-0.8,0.3-1.2,0.5c-1,0.3-1.9,0.6-2.9,1c-0.6,0.2-1.2,0.5-1.6,1C56,32.4,56,33,55.9,33.4
		c0,0,0,0.1,0.1,0.1c0,0,0.1,0.1,0.2,0.1c0.1-0.4,0.1-0.8,0.3-1.2c0-0.2,0.2-0.3,0.3-0.4c0.3-0.2,0.6-0.4,0.9-0.5
		c0.6-0.3,1.2-0.4,1.8-0.1c0.6,0.3,1.3,0.3,1.9,0.3c1,0,2.1,0,3.1,0.2c0.5,0.1,1.1,0.5,1.5,0.8c-0.5-0.4-1-0.8-1.7-1
		c-0.8-0.2-1.7-0.3-2.5-0.2c-0.8,0-1.5,0-2.3-0.2c-0.1,0-0.3-0.1-0.5-0.3c0.3-0.2,0.6-0.4,0.8-0.5c0.8-0.3,1.6-0.6,2.5-0.9
		c1.9-0.5,3.8-1,5.7-1.5c0.8-0.2,1.6-0.3,2.4-0.5c0.4-0.1-0.1,0,0-0.1c-0.6,0.1-3.7,0.7-4.3,0.9C64.7,28.8,63.4,29.2,62,29.6z"/>
	<path class="st1" d="M70.8,27.2c0-0.5-0.3-1.7-0.4-2.2c-0.1-0.5-0.3-1.7-0.4-1.7c-0.1-0.2-2.2,0.3-3.1,0.5c0,0-1.5,0.5-1.7,0.5
		c-1.3,0.3-2.6,0.6-3.8,1c-2.1,0.6-4.3,1.1-6.3,1.9c-0.1,0-1.9,0.4-0.3,0.1c0.7-0.2,1.5-0.3,1.9-0.5c1.5-0.5,3-0.9,4.5-1.3
		c1.4-0.4,2.9-0.7,4.3-1.1c1.3-0.3,3.1-1,4.4-1c-0.2,0,0.9,4,0.6,4.1C70.7,27.4,70.8,27.3,70.8,27.2z"/>
	<path class="st1" d="M48.6,33.4C48.6,33.4,48.6,33.4,48.6,33.4c0.2,0,0.3-0.1,0.5-0.1c0.9-0.1,1.7-0.5,2.6-0.4c0.3,0,0.7,0.1,1,0.1
		c0.3,0,0.6,0.1,0.9,0.2c-0.6-0.1-1.1-0.2-1.7-0.3C50.8,32.8,49.7,33.1,48.6,33.4z"/>
	<path class="st1" d="M68.8,36.8c0.3,0.8,0.5,1.6,0.7,2.5c0.3,0.9,0.1,1.8,0,2.6c-0.1,0.5-0.2,1.1-0.4,1.6c-0.2,0.7-0.6,1.4-1.2,1.9
		c-0.5,0.5-1.1,1.1-1.6,1.6c-0.2,0.2-0.4,0.3-0.7,0.4c-0.5,0.2-1,0.5-1.6,0.6c-0.7,0.1-1.4,0.1-2,0c0.1,0.2,0.2,0.4,0.2,0.5
		c0.2,1,0.4,2,0.2,3c-0.1,0.6-0.2,1.3-0.7,1.9c-0.2,0.3-0.4,0.6-0.5,0.9c-0.4,0.7-1.1,1.2-1.8,1.7c-0.6,0.4-1.2,0.8-1.8,1.2
		c-0.6,0.4-1.3,0.6-2,0.7c-0.9,0.2-1.8,0.4-2.6,0.9c-0.4,0.3-0.9,0.3-1.4,0.5c-0.7,0.2-1.4,0.4-2.2,0.5c-1.2,0.1-2.3,0.2-3.5,0.2
		c-0.4,0-0.8,0-1.2,0c-1.4,0.1-2.6-0.4-3.8-1c-1.2-0.7-2.3-1.6-3.3-2.6c-1-0.9-2-1.8-3-2.6c-0.1-0.1-0.2-0.1-0.4-0.1
		c-1-0.1-1.5-0.7-2-1.5c-0.2-0.4-0.4-0.7-0.6-1.1l0.6-5.1c0.3-0.4,1.1-1,1.4-1.4c0.5-0.5,1.2-0.8,1.7-1.2c0.2-0.1,0.4-0.2,0.6-0.4
		c0.4-0.7,0.8-1.3,0.6-2.2c0-0.1,0-0.3,0-0.4c0.1-0.3,0.2-0.7,0.3-1c0.6-0.7,0.9-1.6,1.1-2.5c0.2-1.3,0.4-2.6,0.5-3.9
		c0.1-1.3,0.1-2.5-0.3-3.8c-0.1-0.2-0.2-0.4-0.3-0.7c-0.1-0.3-0.3-0.5-0.6-0.5c-0.4,0-0.6,0.1-0.8,0.5C36,29.2,36,30,35.9,30.8
		c-0.1,0.6-0.3,1.1-0.5,1.6c-0.3,0.6-0.9,0.7-1.4,0.7c-1.6,0-2.6-0.8-3-2.4c-0.2-0.6-0.4-1.2-0.4-1.9c-0.1-0.7-0.8-1.2-1.3-1.2
		c-0.9-0.1-1.9-0.1-2.8-0.1c-0.8,0-1.6,0.1-2.4,0.2c-1.4,0.1-2.7,0.2-4.1,0.3c-0.8,0.1-1.6,0.2-2.4,0.4l0.1,0.1
		c-0.3,0.3-0.6,0.7-1,1c-1.3,1-2.4,2.1-3.2,3.5c-0.6,1-0.9,2.1-0.8,3.3c0.1,1,0.4,1.8,0.9,2.6c0.4,0.6,0.8,1.2,1.2,1.7
		c0.2,0.3,0.6,0.5,0.6,0.8c0,0.3-0.3,0.6-0.4,1c0,0,0,0.1-0.1,0.1c-0.8,1.5-1.2,3.1-0.8,4.7c0.2,0.9,0.5,1.8,0.8,2.7
		c0.6,1.6,1.7,3,3,4.2c0.3,0.3,0.7,0.5,1,0.8c0.8,0.7,1.8,1.2,2.8,1.5c0.5,0.2,1.1,0.3,1.6,0.6c1.1,0.6,2.1,1.3,3.1,1.9
		c1.4,0.8,2.9,1.1,4.4,1.2c0.8,0,1.6,0,2.4,0.1c0.7,0,1.4,0.2,2.1,0.1c1.3-0.1,2.6-0.4,3.9-1c0.3-0.2,0.6-0.1,0.8,0.1
		c0.5,0.3,1,0.6,1.5,0.8c1,0.4,2,0.5,3.1,0.6c1.8,0.2,3.5,0,5.2-0.2c1.2-0.2,2.3-0.7,3.5-1.2c0.7-0.3,1.4-0.5,2.2-0.8
		c0.8-0.3,1.6-0.4,2.4-0.9c0.8-0.6,1.7-1.1,2.5-1.7c0.7-0.5,1.3-1.1,1.6-1.8c0.6-1.3,0.9-2.7,0.6-4.2c-0.1-0.5-0.2-1.1-0.3-1.6
		c0.2,0,0.3,0,0.4,0c0.3,0,0.7,0,1-0.1c1.3-0.3,2.4-0.9,3.4-1.8c0.8-0.8,1.6-1.6,2-2.7c0.3-0.9,0.5-1.9,0.6-2.9c0.1-1-0.1-2-0.4-3
		c-0.4-1.2-1-2.4-1.8-3.5c0,0,0.1,0.1,0.1,0.1C68.1,35.2,68.5,36,68.8,36.8z M38,59c-0.7,0.2-1.4,0.4-2.1,0.5
		c-0.6,0.1-1.1,0.1-1.7,0c-1.1,0-2.2,0-3.3-0.1c-1.1,0-2.2-0.2-3.2-0.6c-1.5-0.6-2.9-1.6-4.4-2.4c-0.7-0.4-1.6-0.6-2.4-1
		c-0.5-0.2-1-0.4-1.4-0.7c-0.1,0.1-0.8-0.4-1.4-0.9c-0.4-0.4-0.8-0.8-1.1-1.2c-1-1.1-1.6-2.3-2-3.7c-0.5-1.6-0.4-3.2,0.1-4.8
		c0.4-1.4,1.2-2.7,2.2-3.8c0.7-0.8,1.5-1.4,2.2-2.2c0.3-0.2,0.5-0.5,0.8-0.7c0,0,0-0.1-0.1-0.1c-0.4,0.2-0.8,0.4-1.1,0.7
		c-0.9,0.8-1.7,1.7-2.5,2.5c0,0,0,0,0,0.1c-0.4,0.5-0.7,0.5-1.1-0.1c0-0.1-0.1-0.1-0.1-0.2c-0.8-0.6-1.1-1.4-1.5-2.2
		c-0.3-0.5-0.4-1.2-0.4-1.8c-0.2-1.3,0.1-2.4,0.9-3.5c0.6-0.9,1.3-1.7,2-2.4c0.4-0.4,0.9-0.8,1.3-1.2c0.4-0.3,0.7-0.7,1.1-0.9
		c0.5-0.2,1.2-0.3,1.8-0.3c1.7-0.1,3.3-0.3,5-0.4c1.1-0.1,2.2-0.1,3.4,0.1c0.2,0,0.4,0.1,0.6,0.2c0.1,0.5,0.3,1,0.5,1.5
		c0.2,0.6,0.3,1.2,0.5,1.8c0.4,1.1,1.3,1.6,2.3,2.1c0.4,0.2,0.9,0.3,1.4,0.1c0.9-0.2,1.4-0.8,1.6-1.7c0.1-0.5,0.2-1,0.3-1.5
		c0.1-0.3,0.1-0.7,0.2-1c0.1-0.3,0.3-0.6,0.4-0.9c0.7-0.1,0.7,0,1.1,0.6c0.3,0.6,0.2,1.2,0.3,1.9c0.1,0.7,0.1,1.4,0,2.1
		c-0.1,0.9-0.2,1.7-0.3,2.6c-0.1,0.5-0.1,1.1-0.2,1.8c-0.2-0.2-0.3-0.4-0.4-0.5c-0.4-0.6-0.9-1-1.6-1c-0.3,0-0.6-0.2-0.9-0.3
		c-0.6-0.2-1.3-0.4-1.9-0.6c-0.2-0.1-0.5-0.2-0.6-0.4c-0.5-0.6-1.2-0.7-2-0.5c-0.5,0.1-1.1,0.3-1.6,0.4c-0.1,0-0.2,0.1-0.4,0.2v0.1
		c0.1,0,0.3,0,0.4-0.1c0.7-0.3,1.4-0.5,2.2-0.4c0.4,0.1,0.8,0.3,1.2,0.4c0.5,0.2,0.9,0.5,1.3,0.7c0.5,0.2,1,0.4,1.6,0.5
		c0.6,0.1,1.2,0.3,1.7,0.7c0.4,0.3,0.6,0.8,0.8,1.3c0,0.1-0.1,0.3-0.2,0.5c-0.1,0.3-0.3,0.7-0.4,1c-0.1,0.1-0.2,0.2-0.2,0.3
		c-0.1,0.6-0.3,1.3-0.3,1.9c0,0.6-0.3,1-0.7,1.3c-1,0.8-2.8,1.6-3.4,2.8c-0.2,0.3-0.6,1.1-0.7,1.4c-0.1,0.4-0.2,0.9-0.3,1.4
		c-0.2,0.9,0,1.7,0.2,2.6c0-0.1-0.1-0.2-0.1-0.3c0,0.6,0.2,1.1,0.5,1.6c0.6,0.7,1.2,1.2,2.1,1.6c0.6,0.3,1.1,0.7,1.5,1.2
		c1,0.9,2,1.9,3,2.8c0.2,0.2,0.4,0.4,0.6,0.7C38.7,58.7,38.4,58.9,38,59z"/>
	<path class="st1" d="M58.4,45.1c-0.2-0.5-0.3-1,0-1.6c0.7-1.3,1.3-2.7,1.2-4.2c0-0.7-0.2-1.4-0.4-2c-0.1-0.4-0.2-0.9-0.4-1.3
		c-0.3-0.7-1-1.2-1.7-1.6c-0.5-0.3-1-0.5-1.6-0.7c-0.5-0.2-1-0.3-1.5-0.4c1,0.3,2,0.7,2.9,1.2c0.8,0.5,1.4,1.3,1.8,2.2
		c0.7,1.6,0.6,3.1,0.2,4.7c-0.2,0.5-0.4,1.1-0.7,1.5c-0.5,0.8-0.4,1.6,0,2.3c0.5,1.1,1.4,1.7,2.4,2.2c-0.3-0.2-0.5-0.3-0.8-0.6
		C59.2,46.3,58.7,45.8,58.4,45.1z"/>
	<path class="st1" d="M61.6,47.7c-0.4-0.1-0.7-0.2-1-0.3c0.5,0.3,0.9,0.5,1.4,0.6C61.9,47.9,61.8,47.8,61.6,47.7z"/>
	<path class="st1" d="M55.8,48c0.2,0.1,0.4,0.1,0.6,0.1c0.5-0.1,0.7-0.5,0.9-0.9c0.1-0.2,0.6-1,0.7-1.2c0,0-0.2,0-0.2-0.1
		c-0.3,0.4-0.7,1.2-1,1.6c-0.1,0.1-0.4,0.3-0.5,0.2c-0.4-0.1-0.9-0.2-1.3-0.4c-0.7-0.4-1.4-0.9-2.3-0.8c-0.1,0-0.1,0-0.2,0
		c0.5,0,0.9,0.1,1.4,0.3C54.5,47.1,55.1,47.6,55.8,48z"/>
	<path class="st1" d="M50.8,46.6c-0.2,0-0.4,0.1-0.6,0.2v0.1c0.4-0.1,0.9-0.2,1.3-0.3c0.1,0,0.3,0,0.4-0.1
		C51.5,46.6,51.2,46.6,50.8,46.6z"/>
	<path class="st1" d="M51.9,46.5c0.2,0,0.4,0,0.6,0C52.2,46.5,52.1,46.5,51.9,46.5z"/>
</g>
</svg>
