<?xml version="1.0" encoding="utf-8"?>
<!-- Generator: Adobe Illustrator 25.2.1, SVG Export Plug-In . SVG Version: 6.00 Build 0)  -->
<svg version="1.1" id="Camada_1" xmlns="http://www.w3.org/2000/svg" xmlns:xlink="http://www.w3.org/1999/xlink" x="0px" y="0px"
	 viewBox="0 0 82 82" style="enable-background:new 0 0 82 82;" xml:space="preserve">
<style type="text/css">
	.st0{fill:#BBBCBD;}
	.st1{fill:#FFFFFF;stroke:#FFFFFF;stroke-width:0.75;stroke-miterlimit:10;}
	.st2{fill:#FFFFFF;}
</style>
<path class="st0" d="M54,0H28C12.5,0,0,12.5,0,28v26c0,15.5,12.5,28,28,28h26c15.5,0,28-12.5,28-28V28C82,12.5,69.5,0,54,0z"/>
<g>
	<path class="st1" d="M48.1,31.9c-0.1,0-0.2,0-0.3-0.1C47.9,31.9,48,31.9,48.1,31.9z"/>
	<path class="st1" d="M42.2,33.3c-0.2,0.1-0.5,0.3-0.7,0.5C41.7,33.6,41.9,33.5,42.2,33.3z"/>
	<path class="st1" d="M40.4,35c0-1.1,0.1-2.2,0-3.3c-0.1-1.1-0.1-2.1-0.2-3.1c0-0.1-0.1-0.1-0.1-0.2h-0.1c0,0.3,0.1,0.6,0.1,0.9
		c0.1,0.9,0.1,1.8,0.2,2.8c0.1,0.8,0.1,1.5,0.1,2.2c0,0.5,0,0.9,0.1,1.3c0.2,0.5,0.2,0.9,0.2,1.4c0,0.1,0.4,1.1,0.5,1.7
		c0.1,0.6,0.2,1.2,0.7,1.6c0.4,0.4,0.7,0.7,1.2,0.5c0.2-0.1,0.5-0.1,0.7-0.2c0.4-0.2,1.4-0.2,1.8-0.4l0-0.1
		c-0.2,0.1-1.2,0.1-1.4,0.2c-0.2,0.1-0.5,0.1-0.8,0.2c-0.1,0.1-0.3,0.1-0.4,0.2c-0.1,0-0.2,0.1-0.2,0.1c-0.3-0.2-0.7-0.5-0.9-0.8
		c-0.3-0.3-0.4-0.8-0.4-1.2c-0.1-0.4-0.1-0.7-0.2-1.1c0-0.1-0.1-0.2-0.2-0.4c-0.1-0.1-0.2-0.2-0.2-0.4c0.1-0.7-0.2-1.4,0-2.1
		c0-0.1,0.1-0.2,0.1-0.3c-0.1,0.2-0.2,0.4-0.3,0.7C40.6,35.2,40.4,35.1,40.4,35z"/>
	<path class="st1" d="M40.9,34.5c0.1-0.2,0.2-0.4,0.4-0.5c0.1-0.1,0.1-0.1,0.2-0.2c0,0-0.1,0.1-0.1,0.1C41.1,34,41,34.3,40.9,34.5z"
		/>
	<polygon class="st1" points="57.9,28.5 57.9,28.5 57.9,28.5 	"/>
	<path class="st1" d="M24.8,29.2c-0.4,0-0.9,0.1-1.3,0.2c0.1,0,0.2,0,0.4,0c0.1,0,0.3-0.1,0.4-0.1c0.8-0.1,1.5-0.3,2.3-0.4l0,0
		C25.9,29,25.4,29.1,24.8,29.2z"/>
	<path class="st1" d="M42.4,33.1c-0.1,0.1-0.2,0.1-0.3,0.2c0.2-0.1,0.5-0.3,0.7-0.4c0.6-0.4,1.3-0.7,2-0.9c-0.7,0.1-1.3,0.4-1.9,0.8
		C42.7,32.9,42.6,33,42.4,33.1z"/>
	<path class="st1" d="M55.2,31.6C55.2,31.6,55.2,31.5,55.2,31.6c0,0,0.1,0.1,0.1,0.1C55.2,31.6,55.2,31.6,55.2,31.6z"/>
	<path class="st1" d="M55.3,31.7C55.3,31.7,55.3,31.7,55.3,31.7C55.3,31.7,55.3,31.7,55.3,31.7z"/>
	<path class="st1" d="M23.3,29.2c-0.2-0.4-0.2-1,0.1-1.4c0.2-0.3,0.6-0.3,0.9-0.4c0.9-0.2,1.9-0.4,2.8-0.5c0.8-0.1,1.7-0.2,2.5-0.3
		c0.9-0.1,1.7-0.2,2.6-0.2c0.7,0,1.4,0,2.1,0c0.2,0,0.5,0.1,0.7,0.2c0.2,0.1,0.3,0.4,0.4,0.5c0.2,0.6,0.4,1.2,0.3,1.8
		c0,0.2,0.1,0.4,0.2,0.5c0.1,0.1,0.2,0.1,0.3,0.1c0.1,0,0.2-0.1,0.2-0.2c0.1-0.4,0.1-0.9,0.2-1.3c0.1-0.5,0.2-0.9,0.6-1.2
		c0.5-0.5,1.1-0.6,1.8-0.5c0.2,0.1,0.4,0.1,0.7,0.3c0.1,0.1,0.2,0.1,0.3,0.1c-0.1-0.2-0.4-0.4-0.6-0.5c-0.8-0.2-1.5-0.1-2.2,0.4
		c-0.5,0.4-0.7,0.9-0.8,1.5c-0.1,0.2,0,0.5,0,0.8c0,0.1,0,0.2-0.1,0.2c0,0.1-0.1,0.1-0.1,0.1c-0.1,0-0.1-0.1-0.2-0.1
		c-0.1-0.2-0.1-0.3-0.1-0.5c-0.1-0.4,0-0.8-0.1-1.2c-0.1-0.3-0.2-0.6-0.3-0.9c-0.1-0.2-0.4-0.4-0.7-0.4c-0.8-0.1-1.5-0.1-2.2-0.1
		c-0.7,0-1.3,0.1-2,0.1c-0.1,0-0.1,0-0.2-0.1c0.1-0.1,0.2-0.2,0.3-0.2c0.2-0.1,0.4-0.2,0.6-0.3c0.4-0.2,0.9-0.4,1.4-0.5
		c0.8-0.2,1.7-0.3,2.5-0.4c0.6-0.1,1.2,0,1.8-0.1c0.8-0.1,1.6-0.1,2.4-0.2c1.2-0.1,2.4-0.1,3.6,0.1c0.4,0.1,0.8,0.2,1.2,0.4
		c0.8,0.3,1.5,0.9,2.3,1.3c0.2,0.1,0.5,0.3,0.7,0.5c0.2,0.1,0.3,0.3,0.4,0.5c0.2,0.2,0.4,0.7,0.6,0.9c0,0,0.3,0,0.2,0
		c-0.2-0.2-0.4-0.5-0.5-0.7c-0.4-0.5-0.8-0.9-1.3-1.2c-0.5-0.2-0.9-0.6-1.4-0.8c-0.8-0.5-1.5-0.7-2.4-0.9c-1.1-0.2-2-0.2-2.8-0.2
		c-1.2,0.1-2.3,0.1-3.5,0.2c-0.9,0.1-1.9,0.1-2.8,0.2c-1.4,0.1-2.7,0.5-3.8,1.2c-0.4,0.2-0.8,0.4-1.2,0.4c-1,0.1-2,0.2-3,0.4
		c-0.7,0.1-1.4,0.3-2.1,0.4c-0.4,0.1-0.7,0.2-0.8,0.7c0,0.1-0.1,0.1-0.1,0.1c-0.2,0.4-0.1,1.2,0.3,1.4c0.1,0.1,0.2,0.1,0.2,0.1
		c0.1,0,0.2,0,0.4-0.1C23.4,29.4,23.4,29.4,23.3,29.2z"/>
	<path class="st1" d="M56.1,32.6c-0.2-0.3-0.5-0.6-0.7-0.9c0.1,0.1,0.2,0.2,0.3,0.3C55.8,32.2,55.9,32.4,56.1,32.6z"/>
	<path class="st1" d="M52.8,29.7c-0.2,0.1-0.5,0.2-0.7,0.3c-0.6,0.2-1.1,0.4-1.7,0.6c-0.4,0.1-0.7,0.3-0.9,0.6
		c-0.2,0.2-0.2,0.5-0.2,0.8c0,0,0,0.1,0.1,0.1c0,0,0.1,0.1,0.1,0.1c0.1-0.2,0.1-0.5,0.2-0.7c0-0.1,0.1-0.2,0.2-0.2
		c0.2-0.1,0.4-0.2,0.5-0.3c0.4-0.2,0.7-0.2,1.1-0.1c0.4,0.2,0.8,0.2,1.1,0.2c0.6,0,1.2,0,1.8,0.1c0.3,0.1,0.6,0.3,0.9,0.5
		c-0.3-0.3-0.6-0.5-1-0.6c-0.5-0.1-1-0.2-1.5-0.1c-0.5,0-0.9,0-1.4-0.1c-0.1,0-0.2-0.1-0.3-0.2c0.2-0.1,0.4-0.2,0.5-0.3
		c0.5-0.2,0.9-0.4,1.5-0.5c1.1-0.3,2.2-0.6,3.4-0.9c0.5-0.1,0.9-0.2,1.4-0.3c0.2-0.1-0.1,0,0,0c-0.3,0-2.2,0.4-2.5,0.5
		C54.4,29.2,53.6,29.5,52.8,29.7z"/>
	<path class="st1" d="M58,28.3c0-0.3-0.2-1-0.2-1.3c-0.1-0.3-0.2-1-0.2-1c-0.1-0.1-1.3,0.2-1.8,0.3c0,0-0.9,0.3-1,0.3
		c-0.8,0.2-1.5,0.4-2.2,0.6c-1.2,0.4-2.5,0.7-3.7,1.1c-0.1,0-1.1,0.2-0.2,0.1c0.4-0.1,0.9-0.2,1.1-0.3c0.9-0.3,1.8-0.5,2.7-0.8
		c0.8-0.2,1.7-0.4,2.5-0.7c0.8-0.2,1.8-0.6,2.6-0.6c-0.1,0,0.5,2.3,0.4,2.4C58,28.4,58,28.3,58,28.3z"/>
	<path class="st1" d="M44.9,32C44.9,32,44.9,32,44.9,32c0.1,0,0.2,0,0.3-0.1c0.5-0.1,1-0.3,1.5-0.2c0.2,0,0.4,0.1,0.6,0.1
		c0.2,0,0.4,0.1,0.5,0.1c-0.3-0.1-0.7-0.1-1-0.2C46.2,31.6,45.5,31.8,44.9,32z"/>
	<path class="st1" d="M56.8,34c0.2,0.5,0.3,0.9,0.4,1.5c0.2,0.5,0.1,1.1,0,1.5c-0.1,0.3-0.1,0.7-0.2,0.9c-0.1,0.4-0.4,0.8-0.7,1.1
		c-0.3,0.3-0.7,0.7-0.9,0.9c-0.1,0.1-0.2,0.2-0.4,0.2c-0.3,0.1-0.6,0.3-0.9,0.4c-0.4,0.1-0.8,0.1-1.2,0c0.1,0.1,0.1,0.2,0.1,0.3
		c0.1,0.6,0.2,1.2,0.1,1.8c-0.1,0.4-0.1,0.8-0.4,1.1c-0.1,0.2-0.2,0.4-0.3,0.5c-0.2,0.4-0.7,0.7-1.1,1c-0.4,0.2-0.7,0.5-1.1,0.7
		c-0.4,0.2-0.8,0.4-1.2,0.4c-0.5,0.1-1.1,0.2-1.5,0.5c-0.2,0.2-0.5,0.2-0.8,0.3c-0.4,0.1-0.8,0.2-1.3,0.3c-0.7,0.1-1.4,0.1-2.1,0.1
		c-0.2,0-0.5,0-0.7,0c-0.8,0.1-1.5-0.2-2.2-0.6c-0.7-0.4-1.4-0.9-2-1.5c-0.6-0.5-1.2-1.1-1.8-1.5C36.5,44,36.5,44,36.3,44
		c-0.6-0.1-0.9-0.4-1.2-0.9c-0.1-0.2-0.2-0.4-0.3-0.6l0.4-3c0.2-0.2,0.6-0.6,0.9-0.8c0.3-0.3,0.7-0.5,1-0.7c0.1-0.1,0.2-0.1,0.4-0.2
		c0.2-0.4,0.5-0.8,0.4-1.3c0-0.1,0-0.2,0-0.2c0.1-0.2,0.1-0.4,0.2-0.6c0.4-0.4,0.5-0.9,0.7-1.5c0.1-0.8,0.2-1.5,0.3-2.3
		c0.1-0.8,0.1-1.5-0.2-2.2c-0.1-0.1-0.1-0.2-0.2-0.4c-0.1-0.2-0.2-0.3-0.4-0.3c-0.2,0-0.4,0.1-0.5,0.3c-0.3,0.4-0.3,0.9-0.4,1.4
		c-0.1,0.4-0.2,0.7-0.3,0.9c-0.2,0.4-0.5,0.4-0.8,0.4c-0.9,0-1.5-0.5-1.8-1.4c-0.1-0.4-0.2-0.7-0.2-1.1c-0.1-0.4-0.5-0.7-0.8-0.7
		c-0.5-0.1-1.1-0.1-1.7-0.1c-0.5,0-0.9,0.1-1.4,0.1c-0.8,0.1-1.6,0.1-2.4,0.2c-0.5,0.1-0.9,0.1-1.4,0.2l0,0.1
		c-0.2,0.2-0.4,0.4-0.6,0.6c-0.8,0.6-1.4,1.2-1.9,2.1c-0.4,0.6-0.5,1.2-0.5,2c0.1,0.6,0.2,1.1,0.5,1.5c0.2,0.4,0.5,0.7,0.7,1
		c0.1,0.2,0.4,0.3,0.4,0.5c0,0.2-0.2,0.4-0.2,0.6c0,0,0,0.1-0.1,0.1c-0.5,0.9-0.7,1.8-0.5,2.8c0.1,0.5,0.3,1.1,0.5,1.6
		c0.4,0.9,1,1.8,1.8,2.5c0.2,0.2,0.4,0.3,0.6,0.5c0.5,0.4,1.1,0.7,1.7,0.9c0.3,0.1,0.7,0.2,0.9,0.4c0.7,0.4,1.2,0.8,1.8,1.1
		c0.8,0.5,1.7,0.7,2.6,0.7c0.5,0,0.9,0,1.4,0.1c0.4,0,0.8,0.1,1.2,0.1c0.8-0.1,1.5-0.2,2.3-0.6c0.2-0.1,0.4-0.1,0.5,0.1
		c0.3,0.2,0.6,0.4,0.9,0.5c0.6,0.2,1.2,0.3,1.8,0.4c1.1,0.1,2.1,0,3.1-0.1c0.7-0.1,1.4-0.4,2.1-0.7c0.4-0.2,0.8-0.3,1.3-0.5
		c0.5-0.2,0.9-0.2,1.4-0.5c0.5-0.4,1-0.7,1.5-1c0.4-0.3,0.8-0.7,0.9-1.1c0.4-0.8,0.5-1.6,0.4-2.5c-0.1-0.3-0.1-0.7-0.2-0.9
		c0.1,0,0.2,0,0.2,0c0.2,0,0.4,0,0.6-0.1c0.8-0.2,1.4-0.5,2-1.1c0.5-0.5,0.9-0.9,1.2-1.6c0.2-0.5,0.3-1.1,0.4-1.7
		c0.1-0.6-0.1-1.2-0.2-1.8c-0.2-0.7-0.6-1.4-1-2.1c0,0,0,0,0,0.1C56.4,33,56.6,33.5,56.8,34z M38.6,47.1c-0.4,0.1-0.8,0.2-1.2,0.3
		c-0.4,0.1-0.7,0.1-1,0c-0.7,0-1.3,0-2-0.1c-0.7,0-1.3-0.1-1.9-0.4c-0.9-0.4-1.7-0.9-2.6-1.4c-0.4-0.2-0.9-0.4-1.4-0.6
		c-0.3-0.1-0.6-0.2-0.8-0.4c-0.1,0.1-0.5-0.2-0.8-0.5c-0.2-0.2-0.5-0.5-0.7-0.7c-0.6-0.7-0.9-1.4-1.2-2.2c-0.3-0.9-0.2-1.9,0.1-2.8
		c0.2-0.8,0.7-1.6,1.3-2.2c0.4-0.5,0.9-0.8,1.3-1.3c0.2-0.1,0.3-0.3,0.5-0.4c0,0,0-0.1-0.1-0.1c-0.2,0.1-0.5,0.2-0.7,0.4
		c-0.5,0.5-1,1-1.5,1.5c0,0,0,0,0,0.1c-0.2,0.3-0.4,0.3-0.7-0.1c0-0.1-0.1-0.1-0.1-0.1c-0.5-0.4-0.7-0.8-0.9-1.3
		c-0.2-0.3-0.2-0.7-0.2-1.1c-0.1-0.8,0.1-1.4,0.5-2.1c0.4-0.5,0.8-1,1.2-1.4c0.2-0.2,0.5-0.5,0.8-0.7c0.2-0.2,0.4-0.4,0.7-0.5
		c0.3-0.1,0.7-0.2,1.1-0.2c1-0.1,2-0.2,3-0.2c0.7-0.1,1.3-0.1,2,0.1c0.1,0,0.2,0.1,0.4,0.1c0.1,0.3,0.2,0.6,0.3,0.9
		c0.1,0.4,0.2,0.7,0.3,1.1c0.2,0.7,0.8,0.9,1.4,1.2c0.2,0.1,0.5,0.2,0.8,0.1c0.5-0.1,0.8-0.5,0.9-1c0.1-0.3,0.1-0.6,0.2-0.9
		c0.1-0.2,0.1-0.4,0.1-0.6c0.1-0.2,0.2-0.4,0.2-0.5c0.4-0.1,0.4,0,0.7,0.4c0.2,0.4,0.1,0.7,0.2,1.1c0.1,0.4,0.1,0.8,0,1.2
		c-0.1,0.5-0.1,1-0.2,1.5c-0.1,0.3-0.1,0.7-0.1,1.1c-0.1-0.1-0.2-0.2-0.2-0.3c-0.2-0.4-0.5-0.6-0.9-0.6c-0.2,0-0.4-0.1-0.5-0.2
		c-0.4-0.1-0.8-0.2-1.1-0.4c-0.1-0.1-0.3-0.1-0.4-0.2c-0.3-0.4-0.7-0.4-1.2-0.3c-0.3,0.1-0.7,0.2-0.9,0.2c-0.1,0-0.1,0.1-0.2,0.1
		v0.1c0.1,0,0.2,0,0.2-0.1c0.4-0.2,0.8-0.3,1.3-0.2c0.2,0.1,0.5,0.2,0.7,0.2c0.3,0.1,0.5,0.3,0.8,0.4c0.3,0.1,0.6,0.2,0.9,0.3
		c0.4,0.1,0.7,0.2,1,0.4c0.2,0.2,0.4,0.5,0.5,0.8c0,0.1-0.1,0.2-0.1,0.3c-0.1,0.2-0.2,0.4-0.2,0.6c-0.1,0.1-0.1,0.1-0.1,0.2
		c-0.1,0.4-0.2,0.8-0.2,1.1c0,0.4-0.2,0.6-0.4,0.8c-0.6,0.5-1.6,0.9-2,1.6c-0.1,0.2-0.4,0.7-0.4,0.8c-0.1,0.2-0.1,0.5-0.2,0.8
		c-0.1,0.5,0,1,0.1,1.5c0,0,0-0.1-0.1-0.1c0,0.4,0.1,0.7,0.3,0.9c0.4,0.4,0.7,0.7,1.2,0.9c0.4,0.2,0.7,0.4,0.9,0.7
		c0.6,0.5,1.2,1.1,1.8,1.7c0.1,0.1,0.2,0.2,0.4,0.4C39,46.9,38.8,47.1,38.6,47.1z"/>
	<path class="st1" d="M50.7,38.9c-0.1-0.3-0.2-0.6,0-0.9c0.4-0.8,0.8-1.6,0.7-2.5c0-0.4-0.1-0.8-0.2-1.2c-0.1-0.2-0.1-0.5-0.2-0.8
		c-0.2-0.4-0.6-0.7-1-0.9c-0.3-0.2-0.6-0.3-0.9-0.4c-0.3-0.1-0.6-0.2-0.9-0.3c0.6,0.2,1.2,0.4,1.7,0.7c0.5,0.3,0.8,0.8,1.1,1.3
		c0.4,0.9,0.4,1.8,0.1,2.8c-0.1,0.3-0.2,0.7-0.4,0.9c-0.3,0.5-0.2,0.9,0,1.4c0.3,0.6,0.8,1,1.4,1.3c-0.2-0.1-0.3-0.2-0.5-0.3
		C51.1,39.6,50.8,39.3,50.7,38.9z"/>
	<path class="st1" d="M52.6,40.4c-0.2-0.1-0.4-0.1-0.6-0.2c0.3,0.2,0.6,0.3,0.8,0.4C52.8,40.5,52.7,40.5,52.6,40.4z"/>
	<path class="st1" d="M49.1,40.6c0.1,0.1,0.2,0.1,0.4,0.1c0.3-0.1,0.4-0.3,0.5-0.5c0.1-0.1,0.3-0.6,0.4-0.7c0,0-0.1,0-0.1,0
		c-0.2,0.2-0.4,0.7-0.6,0.9c-0.1,0.1-0.2,0.2-0.3,0.1c-0.2-0.1-0.5-0.1-0.8-0.2c-0.4-0.2-0.8-0.5-1.4-0.5c0,0-0.1,0-0.1,0
		c0.3,0,0.6,0.1,0.8,0.2C48.4,40.1,48.7,40.3,49.1,40.6z"/>
	<path class="st1" d="M46.2,39.8c-0.1,0-0.2,0.1-0.4,0.1v0.1c0.2-0.1,0.5-0.1,0.8-0.2c0.1,0,0.1,0,0.2,0
		C46.6,39.7,46.4,39.8,46.2,39.8z"/>
	<path class="st1" d="M46.8,39.7c0.1,0,0.2,0,0.3,0C47,39.7,46.9,39.7,46.8,39.7z"/>
</g>
<path class="st2" d="M65.5,40.1c0.7,0.3,0.9,0.9,0.9,1.6c0,1.7,0,3.4,0,5.1c0,0.7-0.6,1.3-1.3,1.3c-0.7,0-1.3-0.6-1.3-1.3
	c0-0.3,0-0.6,0-1c-0.2,0.2-0.4,0.4-0.5,0.5c-2,2.2-4,4.5-6.1,6.6C51,59.2,43.5,63.2,34.9,65c-4.3,0.9-8.6,1.2-13,0.8
	c-0.7-0.1-1.1-0.4-1.4-1c0-0.2,0-0.5,0-0.7c0.4-0.9,1.1-1,2-0.9c7.7,0.6,15-0.8,21.9-4.3c4.9-2.5,9-5.8,12.6-9.9c1.8-2,3.6-4,5.4-6
	c0.1-0.1,0.1-0.2,0.3-0.3c-1.1,0-2.1,0-3.1,0c-0.6,0-1.1-0.4-1.3-0.9c-0.2-0.5,0-1.1,0.4-1.4c0.1-0.1,0.3-0.2,0.5-0.3
	C61.5,40,63.5,40,65.5,40.1z"/>
</svg>
