<?xml version="1.0" encoding="utf-8"?>
<!-- Generator: Adobe Illustrator 25.2.1, SVG Export Plug-In . SVG Version: 6.00 Build 0)  -->
<svg version="1.1" id="Camada_1" xmlns="http://www.w3.org/2000/svg" xmlns:xlink="http://www.w3.org/1999/xlink" x="0px" y="0px"
	 viewBox="0 0 82 82" style="enable-background:new 0 0 82 82;" xml:space="preserve">
<style type="text/css">
	.st0{fill:#BBBCBD;}
	.st1{fill:#333333;}
	.st2{fill:#FFFFFF;}
</style>
<path class="st0" d="M54,0H28C12.5,0,0,12.5,0,28v26c0,15.5,12.5,28,28,28h26c15.5,0,28-12.5,28-28V28C82,12.5,69.5,0,54,0z"/>
<path class="st1" d="M45.5,46.8c-0.1,0-0.3,0-0.4-0.1c-0.1,0-0.2-0.1-0.3-0.2c-0.1-0.1-0.2-0.2-0.2-0.3c0-0.1-0.1-0.2-0.1-0.4
	c0-0.1,0-0.3,0.1-0.4c0-0.1,0.1-0.2,0.2-0.3c0.1-0.1,0.2-0.2,0.3-0.2c0.1,0,0.2-0.1,0.4-0.1h3.5c1.6,0,3.1-0.6,4.2-1.7
	c0.6-0.5,1-1.2,1.3-1.9c0.3-0.7,0.5-1.5,0.5-2.2c0-0.8-0.2-1.5-0.5-2.2c-0.3-0.7-0.7-1.3-1.3-1.9c-1.1-1.1-2.6-1.7-4.2-1.7
	c-0.2,0-0.4,0-0.6,0c-0.2,0-0.4,0-0.6,0.1c-0.2,0-0.5,0-0.7-0.1c-0.2-0.1-0.4-0.3-0.5-0.5c-0.6-1.5-1.6-2.7-2.9-3.6
	c-1.5-1-3.3-1.5-5.2-1.3c-1.8,0.2-3.5,0.9-4.8,2.2c-0.7,0.7-1.3,1.5-1.7,2.5c-0.4,0.9-0.6,1.9-0.6,2.9c0,0,0,0.1,0,0.1v0
	c0,0.3-0.1,0.5-0.3,0.7c-0.2,0.2-0.4,0.3-0.7,0.3h-0.1l-0.2,0h-0.1c-1.1,0-2.2,0.4-3,1.2c-0.4,0.4-0.7,0.8-0.9,1.3
	c-0.2,0.5-0.3,1-0.3,1.6c0,0.5,0.1,1.1,0.3,1.6c0.2,0.5,0.5,0.9,0.9,1.3c0.8,0.8,1.9,1.2,3,1.2h4.8c0.3,0,0.5,0.1,0.7,0.3
	c0.2,0.2,0.3,0.4,0.3,0.7c0,0.3-0.1,0.5-0.3,0.7c-0.2,0.2-0.4,0.3-0.7,0.3h-4.8c-1.6,0-3.2-0.6-4.4-1.8c-0.6-0.6-1-1.2-1.3-1.9
	c-0.3-0.7-0.5-1.5-0.5-2.3c0-0.8,0.2-1.6,0.5-2.3c0.3-0.7,0.8-1.4,1.3-1.9c1-1,2.3-1.6,3.8-1.7c0.2-2.3,1.2-4.4,2.9-6
	c1.6-1.6,3.8-2.6,6.1-2.8c2.3-0.2,4.6,0.4,6.5,1.6c1.4,0.9,2.6,2.2,3.3,3.7c0.3,0,0.6,0,0.8,0c2.1,0,4.1,0.8,5.6,2.3
	c0.7,0.7,1.3,1.6,1.7,2.5c0.4,0.9,0.6,1.9,0.6,3c0,1-0.2,2-0.6,3c-0.4,0.9-1,1.8-1.7,2.5c-1.5,1.5-3.5,2.3-5.6,2.3L45.5,46.8z"/>
<path class="st1" d="M39.5,36.1c0-0.3,0.1-0.5,0.3-0.7c0.2-0.2,0.4-0.3,0.7-0.3s0.5,0.1,0.7,0.3c0.2,0.2,0.3,0.4,0.3,0.7V55
	c0,0.3-0.1,0.5-0.3,0.7C41,55.9,40.8,56,40.5,56s-0.5-0.1-0.7-0.3c-0.2-0.2-0.3-0.4-0.3-0.7V36.1z"/>
<path class="st1" d="M47.3,40.8c0.1,0.1,0.2,0.2,0.2,0.3c0,0.1,0.1,0.2,0.1,0.4c0,0.1,0,0.3-0.1,0.4c0,0.1-0.1,0.2-0.2,0.3
	c-0.2,0.2-0.4,0.3-0.7,0.3s-0.5-0.1-0.7-0.3l-5.4-5.3l-5.4,5.3c-0.2,0.2-0.4,0.3-0.7,0.3s-0.5-0.1-0.7-0.3c-0.1-0.1-0.2-0.2-0.2-0.3
	c0-0.1-0.1-0.2-0.1-0.4c0-0.1,0-0.3,0.1-0.4c0-0.1,0.1-0.2,0.2-0.3l6.1-6c0.2-0.2,0.4-0.3,0.7-0.3c0.3,0,0.5,0.1,0.7,0.3L47.3,40.8
	L47.3,40.8z"/>
<path class="st2" d="M39.5,55V37.8l-4.4,4.3c-0.2,0.2-0.4,0.3-0.7,0.3s-0.5-0.1-0.7-0.3c-0.1-0.1-0.2-0.2-0.2-0.3
	c0-0.1-0.1-0.2-0.1-0.4c0-0.1,0-0.3,0.1-0.4c0-0.1,0.1-0.2,0.2-0.3l6.1-6c0.2-0.2,0.4-0.3,0.7-0.3c0.3,0,0.5,0.1,0.7,0.3l6.1,6
	c0.1,0.1,0.2,0.2,0.2,0.3c0,0.1,0.1,0.2,0.1,0.4c0,0.1,0,0.3-0.1,0.4c0,0.1-0.1,0.2-0.2,0.3c-0.2,0.2-0.4,0.3-0.7,0.3
	c-0.3,0-0.5-0.1-0.7-0.3l-4.4-4.3V55c0,0.3-0.1,0.5-0.3,0.7C41,55.9,40.8,56,40.5,56s-0.5-0.1-0.7-0.3C39.6,55.5,39.5,55.3,39.5,55z
	 M45.5,46.8c-0.3,0-0.5-0.1-0.7-0.3c-0.2-0.2-0.3-0.4-0.3-0.7c0-0.3,0.1-0.5,0.3-0.7c0.2-0.2,0.4-0.3,0.7-0.3h3.5
	c1.6,0,3.1-0.6,4.2-1.7c0.6-0.5,1-1.2,1.3-1.9c0.3-0.7,0.5-1.5,0.5-2.2s-0.2-1.5-0.5-2.2c-0.3-0.7-0.7-1.3-1.3-1.9
	c-1.1-1.1-2.6-1.7-4.2-1.7c-0.2,0-0.4,0-0.6,0c-0.2,0-0.4,0-0.6,0.1c-0.2,0-0.5,0-0.7-0.1c-0.2-0.1-0.4-0.3-0.5-0.5
	c-0.6-1.5-1.6-2.7-2.9-3.6c-1.5-1-3.3-1.5-5.2-1.3c-1.8,0.2-3.5,0.9-4.8,2.2c-0.7,0.7-1.3,1.5-1.7,2.5c-0.4,0.9-0.6,1.9-0.6,2.9
	c0,0,0,0.1,0,0.1v0c0,0.1,0,0.3-0.1,0.4c0,0.1-0.1,0.2-0.2,0.3c-0.1,0.1-0.2,0.2-0.3,0.2c-0.1,0-0.2,0.1-0.4,0.1h-0.1l-0.2,0h-0.1
	c-1.1,0-2.2,0.4-3,1.2c-0.4,0.4-0.7,0.8-0.9,1.3c-0.2,0.5-0.3,1-0.3,1.6c0,0.5,0.1,1.1,0.3,1.6c0.2,0.5,0.5,0.9,0.9,1.3
	c0.8,0.8,1.9,1.2,3,1.2h4.8c0.3,0,0.5,0.1,0.7,0.3s0.3,0.4,0.3,0.7c0,0.3-0.1,0.5-0.3,0.7s-0.4,0.3-0.7,0.3h-4.8
	c-1.6,0-3.2-0.6-4.4-1.8c-0.6-0.6-1-1.2-1.3-1.9c-0.3-0.7-0.5-1.5-0.5-2.3c0-0.8,0.2-1.6,0.5-2.3s0.8-1.4,1.3-1.9
	c1-1,2.3-1.6,3.8-1.7c0.2-2.3,1.2-4.4,2.9-6c1.6-1.6,3.8-2.6,6.1-2.8c2.3-0.2,4.6,0.4,6.5,1.6c1.4,0.9,2.6,2.2,3.3,3.7
	c0.3,0,0.6,0,0.8,0c2.1,0,4.1,0.8,5.6,2.3c0.7,0.7,1.3,1.6,1.7,2.5c0.4,0.9,0.6,1.9,0.6,3c0,1-0.2,2-0.6,3c-0.4,0.9-1,1.8-1.7,2.5
	c-1.5,1.5-3.5,2.3-5.6,2.3L45.5,46.8z"/>
</svg>
