<?xml version="1.0" encoding="utf-8"?>
<!-- Generator: Adobe Illustrator 25.2.1, SVG Export Plug-In . SVG Version: 6.00 Build 0)  -->
<svg version="1.1" id="Camada_1" xmlns="http://www.w3.org/2000/svg" xmlns:xlink="http://www.w3.org/1999/xlink" x="0px" y="0px"
	 viewBox="0 0 57 57" style="enable-background:new 0 0 57 57;" xml:space="preserve">
<style type="text/css">
	.st0{fill-rule:evenodd;clip-rule:evenodd;fill:#882886;}
	.st1{fill:#FFFFFF;}
</style>
<path class="st0" d="M24.5,0.8h7.9c13.1,0,23.8,10.6,23.8,23.7v7.9c0,13.1-10.6,23.7-23.8,23.7h-7.9c-13.1,0-23.7-10.6-23.7-23.7
	v-7.9C0.8,11.4,11.4,0.8,24.5,0.8z"/>
<g>
	<path class="st1" d="M28.2,14.1c8-0.1,14.5,6.2,14.7,14.1c0.1,8-6.1,14.5-14.1,14.7c-8.1,0.1-14.6-6.2-14.7-14.2
		C14,20.7,20.3,14.3,28.2,14.1z M28.5,42c7.4,0,13.5-6,13.5-13.4c0-7.4-6-13.5-13.4-13.5c-7.4,0-13.5,6-13.6,13.4
		C15,35.9,21,42,28.5,42z"/>
	<path class="st1" d="M28.5,16c7,0,12.6,5.6,12.6,12.6c0,7-5.6,12.5-12.7,12.5c-6.9,0-12.4-5.7-12.4-12.6C16,21.6,21.6,16,28.5,16z
		 M28.5,40.1c6.4,0,11.6-5.2,11.6-11.6c0-6.4-5.2-11.6-11.6-11.6c-6.4,0-11.6,5.2-11.6,11.6C16.9,34.9,22.1,40.1,28.5,40.1z"/>
	<path class="st1" d="M28,37.8c-1.4,0-2.8-0.2-4.1-0.8c-1-0.4-1.8-1.1-2.2-2.3c-0.5-1.8,0.7-3.5,2.5-3.5c0.9,0,1.7,0.2,2.5,0.7
		c0.9,0.6,1.8,1,2.8,1.1c0.3,0,0.5,0,0.8,0c0.6,0,0.9-0.3,1.1-0.8c0.5-1,1.7-1.6,2.8-1.5c0.9,0.1,1.6,0.8,1.7,1.8
		c0.2,1.5-0.4,2.6-1.6,3.5c-1.1,0.8-2.4,1.2-3.7,1.5C29.7,37.7,28.8,37.8,28,37.8C28,37.8,28,37.8,28,37.8z M28.1,36.9
		c1.4,0.1,3.6-0.4,4.7-1c0.5-0.3,1.1-0.6,1.5-1c0.7-0.6,0.9-1.4,0.7-2.3c-0.1-0.6-0.5-0.9-1.1-0.9c-0.8,0.1-1.4,0.4-1.7,1.2
		c-0.2,0.5-0.6,0.9-1.2,1c-0.5,0.1-1,0.1-1.4,0.1c-1.2-0.1-2.3-0.6-3.3-1.2c-0.5-0.3-1-0.5-1.5-0.6c-1.1-0.2-2,0.4-2.2,1.4
		c-0.1,0.7,0.1,1.3,0.5,1.8c0.4,0.4,0.9,0.7,1.5,0.9C25.6,36.7,26.8,36.9,28.1,36.9z"/>
	<path class="st1" d="M38.3,26.9c0,0.3,0,0.5-0.1,0.7c-0.2,1.2-1.2,1.9-2.4,1.5c-0.6-0.2-1.1-0.6-1.3-1.2c-0.3-0.9-0.5-1.8-0.6-2.7
		c0-0.5-0.2-0.8-0.6-1c-0.9-0.4-1.8-0.8-2.6-1.2c-1.1-0.6-1.5-1.6-1.1-2.6c0.2-0.7,0.7-1.1,1.4-1.2c1.6-0.2,3,0.3,4.2,1.3
		C37.1,22.2,38.1,24.4,38.3,26.9z M37.3,27c-0.1-1.2-0.4-2.4-0.9-3.4c-0.7-1.3-1.6-2.4-3-3c-0.8-0.3-1.6-0.5-2.4-0.4
		c-0.3,0.1-0.5,0.2-0.6,0.6c-0.1,0.6,0,1.1,0.5,1.4c0.9,0.5,1.8,0.9,2.7,1.3c0.8,0.3,1.2,0.8,1.3,1.7c0.1,0.8,0.2,1.5,0.4,2.2
		c0,0.2,0.1,0.3,0.2,0.5c0.2,0.4,0.7,0.5,1.1,0.5c0.4-0.1,0.6-0.4,0.6-0.8C37.3,27.3,37.3,27.2,37.3,27z"/>
	<path class="st1" d="M28.5,25.4c0,1.3-0.2,2.4-0.7,3.4c-0.6,1.3-1.9,1.9-3.4,1.4c-0.8-0.3-1.2-0.9-1.1-1.8c0.2-0.9,0.5-1.7,1.1-2.4
		c0.8-0.9,0.5-2.3-0.6-2.8c-0.8-0.4-1.1-1.1-0.9-2.1c0.2-1.1,1.1-1.6,2.2-1.4c0.9,0.2,1.6,0.7,2.1,1.4c0.7,1,1,2.1,1.1,3.3
		C28.5,24.8,28.5,25.2,28.5,25.4z M27.6,25.4c0-0.2,0-0.5-0.1-0.8c-0.1-1-0.4-2-0.9-2.8c-0.4-0.6-0.9-0.9-1.5-1.1
		c-0.7-0.1-1,0.1-1.2,0.8c-0.1,0.5,0,0.8,0.5,1c0.6,0.3,1.1,0.7,1.3,1.4c0.3,1,0.2,2-0.5,2.9c-0.4,0.5-0.7,1.1-0.8,1.8
		c-0.1,0.4,0.1,0.7,0.5,0.8c0.9,0.3,1.7-0.1,2.1-1C27.4,27.5,27.6,26.5,27.6,25.4z"/>
	<path class="st1" d="M22,22.9c1,0,1.8,0.9,1.8,1.9c0,1-0.9,1.8-1.9,1.8c-1,0-1.8-0.9-1.8-1.9C20.2,23.7,21,22.9,22,22.9z M22,23.9
		c-0.5,0-0.9,0.4-0.9,0.9c0,0.5,0.4,0.9,0.9,0.9c0.5,0,0.9-0.4,0.9-0.9C22.9,24.3,22.5,23.9,22,23.9z"/>
	<path class="st1" d="M31.8,26.2c1,0,1.9,0.8,1.9,1.9c0,1-0.8,1.9-1.9,1.8c-1,0-1.8-0.8-1.8-1.9C29.9,27,30.7,26.2,31.8,26.2z
		 M31.8,27.1c-0.5,0-0.9,0.4-0.9,0.9c0,0.5,0.4,0.9,0.9,0.9c0.5,0,1-0.4,1-0.9C32.7,27.5,32.3,27.1,31.8,27.1z"/>
	<path class="st1" d="M18.3,30.8c0-1,0.9-1.8,1.9-1.8c1,0,1.8,0.9,1.8,1.9c0,1-0.9,1.8-1.9,1.8C19.1,32.7,18.3,31.8,18.3,30.8z
		 M21.1,30.8c0-0.5-0.4-0.9-0.9-0.9c-0.5,0-0.9,0.4-1,0.9c0,0.5,0.4,0.9,0.9,0.9C20.6,31.8,21.1,31.3,21.1,30.8z"/>
	<path class="st1" d="M29.4,18.7c0,0.8-0.6,1.4-1.4,1.4c-0.8,0-1.4-0.6-1.4-1.4c0-0.8,0.6-1.4,1.4-1.4C28.8,17.4,29.4,18,29.4,18.7z
		 M28,19.2c0.2,0,0.5-0.2,0.5-0.5c0-0.2-0.2-0.5-0.4-0.5c-0.3,0-0.5,0.2-0.5,0.5C27.6,19,27.8,19.2,28,19.2z"/>
</g>
</svg>
