<?xml version="1.0" encoding="utf-8"?>
<!-- Generator: Adobe Illustrator 25.2.1, SVG Export Plug-In . SVG Version: 6.00 Build 0)  -->
<svg version="1.1" id="Camada_1" xmlns="http://www.w3.org/2000/svg" xmlns:xlink="http://www.w3.org/1999/xlink" x="0px" y="0px"
	 viewBox="0 0 57 57" style="enable-background:new 0 0 57 57;" xml:space="preserve">
<style type="text/css">
	.st0{fill-rule:evenodd;clip-rule:evenodd;fill:#A79F88;}
	.st1{fill:#FFFFFF;}
</style>
<path class="st0" d="M24.5,0.8h7.9c13.1,0,23.8,10.6,23.8,23.7v7.9c0,13.1-10.6,23.7-23.8,23.7h-7.9c-13.1,0-23.7-10.6-23.7-23.7
	v-7.9C0.8,11.4,11.4,0.8,24.5,0.8z"/>
<path class="st1" d="M33.2,36.2c2.4-0.7,4.1-2.9,4.1-5.3c0.1-2.4-1.5-4.7-3.7-5.5c-0.1,0-0.3,0-0.3,0c-0.6,0.4-1.3,0.6-2.1,0.4
	c-0.2-0.1-0.3,0.1-0.3,0.2c-0.6,1.1-1.3,2.3-1.9,3.4c-0.4,0.6-0.5,0.7-1.1,0.3c-0.1,0-0.2-0.1-0.3-0.2c-0.4,0.7-0.8,1.4-1.2,2.1
	c-0.5,0.8-0.5,0.8-1.4,0.4c-1.2-0.7-2.3-1.3-3.5-2c-0.4-0.2-0.5-0.4-0.2-0.9c0.5-0.8,0.9-1.6,1.4-2.4c-0.1-0.1-0.3-0.2-0.4-0.2
	c-0.5-0.3-0.5-0.4-0.3-0.9c1.2-2.1,2.4-4.3,3.6-6.4c0.6-1,1.2-2.1,1.8-3.1c0.3-0.5,0.4-0.5,0.9-0.2c0.2,0.1,0.4,0.2,0.6,0.3
	c0.3-0.5,0.6-1,0.9-1.6c-0.1-0.1-0.2-0.1-0.2-0.2c-0.3-0.2-0.4-0.4-0.2-0.7c0.3-0.5,0.6-1,0.9-1.5c0.2-0.3,0.4-0.4,0.7-0.2
	c1.7,0.9,3.3,1.9,5,2.8c0.3,0.2,0.4,0.4,0.2,0.7c-0.3,0.5-0.5,0.9-0.8,1.4c-0.3,0.5-0.4,0.5-0.9,0.3c0,0-0.1,0-0.1-0.1
	c-0.3,0.5-0.6,1-0.9,1.6c0.2,0.1,0.5,0.3,0.7,0.4c0.3,0.2,0.4,0.4,0.2,0.8c-0.3,0.5-0.6,1.1-0.9,1.6c0.3,0.4,0.6,0.6,1.1,0.8
	c3.6,1.2,6,4.6,6,8.4c0,3.8-2.3,7.2-5.9,8.5c-0.1,0-0.2,0.1-0.3,0.1c0.2,0.5,0.3,0.9,0.5,1.3c0,0.1,0.2,0.2,0.3,0.2
	c0.7,0,1.5,0,2.2,0c0.4,0,0.6,0.2,0.6,0.6c0,1.1,0,2.2,0,3.2c0,0.4-0.2,0.6-0.6,0.6c-6.7,0-13.4,0-20.2,0c-0.4,0-0.6-0.2-0.6-0.6
	c0-1.1,0-2.2,0-3.2c0-0.5,0.2-0.6,0.6-0.6c2.6,0,5.2,0,7.8,0c0.3,0,0.4-0.1,0.5-0.3c0.2-0.7,0.4-1.3,0.7-2c-0.8,0-1.5,0-2.3,0
	c-0.8,0-1.7,0-2.5,0c-0.4,0-0.6-0.2-0.6-0.6c0-0.6,0-1.3,0-1.9c0-0.4,0.2-0.5,0.6-0.6c0.1,0,0.3,0,0.4,0c3.4,0,6.9,0,10.3,0
	C32.6,35.4,33.1,35.3,33.2,36.2z M28.2,28.8c0.6-1.1,1.3-2.2,1.9-3.3c0-0.1,0-0.3-0.1-0.3c-0.8-0.9-0.9-2-0.4-2.9
	c0.5-1,1.6-1.4,2.7-1.2c0.1,0,0.3,0,0.3-0.1c0.2-0.4,0.5-0.8,0.7-1.2c-1.8-1-3.5-2-5.2-3c-1.7,3-3.4,6-5.1,9.1
	C24.7,26.8,26.4,27.8,28.2,28.8z M17.5,44.2c6.5,0,13,0,19.4,0c0-0.9,0-1.7,0-2.5c-6.5,0-12.9,0-19.4,0
	C17.5,42.5,17.5,43.4,17.5,44.2z M33.7,40.7c0-0.1,0-0.1,0-0.2c-0.5-1.3-0.9-2.7-1.4-4c-0.1-0.2-0.2-0.2-0.4-0.2c-1.3,0-2.6,0-3.9,0
	c-0.2,0-0.3,0.1-0.4,0.3c-0.4,1.3-0.9,2.5-1.3,3.8c0,0.1-0.1,0.2-0.1,0.3C28.8,40.7,31.3,40.7,33.7,40.7z M34.1,24.5
	c2.6,1.2,4.1,3.2,4.1,6.1c0,3.2-1.7,5.3-4.7,6.5c0.1,0.4,0.3,0.8,0.4,1.2c2.6-0.3,5.4-3.8,5.6-7c0.3-4.2-2.6-7.2-5.2-8
	C34.3,23.6,34.2,24.1,34.1,24.5z M25.5,31.2c0.4-0.7,0.8-1.4,1.2-2.2c-1.1-0.6-2.2-1.2-3.3-1.8c-0.4,0.7-0.8,1.4-1.2,2.2
	C23.3,30,24.4,30.6,25.5,31.2z M33.3,23.4c0-0.9-0.6-1.5-1.5-1.5c-0.9,0-1.5,0.7-1.6,1.5c0,0.9,0.7,1.5,1.5,1.6
	C32.6,24.9,33.3,24.3,33.3,23.4z M30.6,15c-0.3,0.5-0.6,1.1-0.9,1.6c1,0.6,1.9,1.1,2.9,1.6c0.3-0.5,0.6-1,0.9-1.6
	C32.6,16.1,31.6,15.6,30.6,15z M21.7,37.5c1.5,0,3,0,4.5,0c0.1,0,0.2,0,0.2-0.1c0.1-0.3,0.2-0.7,0.4-1c-1.7,0-3.4,0-5.1,0
	C21.7,36.7,21.7,37.1,21.7,37.5z M34.7,16.2c0.2-0.3,0.3-0.5,0.5-0.8c-1.5-0.8-2.9-1.6-4.3-2.4c-0.2,0.3-0.3,0.5-0.5,0.8
	C31.8,14.6,33.2,15.4,34.7,16.2z"/>
</svg>
