<?xml version="1.0" encoding="utf-8"?>
<!-- Generator: Adobe Illustrator 25.2.1, SVG Export Plug-In . SVG Version: 6.00 Build 0)  -->
<svg version="1.1" id="Camada_1" xmlns="http://www.w3.org/2000/svg" xmlns:xlink="http://www.w3.org/1999/xlink" x="0px" y="0px"
	 viewBox="0 0 82 82" style="enable-background:new 0 0 82 82;" xml:space="preserve">
<style type="text/css">
	.st0{fill:#F4F4FF;}
	.st1{fill:#5856D6;}
	.st2{fill:#AC5CB8;}
</style>
<path class="st0" d="M54,0H28C12.5,0,0,12.5,0,28v26c0,15.5,12.5,28,28,28h26c15.5,0,28-12.5,28-28V28C82,12.5,69.5,0,54,0z"/>
<path class="st1" d="M139.7,57.2l-3.3-3.4l-3.3,3.4c-0.1,0.1-0.3,0.2-0.4,0.3c-0.2,0.1-0.3,0.1-0.5,0.1s-0.3,0-0.5-0.1
	s-0.3-0.2-0.4-0.3c-0.2-0.2-0.4-0.6-0.4-0.9c0-0.3,0.1-0.7,0.4-0.9l3.3-3.4l-3.3-3.4c-0.2-0.2-0.4-0.6-0.4-0.9
	c0-0.3,0.1-0.7,0.4-0.9c0.1-0.1,0.3-0.2,0.4-0.3c0.2-0.1,0.3-0.1,0.5-0.1s0.3,0,0.5,0.1s0.3,0.2,0.4,0.3l3.3,3.4l3.3-3.4
	c0.1-0.1,0.3-0.2,0.4-0.3c0.2-0.1,0.3-0.1,0.5-0.1s0.3,0,0.5,0.1s0.3,0.2,0.4,0.3c0.2,0.2,0.4,0.6,0.4,0.9c0,0.3-0.1,0.7-0.4,0.9
	l-3.3,3.4l3.3,3.4c0.2,0.2,0.4,0.6,0.4,0.9c0,0.3-0.1,0.7-0.4,0.9c-0.1,0.1-0.3,0.2-0.4,0.3c-0.2,0.1-0.3,0.1-0.5,0.1
	s-0.3,0-0.5-0.1C140,57.5,139.8,57.4,139.7,57.2z M115.2,51.4c0-0.7,0.2-1.5,0.7-2.1c0.4-0.6,1-1.1,1.7-1.4c0.7-0.3,1.4-0.3,2.2-0.2
	c0.7,0.2,1.4,0.5,1.9,1s0.9,1.2,1,1.9s0.1,1.5-0.2,2.2c-0.3,0.7-0.8,1.3-1.4,1.7s-1.3,0.6-2.1,0.6c-1,0-2-0.4-2.7-1.1
	C115.5,53.4,115.1,52.4,115.2,51.4L115.2,51.4z M118.9,45.4c-0.3,0-0.5,0-0.8,0.1c0.8-2.9,2.1-5.7,3.9-8.1c1.8-2.5,4.1-4.6,6.8-6.1
	c2.7-1.5,5.6-2.5,8.7-2.9l-2.7-2.4c-0.3-0.2-0.4-0.5-0.4-0.9c0-0.3,0.1-0.7,0.3-0.9c0.1-0.1,0.2-0.2,0.4-0.3
	c0.1-0.1,0.3-0.1,0.5-0.1s0.3,0,0.5,0.1s0.3,0.1,0.4,0.3l5.1,4.6c0.3,0.2,0.4,0.5,0.4,0.9c0,0.3-0.1,0.7-0.3,0.9l-4.5,5.2
	c-0.1,0.1-0.2,0.2-0.4,0.3c-0.1,0.1-0.3,0.1-0.5,0.1s-0.3,0-0.5-0.1s-0.3-0.1-0.4-0.3c-0.3-0.2-0.4-0.5-0.4-0.9
	c0-0.3,0.1-0.7,0.3-0.9l2.5-3c-2.7,0.3-5.3,1.1-7.7,2.5c-2.4,1.4-4.4,3.2-6,5.4c-1.5,2.1-2.7,4.4-3.4,6.9
	C120.2,45.5,119.5,45.4,118.9,45.4L118.9,45.4z M146.5,29.3c0-0.7,0.2-1.5,0.7-2.1c0.4-0.6,1-1.1,1.7-1.4s1.4-0.3,2.2-0.2
	c0.7,0.2,1.4,0.5,1.9,1s0.9,1.2,1,1.9c0.1,0.7,0.1,1.5-0.2,2.2s-0.8,1.3-1.4,1.7c-0.6,0.4-1.3,0.6-2.1,0.6c-1,0-2-0.4-2.7-1.1
	C146.9,31.3,146.5,30.3,146.5,29.3L146.5,29.3z M122.8,31.4l-3.3-3.4l-3.3,3.4c-0.1,0.1-0.3,0.2-0.4,0.3c-0.2,0.1-0.3,0.1-0.5,0.1
	s-0.3,0-0.5-0.1s-0.3-0.2-0.4-0.3c-0.2-0.2-0.4-0.6-0.4-0.9s0.1-0.7,0.4-0.9l3.3-3.4l-3.3-3.4c-0.2-0.2-0.4-0.6-0.4-0.9
	s0.1-0.7,0.4-0.9c0.1-0.1,0.3-0.2,0.4-0.3c0.2-0.1,0.3-0.1,0.5-0.1s0.3,0,0.5,0.1s0.3,0.2,0.4,0.3l3.3,3.4l3.3-3.4
	c0.1-0.1,0.3-0.2,0.4-0.3c0.2-0.1,0.3-0.1,0.5-0.1s0.3,0,0.5,0.1s0.3,0.2,0.4,0.3c0.2,0.2,0.4,0.6,0.4,0.9s-0.1,0.7-0.4,0.9
	l-3.3,3.4l3.3,3.4c0.2,0.2,0.4,0.6,0.4,0.9s-0.1,0.7-0.4,0.9c-0.1,0.1-0.3,0.2-0.4,0.3c-0.2,0.1-0.3,0.1-0.5,0.1s-0.3,0-0.5-0.1
	C123.1,31.7,123,31.6,122.8,31.4L122.8,31.4z"/>
<path class="st1" d="M150,5.6c-0.6-0.2-1.2-0.4-1.8-0.7c-1.1-0.8-1.5-1.9-1.5-3.2c0-4,0-7.9,0-11.9c0-0.9-0.2-1.1-1.1-1.1
	c-4,0-7.9,0-11.9,0c-1,0-2-0.3-2.8-1c-1.1-1.1-1.5-2.4-1-3.9c0.4-1.3,1.7-2.3,3-2.4c0.4,0,0.8-0.1,1.2-0.1c3.8,0,7.6,0,11.4,0
	c0.8,0,1-0.2,1-1c0-4,0-8,0-11.9c0-1,0.3-1.9,0.9-2.7c0.9-1.1,2.5-1.5,3.9-1.1c1.4,0.4,2.4,1.7,2.5,3.1c0,0.4,0.1,0.7,0.1,1.1
	c0,3.8,0,7.7,0,11.5c0,0.8,0.2,1.1,1,1.1c4,0,8,0,11.9,0c1,0,1.9,0.2,2.7,0.9c0.7,0.6,1.1,1.3,1.3,2.2c0,0.1,0,0.1,0.1,0.2
	c0,0.3,0,0.5,0,0.8c0,0.1-0.1,0.1-0.1,0.2c-0.1,0.9-0.6,1.6-1.3,2.2c-0.8,0.7-1.7,0.9-2.7,0.9c-4,0-7.9,0-11.9,0
	c-0.9,0-1.1,0.2-1.1,1.1c0,4,0,7.9,0,11.9c0,1.3-0.4,2.5-1.5,3.2c-0.5,0.3-1.2,0.5-1.8,0.7C150.5,5.6,150.3,5.6,150,5.6z"/>
<path class="st2" d="M18.1,39.4c0.1-0.2,0.1-0.3,0.2-0.5c0.4-1.2,1.5-2.1,2.8-2.1c0.1,0,0.3,0,0.4,0c13,0,26,0,39,0
	c1.4,0,2.4,0.5,3.1,1.7c0.5,0.9,0.5,3.9,0,4.8c-0.5,1.1-1.5,1.7-2.7,1.8c-0.2,0-0.4,0-0.6,0c-12.8,0-25.5,0-38.3,0
	c-2.3,0-3-0.5-3.9-2.6C18.1,41.5,18.1,40.5,18.1,39.4z"/>
</svg>
