<?xml version="1.0" encoding="utf-8"?>
<!-- Generator: Adobe Illustrator 25.2.1, SVG Export Plug-In . SVG Version: 6.00 Build 0)  -->
<svg version="1.1" id="Camada_1" xmlns="http://www.w3.org/2000/svg" xmlns:xlink="http://www.w3.org/1999/xlink" x="0px" y="0px"
	 viewBox="0 0 82 82" style="enable-background:new 0 0 82 82;" xml:space="preserve">
<style type="text/css">
	.st0{fill:#F4F4FF;}
	.st1{fill:#5856D6;}
	.st2{fill:#525252;}
	.st3{fill:#FEEDE0;}
	.st4{fill:#FBDDC3;}
	.st5{fill:#E2F3FE;}
	.st6{fill:#64BCFE;}
	.st7{fill:#BCDEF3;}
	.st8{fill:#FDCAA9;}
	.st9{fill:#618AA9;}
	.st10{fill:#608AA9;}
	.st11{fill:#FEAD84;}
	.st12{fill:#FCDEC4;}
	.st13{fill:#FEFEFE;}
	.st14{fill:#FDFDFD;}
	.st15{fill:#F9DBC1;}
	.st16{fill:#9BC5D9;}
	.st17{fill:#E2F2FD;}
	.st18{fill:#63BBFD;}
	.st19{fill:#9BC4D9;}
	.st20{fill:#BDDDF1;}
	.st21{fill:#6089A8;}
	.st22{fill:#B3D4E8;}
	.st23{fill:#DFF0FB;}
	.st24{fill:#020202;}
	.st25{fill:#010101;}
	.st26{fill:#528ED7;}
	.st27{fill:#0573CD;}
	.st28{fill:#E9F5FE;}
	.st29{fill:#D7EBFD;}
	.st30{fill:#DB8658;}
	.st31{fill:#DB8758;}
	.st32{fill:#8F5A46;}
	.st33{fill:#905B48;}
</style>
<path class="st0" d="M54,0H28C12.5,0,0,12.5,0,28v26c0,15.5,12.5,28,28,28h26c15.5,0,28-12.5,28-28V28C82,12.5,69.5,0,54,0z"/>
<path class="st1" d="M139.7,57.2l-3.3-3.4l-3.3,3.4c-0.1,0.1-0.3,0.2-0.4,0.3c-0.2,0.1-0.3,0.1-0.5,0.1s-0.3,0-0.5-0.1
	s-0.3-0.2-0.4-0.3c-0.2-0.2-0.4-0.6-0.4-0.9c0-0.3,0.1-0.7,0.4-0.9l3.3-3.4l-3.3-3.4c-0.2-0.2-0.4-0.6-0.4-0.9
	c0-0.3,0.1-0.7,0.4-0.9c0.1-0.1,0.3-0.2,0.4-0.3c0.2-0.1,0.3-0.1,0.5-0.1s0.3,0,0.5,0.1s0.3,0.2,0.4,0.3l3.3,3.4l3.3-3.4
	c0.1-0.1,0.3-0.2,0.4-0.3c0.2-0.1,0.3-0.1,0.5-0.1s0.3,0,0.5,0.1s0.3,0.2,0.4,0.3c0.2,0.2,0.4,0.6,0.4,0.9c0,0.3-0.1,0.7-0.4,0.9
	l-3.3,3.4l3.3,3.4c0.2,0.2,0.4,0.6,0.4,0.9c0,0.3-0.1,0.7-0.4,0.9c-0.1,0.1-0.3,0.2-0.4,0.3c-0.2,0.1-0.3,0.1-0.5,0.1
	s-0.3,0-0.5-0.1C140,57.5,139.8,57.4,139.7,57.2z M115.2,51.4c0-0.7,0.2-1.5,0.7-2.1c0.4-0.6,1-1.1,1.7-1.4c0.7-0.3,1.4-0.3,2.2-0.2
	c0.7,0.2,1.4,0.5,1.9,1s0.9,1.2,1,1.9s0.1,1.5-0.2,2.2c-0.3,0.7-0.8,1.3-1.4,1.7s-1.3,0.6-2.1,0.6c-1,0-2-0.4-2.7-1.1
	C115.5,53.4,115.1,52.4,115.2,51.4L115.2,51.4z M118.9,45.4c-0.3,0-0.5,0-0.8,0.1c0.8-2.9,2.1-5.7,3.9-8.1c1.8-2.5,4.1-4.6,6.8-6.1
	c2.7-1.5,5.6-2.5,8.7-2.9l-2.7-2.4c-0.3-0.2-0.4-0.5-0.4-0.9c0-0.3,0.1-0.7,0.3-0.9c0.1-0.1,0.2-0.2,0.4-0.3
	c0.1-0.1,0.3-0.1,0.5-0.1s0.3,0,0.5,0.1s0.3,0.1,0.4,0.3l5.1,4.6c0.3,0.2,0.4,0.5,0.4,0.9c0,0.3-0.1,0.7-0.3,0.9l-4.5,5.2
	c-0.1,0.1-0.2,0.2-0.4,0.3c-0.1,0.1-0.3,0.1-0.5,0.1s-0.3,0-0.5-0.1s-0.3-0.1-0.4-0.3c-0.3-0.2-0.4-0.5-0.4-0.9
	c0-0.3,0.1-0.7,0.3-0.9l2.5-3c-2.7,0.3-5.3,1.1-7.7,2.5c-2.4,1.4-4.4,3.2-6,5.4c-1.5,2.1-2.7,4.4-3.4,6.9
	C120.2,45.5,119.5,45.4,118.9,45.4L118.9,45.4z M146.5,29.3c0-0.7,0.2-1.5,0.7-2.1c0.4-0.6,1-1.1,1.7-1.4s1.4-0.3,2.2-0.2
	c0.7,0.2,1.4,0.5,1.9,1s0.9,1.2,1,1.9c0.1,0.7,0.1,1.5-0.2,2.2s-0.8,1.3-1.4,1.7c-0.6,0.4-1.3,0.6-2.1,0.6c-1,0-2-0.4-2.7-1.1
	C146.9,31.3,146.5,30.3,146.5,29.3L146.5,29.3z M122.8,31.4l-3.3-3.4l-3.3,3.4c-0.1,0.1-0.3,0.2-0.4,0.3c-0.2,0.1-0.3,0.1-0.5,0.1
	s-0.3,0-0.5-0.1s-0.3-0.2-0.4-0.3c-0.2-0.2-0.4-0.6-0.4-0.9s0.1-0.7,0.4-0.9l3.3-3.4l-3.3-3.4c-0.2-0.2-0.4-0.6-0.4-0.9
	s0.1-0.7,0.4-0.9c0.1-0.1,0.3-0.2,0.4-0.3c0.2-0.1,0.3-0.1,0.5-0.1s0.3,0,0.5,0.1s0.3,0.2,0.4,0.3l3.3,3.4l3.3-3.4
	c0.1-0.1,0.3-0.2,0.4-0.3c0.2-0.1,0.3-0.1,0.5-0.1s0.3,0,0.5,0.1s0.3,0.2,0.4,0.3c0.2,0.2,0.4,0.6,0.4,0.9s-0.1,0.7-0.4,0.9
	l-3.3,3.4l3.3,3.4c0.2,0.2,0.4,0.6,0.4,0.9s-0.1,0.7-0.4,0.9c-0.1,0.1-0.3,0.2-0.4,0.3c-0.2,0.1-0.3,0.1-0.5,0.1s-0.3,0-0.5-0.1
	C123.1,31.7,123,31.6,122.8,31.4L122.8,31.4z"/>
<g>
	<path d="M-199,2c0-0.2,0-0.3,0-0.5c0.1-0.4,0.4-0.6,0.8-0.6c0.3,0,0.5,0,0.8,0c15.2,0,30.4,0,45.6,0c0.2,0,0.5,0,0.7,0
		c0.5,0.1,0.7,0.4,0.7,0.9c0,0.4-0.2,0.7-0.7,0.8c-0.2,0-0.4,0-0.7,0c-0.9,0-1.8,0-2.8,0c-0.3,0-0.5,0.1-0.5,0.5c0,0.2,0,0.4,0,0.6
		c0,10.8,0,21.5,0,32.3c0,0.3,0,0.5,0,0.8c0,0.5-0.2,0.6-0.7,0.7c-0.9,0-1.7,0-2.6,0c-0.5-0.1-0.6-0.2-0.7-0.7c0-0.1,0-0.3,0-0.4
		c0-8.4,0-16.9,0-25.3c0-0.1,0-0.3,0-0.4c0-0.5,0.2-0.8,0.8-0.9c0.6,0.1,0.9,0.3,0.9,0.9c0,0.3,0,0.5,0,0.8c0,7.9,0,15.8,0,23.7
		c0,0.2,0,0.4,0,0.6c0,0.2,0.1,0.3,0.3,0.3c0.2,0,0.2-0.1,0.2-0.3c0-0.1,0-0.3,0-0.4c0-10.6,0-21.2,0-31.8c0-0.2,0-0.3,0-0.5
		c0-0.1-0.1-0.2-0.3-0.2c-0.2,0-0.2,0.1-0.2,0.2c0,0.2,0,0.3,0,0.5c0,1.2,0,2.4,0,3.6c0,0.7-0.2,0.9-0.8,1.1c-0.6-0.1-0.9-0.4-0.9-1
		c0-1.2,0-2.5,0-3.7c0-0.6,0-0.7-0.7-0.7c-5.5,0-10.9,0-16.4,0c-0.4,0-0.7,0.1-0.9,0.5c-0.5,1.1-1.4,1.6-2.5,1.6c-1.7,0-3.5,0-5.2,0
		c-0.3,0-0.6,0-0.8,0.1c-0.2,0.1-0.3,0.3-0.2,0.5c0.2,0.3,0.3,0.7,0.3,1.1c0,0.4,0.2,0.5,0.5,0.5c0.3,0,0.7,0,1,0.1
		c1.5,0.1,2.8,1.4,2.8,3.2c0,1.6,0,3.2,0,4.7c0,1.5,0,3,0,4.5c0,0.5,0,1-0.2,1.5c-0.5,1.2-1.4,1.7-2.6,1.9c-0.1,0-0.3,0-0.4,0
		c-0.6,0-0.6,0-0.7,0.6c0,1.1-0.4,1.6-1.5,1.9c-0.2,0.1-0.3,0.2-0.3,0.4c0,1.3,0,2.7,0,4c0,1,0.6,1.5,1.6,1.5c1.7,0,3.4,0,5.1,0
		c0.6,0,0.6,0,0.6-0.6c0-4.9,0-9.7,0-14.6c0-0.7,0.1-1.5,0.5-2.1c0.2-0.2,0.1-0.4-0.1-0.6c-0.4-0.4-0.6-1-0.7-1.5
		c-0.2-1,0.4-1.8,1.3-2.1c0.4-0.1,0.7-0.1,1.1-0.1c0.5,0,0.8-0.1,1.1-0.5c0.7-1,1.7-1.4,3-1.4c1.7,0,3.4,0,5.1,0
		c1,0,1.8,0.4,2.4,1.2c0.4,0.5,0.9,0.8,1.5,0.8c1.3,0,2,0.5,2.1,1.5c0.1,0.8-0.1,1.5-0.6,2.1c-0.2,0.3-0.3,0.5-0.1,0.9
		c0.4,0.6,0.5,1.4,0.5,2.1c0,1.8,0,3.6,0,5.4c0,0.7-0.3,1-0.9,1.2c-0.6-0.1-0.8-0.3-0.8-1c0-1.8,0-3.5,0-5.3c0-0.6,0-1.3-0.5-1.8
		c-0.1-0.1-0.2-0.3-0.4-0.2c-0.2,0.1-0.1,0.3-0.1,0.4c0,1.2,0,2.4,0,3.7c0,1.5-0.4,2.9-1.5,4.1c-1.6,1.8-3.6,2.5-5.9,2
		c-2.6-0.6-4.4-2.7-4.7-5.3c-0.1-0.6-0.1-1.2-0.1-1.8c0-0.9,0-1.7,0-2.6c0-0.1,0-0.3-0.1-0.4c-0.2-0.1-0.3,0.1-0.4,0.2
		c-0.3,0.4-0.4,0.8-0.4,1.2c0,2.1,0,4.1,0,6.2c0,0.4,0.1,0.6,0.5,0.8c1.1,0.6,1.7,1.5,1.7,2.8c0,1.2-0.6,2.1-1.7,2.7
		c-0.4,0.2-0.5,0.4-0.5,0.8c0,1.6,0,3.2,0,4.7c0,0.2,0,0.4,0.1,0.6c0.2,0.4,0.6,0.6,1,0.6c0.4,0,0.8-0.3,0.9-0.7
		c0.1-0.2,0-0.4,0-0.7c0-1.9,0-3.8,0-5.7c0-0.3,0-0.6,0.1-0.8c0.2-0.9,0.8-1.4,1.7-1.4c2.1,0,4.2,0,6.3,0c1,0,1.7,0.8,1.8,1.8
		c0,0.1,0,0.2,0,0.3c0,0.8,0,0.8,0.9,0.8c1.4,0,1.2,0.2,1.2-1.2c0-0.7,0-1.4,0-2.1c0-0.5,0.2-0.8,0.8-0.9c0.5,0,0.7,0.3,0.9,0.8
		c0.1,0.2,0.1,0.4,0.1,0.7c0,2.6,0,5.2,0,7.8c0,0.7-0.1,1.5-0.6,2.1c-0.7,1-1.9,1.4-3,1c-1.1-0.4-1.9-1.4-1.9-2.6c0-2.1,0-4.3,0-6.4
		c-0.1,0.1-0.1,0.2-0.1,0.3c-0.2,1.1-0.9,1.8-1.8,2.3c-0.3,0.1-0.5,0.3-0.6,0.6c-0.5,1.4-1.5,2.1-3,2.1c-1,0-0.9,0-0.9,0.9
		c0.1,1.9-1.3,2.9-2.5,3c-1.5,0.1-2.9-1.1-2.9-2.6c0-0.3,0-0.5,0-0.8c0-0.5,0-0.6-0.6-0.6c-1.8,0-3.5,0-5.3,0
		c-1.2,0-2.2-0.6-2.8-1.6c-0.3-0.6-0.4-1.2-0.4-1.8c0-1.2,0-2.3,0-3.5c0-0.4-0.1-0.6-0.5-0.7c-0.8-0.2-1.2-0.8-1.2-1.6
		c0-0.5,0-0.5-0.2-0.8c-0.2,0.2-0.1,0.4-0.1,0.6c0,2.3,0,4.7,0,7c0,0.7-0.2,0.9-0.8,1.1c-0.7-0.2-0.9-0.4-0.9-1.2c0-2.3,0-4.6,0-6.9
		c0-0.2,0-0.3,0-0.5c0-0.2-0.2-0.4-0.4-0.4c-0.3,0-0.2,0.3-0.2,0.4c0,2.5,0,5.1,0,7.6c0,1.4,0,2.8,0,4.2c0,0.1,0,0.3,0,0.4
		c0,0.2-0.1,0.5,0.3,0.5c0.3,0,0.2-0.3,0.3-0.5c0-0.4,0-0.8,0-1.1c0-0.6,0.3-0.8,0.9-0.9c0.6,0.1,0.8,0.4,0.8,0.9c0,0.8,0,1.6,0,2.5
		c0,0.5-0.2,0.7-0.7,0.7c-0.8,0-1.7,0-2.5,0c-0.5-0.1-0.7-0.2-0.7-0.7c0-0.2,0-0.4,0-0.7c0-5.1,0-10.1,0-15.2c0-0.5-0.1-0.9-0.6-1.1
		c-0.6-0.3-0.9-0.8-1-1.4c-0.1-0.4-0.1-0.7-0.1-1.1c0-1.5,0-3,0-4.5c0-0.4,0-0.8,0.1-1.1c0.1-0.6,0.5-1.1,1.1-1.5
		c0.4-0.2,0.5-0.5,0.5-0.9c0-2,0-4,0-6c0-0.6,0-0.6-0.7-0.6c-1,0-2,0-2.9,0C-198.4,2.6-198.8,2.5-199,2z"/>
	<path d="M-199-0.2c0-0.2,0-0.3,0-0.5c0.1-0.5,0.4-0.6,0.9-0.6c1.1,0,2.1,0,3.2,0c0.5,0,0.6-0.1,0.6-0.6c0-0.3-0.2-0.4-0.4-0.4
		c-0.2,0-0.5,0-0.7,0c-1-0.1-1.6-0.8-1.6-1.8c0-0.1,0-0.2,0-0.3c0-0.6,0-0.6-0.6-0.8c-0.7-0.2-1.2-0.6-1.3-1.4c0-0.3,0-0.5,0-0.8
		c0.2-1,0.7-1.9,1.1-2.8c0.3-0.7,0.9-1,1.7-1c14.3,0,28.6,0,42.9,0c0.8,0,1.4,0.4,1.7,1.1c0.4,0.8,0.8,1.6,1,2.4
		c0.4,1.2,0.1,2.3-1.3,2.6c-0.3,0.1-0.5,0.2-0.5,0.6c0,0.2,0,0.3,0,0.5c0,1.1-0.7,1.7-1.7,1.8c-0.2,0-0.3,0-0.5,0
		c-0.3,0-0.5,0.1-0.5,0.5c0,0.4,0.2,0.5,0.6,0.5c1.1,0,2.2,0,3.2,0c0.7,0,1,0.5,0.8,1.1c-0.1,0.4-0.5,0.5-0.8,0.6
		c-0.3,0-0.5,0-0.8,0c-15.1,0-30.2,0-45.3,0c-0.3,0-0.5,0-0.8,0C-198.5,0.4-198.8,0.3-199-0.2z"/>
	<path class="st2" d="M-193.7,37.5C-193.7,37.5-193.7,37.5-193.7,37.5c0.8-0.1,1.7-0.1,2.6-0.1c0,0,0,0.1,0,0.1
		C-192,37.5-192.8,37.5-193.7,37.5z"/>
	<path class="st2" d="M-155.7,37.5C-155.7,37.5-155.7,37.5-155.7,37.5c-0.9,0.1-1.7,0.1-2.6,0.1c0,0,0-0.1,0-0.1
		C-157.4,37.5-156.5,37.5-155.7,37.5z"/>
	<path class="st3" d="M-170.7,20c-1.3,0-2.6,0-3.9,0c-0.4,0-0.5-0.1-0.5-0.5c-0.1-1.5,0-2.9-0.1-4.4c0-0.4,0-0.9,0-1.3
		c0-0.6-0.3-0.8-0.8-0.8c-0.3,0-0.5,0-0.8,0c-0.6,0-1.2-0.5-1.3-1.2c0-0.3,0-0.4,0.3-0.4c0.2,0,0.4,0,0.6,0c1,0,1.8-0.4,2.3-1.2
		c0.4-0.6,0.9-0.8,1.6-0.8c1.8,0,3.5,0,5.3,0c0.6,0,1,0.2,1.3,0.7c0.6,1,1.6,1.3,2.7,1.3c0.7,0,0.8,0.2,0.5,0.8
		c-0.3,0.5-0.7,0.8-1.3,0.8c-1,0-2.1,0-3.1,0c-1.7,0-2.9,0.9-3.4,2.4c-0.6,2,0.8,4,2.9,4.2c0.6,0,1.2,0,1.8,0c0.1,0,0.3-0.1,0.3,0.2
		c0,0.2-0.2,0.2-0.3,0.2C-168,20-169.4,20-170.7,20z"/>
	<path class="st3" d="M-162.9,22.9c0,0.6,0,1.2,0,1.8c-0.5,0.1-0.7,0.4-0.7,0.9c0,1,0,1.9,0,2.9c0,0.4-0.1,0.5-0.5,0.5
		c-0.5,0-1,0-1.4,0c-0.4,0-0.5-0.1-0.5-0.5c0-0.3,0-0.5,0-0.8c-0.1-0.9-0.7-1.6-1.7-1.6c-2.1,0-4.1,0-6.2,0c-1,0-1.7,0.7-1.7,1.8
		c0,2.1,0,4.2,0,6.3c0,0.4-0.1,0.8-0.4,1.1c-0.4,0.3-0.8,0.4-1.2,0.2c-0.4-0.2-0.7-0.6-0.7-1.1c0-1.5,0-3,0-4.6c0-0.2,0-0.3,0-0.5
		c-0.1-0.4,0.1-0.6,0.5-0.8c1.2-0.5,1.7-1.5,1.7-2.8c0-1.2-0.7-2.1-1.8-2.6c-0.3-0.1-0.4-0.2-0.4-0.5c0-2.1,0-4.2,0-6.4
		c0-0.5,0.1-1.1,0.5-1.5c0.3-0.1,0.3,0.1,0.4,0.3c0,0.2,0,0.3,0,0.5c0,1.2,0,2.3,0,3.5c0,3.2,2.8,6,6,6c3,0.1,5.8-2.2,6.3-5.2
		c0-0.3,0.1-0.5,0.1-0.8c0-1.3,0-2.5,0-3.8c0-0.3-0.1-0.7,0.4-0.6c0.4,0.4,0.5,1,0.5,1.6c0,1.9,0,3.7,0,5.6
		C-163.6,22.4-163.5,22.8-162.9,22.9z"/>
	<path class="st3" d="M-184.3,21.4c-2.4,0-4.8,0-7.2,0c-0.5,0-0.9-0.2-1.2-0.8c-0.1-0.3,0.2-0.3,0.4-0.3c0.4,0,0.8,0,1.2,0
		c1.3,0,2.1-0.8,2.1-2.1c0-1.5,0-3.1,0-4.6c0-0.2,0-0.4,0-0.6c0-0.2,0.1-0.4,0.4-0.4c1.5,0,3,0,4.5,0c0,0,0.1,0,0.1,0
		c0.2,0.2,0.1,0.4,0.1,0.6c0,2.2,0,4.4,0,6.7C-183.7,20.5-183.7,21.1-184.3,21.4z"/>
	<path class="st4" d="M-198.3,1.1c0.1-0.2,0.1-0.5,0.1-0.7c0.2,0,0.3,0,0.5,0c15.4,0,30.8,0,46.1,0c0.2,0,0.3,0,0.5,0
		c0,0.2-0.1,0.5,0.1,0.7c-0.2,0-0.4,0-0.6,0c-15.4,0-30.9,0-46.3,0C-198.1,1.1-198.2,1.1-198.3,1.1z"/>
	<path class="st5" d="M-158.2,9.8c0-0.6,0-1.2,0-1.8c0.6-0.2,0.8-0.3,0.8-1c0-1.4,0-2.8,0-4.1c0-0.4,0.1-0.4,0.4-0.4
		c0.3,0,0.4,0,0.4,0.4c0,10.9,0,21.9,0,32.8c0,0.4-0.1,0.4-0.4,0.4c-0.4,0-0.4-0.1-0.4-0.4c0-8.3,0-16.5,0-24.8
		C-157.4,10.1-157.5,9.9-158.2,9.8z"/>
	<path class="st6" d="M-190.6,15.1c0,1,0,2,0,3c0,0.4-0.1,0.5-0.5,0.5c-0.9,0-1.7,0-2.6,0c-0.6,0-0.8-0.2-0.8-0.8c0-1.8,0-3.6,0-5.5
		c0-0.6,0.2-0.8,0.8-0.8c0.9,0,1.7,0,2.6,0c0.4,0,0.5,0.1,0.5,0.5C-190.6,13-190.6,14.1-190.6,15.1z"/>
	<path class="st7" d="M-183.8,11.1c-1.7,0-3.4,0-5,0c-0.1-0.1-0.2-0.1-0.2-0.2c-0.4-0.9-1.2-1.1-2.1-1.2c-0.4,0-0.7,0-1.1,0
		c-0.2,0-0.4,0-0.4-0.2c0.2-0.5,0.5-0.7,1-0.7c0.1-0.1,0.3,0,0.4,0c2.2,0,4.3,0,6.5,0c0.6,0,0.7,0.1,0.9,0.6
		C-183.6,9.9-183.5,10.5-183.8,11.1z"/>
	<path class="st5" d="M-191.2,31.6c0,0.6,0,1.2,0,1.8c-0.6,0.1-0.7,0.3-0.8,0.9c0,0.5,0,1,0,1.4c0,0.3-0.2,0.4-0.4,0.3
		c-0.2,0-0.5,0.1-0.5-0.3c0-0.3,0-0.6,0-0.9c0-4,0-7.9,0-11.9c0-0.2,0-0.3,0-0.5c0.2-0.1,0.3,0.1,0.5,0.1c0.3,0,0.4,0.2,0.4,0.5
		c0,2.5,0,5,0,7.4C-192,31.3-191.8,31.5-191.2,31.6z"/>
	<path class="st8" d="M-164.1,14.7c-0.3,0-0.3,0.3-0.3,0.5c0,1.2,0,2.4,0,3.6c0.1,3-2.1,5.7-5,6.3c-1.9,0.4-3.7,0-5.2-1.3
		c-1.6-1.3-2.4-3.1-2.4-5.2c0-1.1,0-2.3,0-3.4c0-0.2,0-0.5-0.3-0.5c0.1-0.1,0.2-0.2,0.3-0.3c0.1-0.1,0.2-0.1,0.3-0.1
		c0.1,0.1,0.1,0.2,0.1,0.3c0,1.2,0,2.4,0,3.6c0,1.5,0.2,2.9,1.2,4.1c1.3,1.7,3,2.5,5.1,2.4c2.3-0.1,3.9-1.3,5-3.3
		c0.5-0.9,0.6-1.8,0.6-2.8c0-1.2,0-2.5,0-3.7c0-0.2-0.2-0.5,0.1-0.6C-164.4,14.3-164.3,14.6-164.1,14.7z"/>
	<path class="st9" d="M-166,32.5c0-0.6,0-1.2,0-1.8c0-0.2,0-0.4,0.3-0.4c0.6,0,1.1,0,1.7,0c0.3,0,0.3,0.1,0.3,0.3c0,1.2,0,2.3,0,3.5
		c0,0.8-0.5,1.3-1.2,1.3c-0.7,0-1.2-0.5-1.2-1.3C-166,33.6-166,33.1-166,32.5z"/>
	<path class="st10" d="M-166.2,16.3c0,0.5,0,1,0,1.6c0,0.2-0.1,0.3-0.3,0.3c-0.6,0-1.2,0-1.8,0c-0.9,0-1.7-0.8-1.7-1.8
		c-0.1-0.9,0.6-1.8,1.5-1.9c0.7-0.1,1.4,0,2.1-0.1c0.2,0,0.2,0.1,0.2,0.3C-166.2,15.2-166.2,15.8-166.2,16.3z"/>
	<path class="st11" d="M-174.4,21.4c2.5,0,4.9,0,7.4,0c-0.9,1.3-2.1,1.9-3.6,2C-172.2,23.4-173.5,22.7-174.4,21.4z"/>
	<path class="st12" d="M-184.3,21.4c0.3-0.4,0.5-0.9,0.5-1.5c0-2.4,0-4.8,0-7.2c0.3-0.1,0.7,0,1-0.1c0.2,0,0.2,0.1,0.2,0.2
		c0,0.1,0,0.2,0,0.3c0,2.2,0,4.4,0,6.6c0,0.2,0,0.3,0,0.5C-182.8,21.1-183.3,21.4-184.3,21.4z"/>
	<path class="st13" d="M-187.5,4.8c0-0.7,0-1.4,0-2.1c0-0.3,0.2-0.2,0.3-0.2c0.8,0,1.7,0,2.5,0c2,0,3.9,0,5.9,0
		c0.1,0,0.4-0.1,0.4,0.1c0,0.1-0.1,0.3-0.2,0.4c-0.3,0.3-0.6,0.3-1,0.3c-1.7,0-3.3,0-5,0C-185.9,3.2-186.9,3.6-187.5,4.8z"/>
	<path class="st14" d="M-190.5,4.9c0-0.7,0-1.4,0-2.1c0-0.3,0.1-0.3,0.3-0.3c1.3,0,1.3,0,1.3,1.2c0,0.3,0,0.6,0,0.9
		c0,0.4,0,0.8-0.3,1.2c-0.3,0.3-0.2,0.8-0.2,1.2c0,0.3-0.1,0.4-0.4,0.4c-0.1,0-0.2,0-0.3,0c-0.3,0-0.4-0.1-0.4-0.4
		C-190.5,6.2-190.5,5.6-190.5,4.9z"/>
	<path class="st15" d="M-182.6,20.3c0-2.3,0-4.7,0-7c0-0.6,0-0.6-0.6-0.6c-0.2,0-0.3,0-0.5,0c-1.5,0-3,0-4.5,0
		c-0.4,0-0.5,0.1-0.5,0.5c0,1.7,0,3.4,0,5c0,1.4-1,2.4-2.3,2.3c-0.4,0-0.8,0-1.2,0c-0.2,0-0.3,0-0.4,0.2c-0.3-0.6-0.3-0.6,0.3-0.6
		c0.4,0,0.8,0,1.2,0c1.2,0,1.9-0.7,1.9-1.9c0-1.7,0-3.4,0-5.1c0-0.4,0.1-0.4,0.4-0.4c1.9,0,3.9,0,5.8,0c0.2,0,0.4,0,0.4,0.3
		c0,2.4,0,4.8,0,7.2C-182.6,20.1-182.6,20.2-182.6,20.3z"/>
	<path class="st14" d="M-173.8,27.5c0.1,1,0.4,1.8,1.2,2.5c0.2,0.2,0.5,0.4,0.8,0.4c0.4,0.1,0.3,0.3,0.1,0.5
		c-0.3,0.4-0.8,0.6-1.3,0.6c-1.1,0-1.1,0-1.1-1c0-0.8,0-1.7,0-2.5C-174.1,27.8-174.1,27.6-173.8,27.5z"/>
	<path class="st5" d="M-192.8,7.6c0-1.6,0-3.2,0-4.8c0-0.4,0.3-0.3,0.5-0.3c0.2,0,0.4,0,0.4,0.3c0,1.4,0,2.8,0,4.2
		c0,0.2-0.1,0.3-0.3,0.4C-192.4,7.5-192.6,7.6-192.8,7.6z"/>
	<path class="st16" d="M-183.8,11.1c0-0.6,0.1-1.3-0.2-1.9c-0.2-0.3-0.4-0.5-0.8-0.5c-2.3,0-4.6,0-6.9,0c0.2-0.1,0.3-0.1,0.5-0.1
		c2.2,0,4.3,0,6.5,0c0.3,0,0.5,0,0.8,0c0.7,0.1,1.1,0.5,1.3,1.2c0.2,1.1,0.1,1.2-1,1.2C-183.7,11.2-183.7,11.1-183.8,11.1z"/>
	<path class="st17" d="M-169.2,27.9c-0.2,0.8-0.8,1.2-1.6,1.2c-0.8,0-1.4-0.5-1.6-1.2C-171.9,27.7-169.6,27.7-169.2,27.9z"/>
	<path class="st18" d="M-187.5,22.8c0.1,0,0.2,0,0.3,0c0.8,0,0.7,0,0.7,0.7c0,0.3-0.1,0.4-0.4,0.4c-0.4,0-0.9,0-1.3,0
		c-0.3,0-0.5-0.1-0.4-0.4c0-0.1,0-0.3,0-0.4c0-0.3,0.1-0.4,0.3-0.3C-188,22.8-187.7,22.8-187.5,22.8z"/>
	<path class="st19" d="M-192.6,9.5c0.1,0.2,0.3,0.1,0.5,0.1c0.6,0,1.2-0.1,1.8,0.1c0.7,0.2,1.2,0.7,1.5,1.4c-0.3,0.1-0.5,0-0.6-0.3
		c-0.3-0.5-0.8-0.8-1.4-0.8c-0.5,0-1,0-1.5,0C-192.9,10.1-192.9,10.1-192.6,9.5z"/>
	<path class="st20" d="M-169.2,27.9c-1,0-2.1,0-3.1,0c-0.2-0.3-0.1-0.5,0.3-0.5c0.8,0,1.7,0,2.5,0C-169.1,27.4-169,27.6-169.2,27.9z
		"/>
	<path class="st21" d="M-177.8,24.5c0.5,0.3,0.8,0.8,0.8,1.4c0,0.5-0.2,0.9-0.8,1.2C-177.8,26.2-177.8,25.4-177.8,24.5z"/>
	<path class="st22" d="M-187.5,6.5c0.3,0,0.6-0.1,0.6,0.4c0,0.5-0.3,0.4-0.6,0.4c-0.3,0-0.5,0.1-0.5-0.4
		C-188.1,6.4-187.8,6.5-187.5,6.5z"/>
	<path class="st5" d="M-174.7-6.5c-7.4,0-14.7,0-22.1,0c-0.1,0-0.3,0-0.4,0c-0.2,0-0.3-0.1-0.2-0.4c0.3-0.8,0.7-1.6,1-2.4
		c0.1-0.2,0.2-0.2,0.4-0.2c0.1,0,0.2,0,0.3,0c14,0,28.1,0,42.1,0c0.5,0,0.7,0.1,0.9,0.6c0.2,0.7,0.6,1.3,0.8,2
		c0.2,0.3,0.1,0.5-0.3,0.5c-0.1,0-0.3,0-0.4,0C-160-6.5-167.3-6.5-174.7-6.5z"/>
	<path class="st6" d="M-174.7-5.1c6.7,0,13.5,0,20.2,0c0.7,0,0.7,0,0.7,0.7c0,0.1,0,0.2,0,0.3c0,0.2-0.1,0.3-0.3,0.3
		c-0.1,0-0.3,0-0.4,0c-13.5,0-26.9,0-40.4,0c-0.2,0-0.5,0.1-0.6-0.1c-0.1-0.4-0.1-0.7,0-1.1c0-0.1,0.1-0.1,0.2-0.1
		c0.1,0,0.3,0,0.4,0C-188.2-5.1-181.4-5.1-174.7-5.1z"/>
	<path class="st23" d="M-192-1.7c0,0.3,0.1,0.7-0.4,0.6c-0.4,0-0.5-0.1-0.4-0.5c0-0.1,0-0.1,0-0.2c0-0.3-0.1-0.6,0.4-0.6
		C-191.8-2.4-192-2-192-1.7z"/>
	<path class="st23" d="M-157.4-1.8c0-0.3-0.1-0.7,0.5-0.6c0.3,0,0.5,0.1,0.4,0.4c0,0.1,0,0.2,0,0.3c0,0.5-0.2,0.7-0.7,0.5
		C-157.4-1.2-157.4-1.2-157.4-1.8z"/>
	<path class="st24" d="M-174.4,16.1c0-0.3,0-0.6,0.2-0.8c0.3-0.3,0.7-0.3,1,0c0.3,0.3,0.3,1.3,0,1.6c-0.3,0.3-0.7,0.3-1,0
		C-174.4,16.7-174.4,16.6-174.4,16.1z"/>
	<path class="st25" d="M-168.4,16.1c0-0.3,0-0.5,0.2-0.8c0.3-0.3,0.7-0.3,1,0c0.3,0.3,0.3,1.2,0,1.5c-0.3,0.3-0.7,0.3-1,0
		C-168.5,16.7-168.4,16.4-168.4,16.1z"/>
</g>
<g>
	<path class="st26" d="M53.6,63c0.9,0.1,1.4,0.6,1.5,1.3c0.1,0.7-0.2,1.3-1.2,1.8c-7.7,0-15.3,0-23,0c-0.8-0.3-1.2-0.8-1.2-1.6
		c0-0.8,0.5-1.4,1.4-1.7c0.1,0,0.3,0,0.4,0c1.2,0,2.4,0,3.6,0c5.8,0,11.6,0,17.5,0C53,62.9,53.3,62.8,53.6,63z"/>
	<path class="st27" d="M31.1,63c-1,0.5-1.4,1.3-1,2.2c0.2,0.4,0.6,0.6,0.9,0.9c-1,0-2,0-3,0c-0.5-0.3-1-0.7-1.1-1.3
		c-0.1-1,0.5-1.7,1.6-1.8c0.2-0.2,0.5-0.1,0.7-0.1c0.5,0,1,0,1.5,0C30.7,62.9,30.9,62.9,31.1,63z"/>
	<path class="st28" d="M53.6,63c-0.2,0-0.4,0-0.6,0c-7,0-14,0-20.9,0c-0.2,0-0.4,0-0.6,0c-0.2-0.2-0.2-0.4-0.2-0.6
		c0-6.5,0-13,0-19.5c0-1.8,1.4-3.1,3.1-3.1c6.1,0,12.2,0,18.4,0c0.3,0,0.5,0,0.8,0.2C53.6,47.6,53.6,55.3,53.6,63z"/>
	<path class="st28" d="M48.8,21.1c0,1.3,0,2.6,0,3.9c0,0.2,0,0.4,0.1,0.6c0.7,1.5,1.5,3,2.2,4.5c0.1,0.1,0.1,0.2,0.2,0.2
		c0.5,0.8,0.8,1.6,1.3,2.5c0.3,0.6,0.6,1.3,1,2c0,0,0,0.1,0,0.1c-0.2,0.2-0.4,0.2-0.6,0.2c-6.7,0-13.3,0-20,0c-0.2,0-0.4,0-0.5-0.1
		c-0.3-0.2-0.1-0.4,0-0.6c0.5-1.1,1.1-2.2,1.6-3.3c0.8-1.7,1.7-3.4,2.6-5.1c0.2-0.4,0.3-0.8,0.3-1.2c0-0.6,0-1.3,0-1.9
		c0-1.2,0.7-1.8,1.8-1.8c3.1,0,6.2,0,9.3,0C48.4,20.9,48.6,20.9,48.8,21.1z"/>
	<path class="st29" d="M53.6,39.9c-6.4,0-12.8,0-19.2,0c-1.3,0-2.9,1.3-2.9,2.9c0,6.7,0,13.5,0,20.2c-0.1,0-0.3,0-0.4,0
		c-0.9,0-1.8,0-2.7,0c0-8.4,0-16.7,0-25.1c0.2-0.2,0.4-0.2,0.7-0.2c1,0,1.9,0,2.9,0c4.7,0,9.5,0,14.2,0c2.2,0,4.4,0,6.6,0
		c0.3,0,0.6-0.1,0.8,0.2C53.6,38.6,53.6,39.2,53.6,39.9z"/>
	<path class="st29" d="M48.8,21.1c-3.4,0-6.7,0-10.1,0c-0.9,0-1.6,0.6-1.6,1.6c0,0,0,0.1,0,0.1c0.2,1.8-0.3,3.3-1.1,4.8
		c-1.3,2.3-2.4,4.7-3.6,7.1c-0.1,0.1-0.3,0.2-0.4,0.2c-1,0-1.9,0-2.9,0c-0.2,0-0.5,0-0.7-0.2c0,0,0-0.1,0-0.1c0,0,0-0.1,0-0.1
		c0.6-1.4,1.4-2.8,2.1-4.2c0-0.1,0.1-0.1,0.2-0.2c0.8-1.5,1.5-3,2.3-4.6c0.1-0.2,0.2-0.5,0.2-0.7c0-2,0-3.9,0-5.9
		c0.2-0.2,0.4-0.2,0.7-0.2c1.1,0,2.2,0,3.3,0c3.7,0,7.4,0,11.2,0c0.2,0,0.5,0,0.6,0.2C48.9,19.7,48.8,20.4,48.8,21.1z"/>
	<path class="st26" d="M32,34.7c0.1,0,0.3,0,0.4,0c0.1,0,0.2,0,0.3,0c6.9,0,13.8,0,20.7,0c0.1,0,0.2,0,0.2,0c1,0.2,1.5,0.8,1.5,1.7
		c0,0.8-0.6,1.4-1.6,1.5c-1,0-1.9,0-2.9,0c-6.1,0-12.2,0-18.2,0c-0.2,0-0.3,0-0.5,0c-0.7-0.2-1.2-0.9-1.2-1.6
		C30.8,35.5,31.3,34.9,32,34.7z"/>
	<path class="st26" d="M48.9,19c-3.8,0-7.5,0-11.3,0c-0.2,0-0.4,0-0.5,0c-0.3-0.1-0.5-0.3-0.5-0.6c-0.2-1,0.7-2.3,1.7-2.5
		c0.1,0,0.1,0,0.2,0c0.1-0.1,0.3-0.1,0.5-0.1c3,0,6,0,9,0c1.2,0,2.2,0.8,2.4,2c0.2,0.8-0.1,1.1-0.9,1.2C49.2,19,49,19,48.9,19z"/>
	<path class="st28" d="M30.7,30.2c-0.7,1.3-1.3,2.7-2,4c-0.1,0.1-0.1,0.3-0.3,0.4c-1.4-1.4-2.7-2.7-4.1-4.1
		c-0.5-0.5-0.7-1.1-0.7-1.8c0-1,0.6-1.7,1.6-2.1c0.9-0.3,1.7-0.1,2.3,0.5c0.9,0.9,1.8,1.8,2.7,2.7C30.3,30,30.4,30.2,30.7,30.2z"/>
	<path class="st29" d="M53.7,34.6c-0.2,0-0.2-0.1-0.3-0.2c-0.6-1.3-1.3-2.5-1.9-3.8c-0.1-0.1-0.1-0.2-0.1-0.4c1-1,1.9-1.9,2.9-2.9
		c1.2-1.2,2.4-0.9,3.4-0.1c1,0.9,0.9,2.4-0.1,3.4C56.3,31.9,55,33.3,53.7,34.6z"/>
	<path class="st27" d="M38.4,15.9c-1.1,0.3-1.7,1-1.8,2.1c0,0.4,0.1,0.7,0.4,0.9c-1.3,0-2.6,0-3.9,0c-0.3,0-0.6,0-0.8,0
		c-0.5,0-0.7-0.3-0.7-0.8c0-1.2,1-2.3,2.1-2.4c1.5-0.1,3.1,0,4.6,0C38.4,15.9,38.4,15.9,38.4,15.9z"/>
	<path class="st27" d="M32,34.7c-0.4,0.2-0.7,0.4-0.9,0.8c-0.4,0.8-0.2,1.6,0.5,2.1c0.1,0.1,0.2,0.2,0.3,0.2c-1.2,0-2.4,0-3.5,0
		c-1-0.1-1.6-0.7-1.6-1.6c0-0.9,0.6-1.5,1.6-1.6C29.6,34.7,30.8,34.7,32,34.7z"/>
	<path class="st13" d="M37.8,55.7c-0.3-0.5-0.2-1.1-0.3-1.6c-0.2-1.2-0.4-2.5-0.5-3.7c-0.1-0.1-0.2-0.3-0.2-0.4
		c-0.1-0.7-0.2-1.3-0.3-2c0-0.2,0-0.5,0.1-0.7c0-0.7,0.5-1.2,1.1-1.5c0.5-0.3,1.1-0.4,1.7-0.1c1.1,0,2.1,0,3.2,0
		c1.2-0.5,2.6,0.3,2.8,1.6c0,0.1,0.1,0.1,0.1,0.2c0,1-0.1,2-0.5,2.9c-0.3,1.7-0.5,3.5-0.8,5.2c0,0.1,0,0.1-0.1,0.2
		c-0.2-0.1-0.2-0.3-0.3-0.4c-0.4-0.7-0.9-1.2-1.8-1.2c-0.7,0-1.4,0-2.1,0c-0.9,0-1.5,0.4-1.9,1.2C38,55.5,38,55.7,37.8,55.7z"/>
	<path class="st30" d="M37.8,55.7c0.4-1.2,1-1.7,2.3-1.7c0.6,0,1.2,0,1.8,0c1.2,0,2,0.6,2.3,1.8c0,1.7-0.8,2.5-2.5,2.5
		c-0.5,0-0.9,0-1.4,0C38.6,58.3,37.7,57.4,37.8,55.7z"/>
	<path class="st31" d="M45,50.4c0.1-0.8,0.2-1.5,0.3-2.3c0-0.3,0-0.6,0-0.9c0-0.1,0.1-0.1,0.1,0c0.8,0,1.7,0,2.5,0
		c0.6,0,0.9,0.3,0.9,1c-0.1,1.2-1.1,2.1-2.3,2.2C46,50.4,45.5,50.4,45,50.4z"/>
	<path class="st31" d="M36.6,47.3c-0.1,1,0.2,1.9,0.3,2.9c0,0.1,0,0.2,0,0.2c-0.7,0-1.4,0.1-2-0.1c-1-0.3-1.7-1.2-1.8-2.2
		c0-0.6,0.2-0.9,0.8-0.9c0.9,0,1.7,0,2.6,0C36.6,47.2,36.6,47.2,36.6,47.3z"/>
	<path class="st32" d="M36.6,47.3c0,0-0.1,0-0.1,0c-0.1-1-0.2-2-0.3-3.1c-0.1-1.2,1.1-2,2.1-1.5c0.6,0.3,1,0.8,1,1.5
		c0,0.5,0,1,0,1.6c-0.3,0-0.5,0-0.8,0C37.6,45.8,37,46.3,36.6,47.3z"/>
	<path class="st32" d="M45.4,47.3c0,0-0.1,0-0.1,0c-0.4-1.1-1-1.6-2.1-1.6c-0.2,0-0.4,0-0.6,0c0-0.5,0-1.1,0-1.6
		c0-0.9,0.8-1.6,1.6-1.5c0.8,0,1.5,0.8,1.5,1.6C45.6,45.2,45.5,46.3,45.4,47.3z"/>
	<path class="st33" d="M39.5,49c0.4,0,0.8,0.3,0.7,0.7c0,0.4-0.3,0.7-0.7,0.7c-0.4,0-0.7-0.3-0.7-0.8C38.7,49.3,39.1,49,39.5,49z"/>
	<path class="st33" d="M43.2,49.7c0,0.4-0.3,0.7-0.7,0.7c-0.4,0-0.8-0.3-0.8-0.7c0-0.4,0.3-0.7,0.8-0.7C42.9,49,43.2,49.3,43.2,49.7
		z"/>
</g>
</svg>
