<?xml version="1.0" encoding="utf-8"?>
<!-- Generator: Adobe Illustrator 25.2.1, SVG Export Plug-In . SVG Version: 6.00 Build 0)  -->
<svg version="1.1" id="Camada_1" xmlns="http://www.w3.org/2000/svg" xmlns:xlink="http://www.w3.org/1999/xlink" x="0px" y="0px"
	 viewBox="0 0 82 82" style="enable-background:new 0 0 82 82;" xml:space="preserve">
<style type="text/css">
	.st0{fill:#9FFFDD;}
	.st1{fill:#5856D6;}
	.st2{fill:#9BCB65;}
	.st3{fill:#8BC24A;}
	.st4{fill:#8AC24A;}
	.st5{fill:#7CB242;}
</style>
<path class="st0" d="M54,0H28C12.5,0,0,12.5,0,28v26c0,15.5,12.5,28,28,28h26c15.5,0,28-12.5,28-28V28C82,12.5,69.5,0,54,0z"/>
<path class="st1" d="M-199,319.6l-3.3-3.4l-3.3,3.4c-0.1,0.1-0.3,0.2-0.4,0.3c-0.2,0.1-0.3,0.1-0.5,0.1s-0.3,0-0.5-0.1
	c-0.2-0.1-0.3-0.2-0.4-0.3c-0.2-0.2-0.4-0.6-0.4-0.9s0.1-0.7,0.4-0.9l3.3-3.4l-3.3-3.4c-0.2-0.2-0.4-0.6-0.4-0.9s0.1-0.7,0.4-0.9
	c0.1-0.1,0.3-0.2,0.4-0.3c0.2-0.1,0.3-0.1,0.5-0.1s0.3,0,0.5,0.1c0.2,0.1,0.3,0.2,0.4,0.3l3.3,3.4l3.3-3.4c0.1-0.1,0.3-0.2,0.4-0.3
	c0.2-0.1,0.3-0.1,0.5-0.1s0.3,0,0.5,0.1c0.2,0.1,0.3,0.2,0.4,0.3c0.2,0.2,0.4,0.6,0.4,0.9c0,0.3-0.1,0.7-0.4,0.9l-3.3,3.4l3.3,3.4
	c0.2,0.2,0.4,0.6,0.4,0.9c0,0.3-0.1,0.7-0.4,0.9c-0.1,0.1-0.3,0.2-0.4,0.3c-0.2,0.1-0.3,0.1-0.5,0.1s-0.3,0-0.5-0.1
	C-198.7,319.9-198.9,319.8-199,319.6z M-223.5,313.8c0-0.7,0.2-1.5,0.7-2.1c0.4-0.6,1-1.1,1.7-1.4c0.7-0.3,1.4-0.3,2.2-0.2
	c0.7,0.2,1.4,0.5,1.9,1s0.9,1.2,1,1.9c0.1,0.7,0.1,1.5-0.2,2.2c-0.3,0.7-0.8,1.3-1.4,1.7c-0.6,0.4-1.3,0.6-2.1,0.6
	c-1,0-2-0.4-2.7-1.1C-223.2,315.8-223.6,314.8-223.5,313.8L-223.5,313.8z M-219.8,307.8c-0.3,0-0.5,0-0.8,0.1
	c0.8-2.9,2.1-5.7,3.9-8.1c1.8-2.5,4.1-4.6,6.8-6.1s5.6-2.5,8.7-2.9l-2.7-2.4c-0.3-0.2-0.4-0.5-0.4-0.9c0-0.3,0.1-0.7,0.3-0.9
	c0.1-0.1,0.2-0.2,0.4-0.3c0.1-0.1,0.3-0.1,0.5-0.1s0.3,0,0.5,0.1s0.3,0.1,0.4,0.3l5.1,4.6c0.3,0.2,0.4,0.5,0.4,0.9
	c0,0.3-0.1,0.7-0.3,0.9l-4.5,5.2c-0.1,0.1-0.2,0.2-0.4,0.3c-0.1,0.1-0.3,0.1-0.5,0.1s-0.3,0-0.5-0.1c-0.2-0.1-0.3-0.1-0.4-0.3
	c-0.3-0.2-0.4-0.5-0.4-0.9c0-0.3,0.1-0.7,0.3-0.9l2.5-3c-2.7,0.3-5.3,1.1-7.7,2.5c-2.4,1.4-4.4,3.2-6,5.4c-1.5,2.1-2.7,4.4-3.4,6.9
	C-218.5,307.9-219.2,307.8-219.8,307.8L-219.8,307.8z M-192.2,291.7c0-0.7,0.2-1.5,0.7-2.1c0.4-0.6,1-1.1,1.7-1.4s1.4-0.3,2.2-0.2
	c0.7,0.2,1.4,0.5,1.9,1s0.9,1.2,1,1.9c0.1,0.7,0.1,1.5-0.2,2.2c-0.3,0.7-0.8,1.3-1.4,1.7c-0.6,0.4-1.3,0.6-2.1,0.6
	c-1,0-2-0.4-2.7-1.1C-191.8,293.7-192.2,292.7-192.2,291.7L-192.2,291.7z M-215.9,293.8l-3.3-3.4l-3.3,3.4c-0.1,0.1-0.3,0.2-0.4,0.3
	c-0.2,0.1-0.3,0.1-0.5,0.1s-0.3,0-0.5-0.1s-0.3-0.2-0.4-0.3c-0.2-0.2-0.4-0.6-0.4-0.9c0-0.3,0.1-0.7,0.4-0.9l3.3-3.4l-3.3-3.4
	c-0.2-0.2-0.4-0.6-0.4-0.9c0-0.3,0.1-0.7,0.4-0.9c0.1-0.1,0.3-0.2,0.4-0.3c0.2-0.1,0.3-0.1,0.5-0.1s0.3,0,0.5,0.1s0.3,0.2,0.4,0.3
	l3.3,3.4l3.3-3.4c0.1-0.1,0.3-0.2,0.4-0.3c0.2-0.1,0.3-0.1,0.5-0.1s0.3,0,0.5,0.1s0.3,0.2,0.4,0.3c0.2,0.2,0.4,0.6,0.4,0.9
	c0,0.3-0.1,0.7-0.4,0.9l-3.3,3.4l3.3,3.4c0.2,0.2,0.4,0.6,0.4,0.9c0,0.3-0.1,0.7-0.4,0.9c-0.1,0.1-0.3,0.2-0.4,0.3
	c-0.2,0.1-0.3,0.1-0.5,0.1s-0.3,0-0.5-0.1C-215.6,294.1-215.7,294-215.9,293.8L-215.9,293.8z"/>
<path class="st1" d="M-49.9,275.8c-0.6-0.2-1.2-0.4-1.8-0.7c-1.1-0.8-1.5-1.9-1.5-3.2c0-4,0-7.9,0-11.9c0-0.9-0.2-1.1-1.1-1.1
	c-4,0-7.9,0-11.9,0c-1,0-2-0.3-2.8-1c-1.1-1.1-1.5-2.4-1-3.9c0.4-1.3,1.7-2.3,3-2.4c0.4,0,0.8-0.1,1.2-0.1c3.8,0,7.6,0,11.4,0
	c0.8,0,1-0.2,1-1c0-4,0-8,0-11.9c0-1,0.3-1.9,0.9-2.7c0.9-1.1,2.5-1.5,3.9-1.1c1.4,0.4,2.4,1.7,2.5,3.1c0,0.4,0.1,0.7,0.1,1.1
	c0,3.8,0,7.7,0,11.5c0,0.8,0.2,1.1,1,1.1c4,0,8,0,11.9,0c1,0,1.9,0.2,2.7,0.9c0.7,0.6,1.1,1.3,1.3,2.2c0,0.1,0,0.1,0.1,0.2
	c0,0.3,0,0.5,0,0.8c0,0.1-0.1,0.1-0.1,0.2c-0.1,0.9-0.6,1.6-1.3,2.2c-0.8,0.7-1.7,0.9-2.7,0.9c-4,0-7.9,0-11.9,0
	c-0.9,0-1.1,0.2-1.1,1.1c0,4,0,7.9,0,11.9c0,1.3-0.4,2.5-1.5,3.2c-0.5,0.3-1.2,0.5-1.8,0.7C-49.4,275.8-49.6,275.8-49.9,275.8z"/>
<g>
	<path class="st2" d="M24.9,50.7c-2.1,0-4.3,0-6.4,0c0-1.7,0-3.5,0-5.2c0.3-0.1,0.7,0.1,1,0.1c0.4,0,0.9-0.1,1.2-0.3
		c1,0.7,2.1,0.6,3.1-0.1c0.2-0.1,0.4-0.3,0.5-0.4c0.2,0.1,0.2,0.3,0.2,0.4c0.2,1.3,0.3,2.5,0.3,3.8c0,0.3,0,0.7,0.1,1
		C25.1,50.3,25.1,50.6,24.9,50.7z"/>
	<path class="st3" d="M20.8,45.3c-0.1,0.3-0.3,0.3-0.5,0.4c-0.6,0.1-1.2,0.2-1.7-0.1c0-0.4,0-0.9,0-1.3
		C19.5,44.1,20.1,44.8,20.8,45.3z"/>
	<path class="st2" d="M60.7,50.7c-0.1,0-0.2,0-0.3,0c-7.9,0-15.8,0-23.7,0c-0.1,0-0.2,0-0.3,0c-0.2-0.3-0.1-0.7-0.1-1.1
		c0.1-1.1,0.1-2.1,0.3-3.2c0-0.3,0-0.5,0.2-0.7c0.8,0.1,1.5,0,2.2-0.6c0.2-0.2,0.5-0.4,0.7-0.5c0.3,0,0.5,0.2,0.7,0.4
		c0.8,0.7,1.7,0.7,2.6,0.5c0.1,0,0.2-0.1,0.4-0.1c1.2,0.6,2.3,0.5,3.3-0.4c0.1-0.1,0.3-0.2,0.5-0.4c0.2,0,0.4,0.1,0.5,0.2
		c0.9,0.9,2,1,3.2,0.5c0.2,0,0.4,0.1,0.5,0.2c0.5,0.1,0.5,0.1,0.6-0.4c0.1-3.1,0.5-6.1,1.2-9.1c0.1-0.3,0-0.6,0.3-0.9
		c0.2,0,0.2-0.3,0.2-0.4c0.6-1.9,1.3-3.7,2.4-5.3c0.3-0.5,0.7-0.9,1.2-1.3c-0.4,3.8-0.8,7.5-1,11.3c-0.1,0.4,0,0.7,0.1,1
		c0,1.2-0.1,2.3-0.1,3.4c0,0.1,0,0.3,0,0.4c-0.1,0.3-0.4,0.2-0.6,0.2c-0.2,0-0.5,0-0.6,0.2c-0.1,0.2,0.2,0.3,0.4,0.4
		c0.8,0.6,1.7,0.7,2.7,0.4c0.1,0,0.2-0.1,0.3-0.1c0.2,0,0.4,0.1,0.6,0.3c0.6,0.2,1.2,0.2,1.8-0.1c0.2,0.2,0.1,0.4,0.1,0.6
		c0,1.3,0,2.7,0,4C60.9,50.3,60.9,50.6,60.7,50.7z"/>
	<path class="st2" d="M33.6,50.7c-1.3,0-2.7,0-4,0c-0.1-0.2-0.1-0.4-0.1-0.5c0-1.1,0-2.3,0.1-3.4c0.2-2,0.4-4.1,0.8-6.1
		c0.1-0.6,0.3-1.2,0.4-1.8c0-0.2,0.2-0.2,0.3-0.4c0.7-2.6,1.7-5.1,3.7-7.2c-0.4,3.9-0.8,7.8-1,11.7c-0.1,0.3,0.1,0.6,0.1,1
		c0,2-0.1,4-0.1,5.9C33.8,50.3,33.8,50.5,33.6,50.7z"/>
	<path class="st4" d="M30.9,38.8c-0.1,1-0.4,1.9-0.6,2.8c-0.2,1.2-0.4,2.5-0.5,3.7c-0.2,1.8-0.3,3.6-0.3,5.4c-0.2,0-0.5,0-0.7,0
		c-0.2-0.5-0.2-1-0.3-1.4c-0.2-1.5-0.5-2.9-0.9-4.4c0-0.1,0-0.2,0-0.3c0.1-0.6,0.2-1.1,0.1-1.7c-0.1-2.7-0.2-5.3-0.4-8
		c-0.2-2.1-0.3-4.2-0.6-6.2c0-0.3-0.1-0.5-0.1-0.8c0.2,0,0.3,0.2,0.4,0.3c1.2,1.7,2,3.5,2.7,5.5c0.5,1.6,0.9,3.1,1.2,4.8
		C31,38.6,31,38.7,30.9,38.8z"/>
	<path class="st4" d="M53.4,35c-0.1,1-0.4,2-0.6,3c-0.2,1.1-0.4,2.3-0.5,3.4c-0.1,1.3-0.3,2.7-0.3,4c0,0.3-0.1,0.3-0.4,0.3
		c-0.2,0-0.3-0.1-0.4-0.2c-0.1-0.1-0.2-0.2-0.2-0.4c-0.2-1.4-0.5-2.7-0.9-4.1c0-0.1,0-0.1,0-0.2c0.2-0.6,0.1-1.2,0.1-1.8
		c0-2.2-0.2-4.4-0.3-6.6c-0.1-1.8-0.3-3.7-0.5-5.5c-0.1-0.8-0.2-1.6-0.3-2.3c0.2,0,0.3,0.2,0.4,0.3c1,1.3,1.7,2.8,2.3,4.4
		C52.5,31.1,53.1,33,53.4,35z"/>
	<path class="st5" d="M27.7,44.7c0.6,1.8,0.9,3.7,1.1,5.5c0,0.2,0,0.4,0,0.5c-1.3,0-2.6,0-4,0c-0.1-1.5-0.1-3-0.3-4.5
		c-0.1-0.5-0.1-0.9-0.2-1.4c0-1-0.3-2-0.5-3.1c-0.3-1.6-0.7-3.2-1.1-4.7c0-0.1-0.1-0.3,0-0.4c0.5,0.3,0.8,0.6,1.2,1
		c1.6,1.6,2.6,3.6,3.3,5.7c0.1,0.3,0.2,0.7,0.4,1C27.8,44.4,27.8,44.5,27.7,44.7z"/>
	<path class="st5" d="M33.6,50.7c0-1.4-0.1-2.7,0-4.1c0.1-0.9,0-1.8,0.1-2.7c-0.1-0.2,0-0.3,0.1-0.4c0.6-2,1.5-4,2.7-5.7
		c0.5-0.7,1.1-1.3,1.8-1.8c0.1-0.1,0.2-0.2,0.4-0.1c-0.8,3.3-1.6,6.5-2,9.9c-0.2,1.7-0.4,3.3-0.4,5C35.5,50.7,34.6,50.7,33.6,50.7z"
		/>
	<path class="st5" d="M58.9,45.6c-0.2-0.1-0.4-0.1-0.5-0.3c-0.2,0-0.4-0.2-0.6-0.3c-0.4-0.4-0.9-0.7-1.5-0.7c-0.1,0-0.1,0-0.1-0.1
		c-0.1-1.2,0.1-2.5,0.1-3.7c0-0.1,0-0.3,0.1-0.4c-0.1-0.1,0-0.2,0.1-0.3c0.8-2.4,1.8-4.6,3.6-6.5c0.3-0.3,0.6-0.6,1-0.8
		c0.1-0.1,0.1-0.2,0.3-0.1c0.2,0.1,0,0.2,0,0.3c-0.3,1.3-0.7,2.7-1,4C59.5,39.6,59,42.6,58.9,45.6z"/>
	<path class="st5" d="M50.2,40.9c0.5,1.5,0.8,3.1,1,4.7c-0.1-0.1-0.3-0.1-0.4-0.2c-0.2,0-0.4-0.2-0.5-0.3c-0.8-0.7-1.7-0.9-2.7-0.6
		c-0.1,0-0.2,0.1-0.3,0c-0.2-2.1-0.4-4.2-0.9-6.2c-0.3-1.5-0.7-3-1.1-4.5c0-0.2-0.1-0.3,0-0.5c0.3,0.1,0.5,0.3,0.7,0.5
		c2,1.7,3.1,3.9,4,6.3c0.1,0.2,0.1,0.3,0.2,0.5C50.2,40.6,50.3,40.7,50.2,40.9z"/>
	<path class="st4" d="M60.7,50.7c0-1.7,0-3.4,0-5.1c0.4-0.2,0.7-0.5,1.1-0.8c0.4-0.3,0.8-0.5,1.3-0.6c0.2,0,0.3,0,0.3,0.3
		c0,2.1,0,4.2,0,6.2c-0.1,0.1-0.1,0.1-0.2,0.1c-0.8,0-1.5,0-2.3,0C60.9,50.8,60.8,50.8,60.7,50.7L60.7,50.7z"/>
	<path class="st4" d="M47.3,44.4c1.4-0.5,2.5-0.1,3.5,1c-0.8,0.6-2.1,0.5-3-0.2c-0.2-0.2-0.5-0.4-0.7-0.6
		C47.2,44.5,47.3,44.5,47.3,44.4z"/>
	<path class="st3" d="M43.4,45.4c-0.9,0.6-2.2,0.5-3-0.2c-0.2-0.2-0.5-0.3-0.7-0.6c0.9-0.5,1.8-0.5,2.6,0
		C42.7,44.8,43,45.1,43.4,45.4z"/>
	<path class="st4" d="M56.1,44.2c0.8-0.1,1.4,0.4,2,0.9c0.1,0.1,0.2,0.2,0.3,0.3c-1.5,0.8-2.6,0.2-3.6-0.6c-0.2-0.2-0.1-0.2,0.1-0.3
		C55.3,44.3,55.7,44.2,56.1,44.2z"/>
</g>
</svg>
