<?xml version="1.0" encoding="utf-8"?>
<!-- Generator: Adobe Illustrator 25.2.1, SVG Export Plug-In . SVG Version: 6.00 Build 0)  -->
<svg version="1.1" id="Camada_1" xmlns="http://www.w3.org/2000/svg" xmlns:xlink="http://www.w3.org/1999/xlink" x="0px" y="0px"
	 viewBox="0 0 82 82" style="enable-background:new 0 0 82 82;" xml:space="preserve">
<style type="text/css">
	.st0{opacity:0.102;fill:#FF4361;enable-background:new    ;}
	.st1{fill:#333333;}
	.st2{fill:#F55767;}
	.st3{fill:#FFFFFF;stroke:#FFFFFF;stroke-width:0.75;stroke-miterlimit:10;}
</style>
<path class="st0" d="M54,0H28C12.5,0,0,12.5,0,28v26c0,15.5,12.5,28,28,28h26c15.5,0,28-12.5,28-28V28C82,12.5,69.5,0,54,0z"/>
<g>
	<path class="st1" d="M130.5,27.5c0.1-1,0-2-0.3-2.9c-0.7-1.1-1.7-2.1-2.9-2.7c-0.4-0.2-0.6-0.4-0.8-0.5c-1.5-1-3.2-2-3.7-3.4
		c-0.6,1.4-2.2,2.5-3.7,3.4c-0.3,0.2-0.6,0.4-0.8,0.5c-1.2,0.6-2.2,1.6-2.8,2.7c-0.3,0.9-0.5,1.9-0.3,2.9L130.5,27.5z M132,23.7
		c0.6,1.5,0.7,3.1,0.4,4.7c0,0.3-0.1,0.5-0.3,0.7c-0.2,0.2-0.4,0.3-0.7,0.3h-17.3c-0.2,0-0.5-0.1-0.7-0.3s-0.3-0.4-0.3-0.6
		c-0.3-1.6-0.1-3.3,0.4-4.8c0.6-1.3,1.7-2.3,3.6-3.5c0.3-0.2,0.6-0.4,0.9-0.5c1.5-0.9,3-1.9,3-2.9c0-1-1.6-2-3-2.9
		c-0.3-0.2-0.5-0.3-0.9-0.5c-2-1.3-3.1-2.4-3.6-3.8c-0.5-1.6-0.7-3.3-0.4-4.9c0-0.3,0.1-0.5,0.3-0.7c0.2-0.2,0.4-0.3,0.7-0.3h17.3
		c0.2,0,0.5,0.1,0.7,0.3c0.2,0.2,0.3,0.4,0.3,0.6c0.3,1.7,0.2,3.4-0.4,5c-0.6,1.4-1.7,2.5-3.6,3.8c-0.3,0.2-0.6,0.4-0.9,0.5
		c-1.5,0.9-3,1.9-3,2.9c0,1,1.6,2,3,2.9c0.3,0.2,0.7,0.4,0.8,0.5C130.3,21.4,131.4,22.4,132,23.7L132,23.7z M122.8,15.6
		c0.6-1.4,2.2-2.4,3.7-3.4c0.3-0.2,0.6-0.4,0.8-0.5c1.2-0.6,2.2-1.7,2.9-2.9c0.3-1,0.4-2.1,0.3-3.2h-15.5c-0.1,1.1,0,2.2,0.3,3.2
		c0.7,1.2,1.7,2.2,2.9,2.9c0.2,0.1,0.5,0.3,0.8,0.5C120.6,13.2,122.2,14.2,122.8,15.6L122.8,15.6z"/>
	<path class="st1" d="M112.1,0h21.5c0.4,0,0.7,0.1,1.1,0.2c0.3,0.1,0.6,0.3,0.9,0.6c0.3,0.3,0.5,0.6,0.6,0.9
		c0.1,0.3,0.2,0.7,0.2,1.1c0,0.4-0.1,0.7-0.2,1.1c-0.1,0.3-0.3,0.6-0.6,0.9c-0.3,0.3-0.6,0.5-0.9,0.6c-0.3,0.1-0.7,0.2-1.1,0.2
		h-21.4c-0.4,0-0.7-0.1-1.1-0.2c-0.3-0.1-0.6-0.3-0.9-0.6c-0.3-0.3-0.5-0.6-0.6-0.9c-0.1-0.3-0.2-0.7-0.2-1.1c0-0.4,0.1-0.7,0.2-1.1
		c0.1-0.3,0.3-0.6,0.6-0.9c0.3-0.3,0.6-0.5,0.9-0.6C111.3,0.1,111.7,0,112.1,0L112.1,0z M133.5,2h-21.5c-0.2,0-0.4,0.1-0.6,0.2
		c-0.1,0.1-0.2,0.4-0.2,0.6c0,0.1,0,0.2,0.1,0.3c0,0.1,0.1,0.2,0.2,0.3c0.1,0.1,0.4,0.2,0.6,0.2h21.5c0.1,0,0.2,0,0.3-0.1
		c0.1,0,0.2-0.1,0.3-0.2c0.1-0.1,0.1-0.2,0.2-0.3c0-0.1,0.1-0.2,0.1-0.3c0-0.1,0-0.2-0.1-0.3c0-0.1-0.1-0.2-0.2-0.3
		C133.9,2.1,133.7,2,133.5,2L133.5,2z"/>
	<path class="st1" d="M112.1,27.5h21.5c0.4,0,0.7,0.1,1.1,0.2c0.3,0.1,0.6,0.3,0.9,0.6c0.3,0.3,0.5,0.6,0.6,0.9s0.2,0.7,0.2,1.1
		c0,0.7-0.3,1.4-0.8,2c-0.5,0.5-1.2,0.8-2,0.8h-21.5c-0.4,0-0.7-0.1-1.1-0.2c-0.3-0.1-0.6-0.3-0.9-0.6c-0.3-0.3-0.5-0.6-0.6-0.9
		c-0.1-0.3-0.2-0.7-0.2-1.1c0-0.4,0.1-0.7,0.2-1.1s0.3-0.6,0.6-0.9c0.3-0.3,0.6-0.5,0.9-0.6C111.3,27.5,111.7,27.5,112.1,27.5
		L112.1,27.5z M133.5,29.4h-21.5c-0.2,0-0.4,0.1-0.6,0.2c-0.1,0.1-0.1,0.2-0.2,0.3c0,0.1-0.1,0.2-0.1,0.3c0,0.2,0.1,0.4,0.2,0.6
		c0.1,0.1,0.4,0.2,0.6,0.2h21.4c0.1,0,0.2,0,0.3-0.1c0.1,0,0.2-0.1,0.3-0.2c0.1-0.1,0.1-0.2,0.2-0.3c0-0.1,0.1-0.2,0.1-0.3
		c0-0.1,0-0.2-0.1-0.3c0-0.1-0.1-0.2-0.2-0.3c-0.1-0.1-0.2-0.1-0.3-0.2C133.7,29.5,133.6,29.4,133.5,29.4L133.5,29.4z"/>
	<path class="st2" d="M112.1,33c-0.4,0-0.7-0.1-1.1-0.2c-0.3-0.1-0.6-0.3-0.9-0.6c-0.3-0.3-0.5-0.6-0.6-0.9
		c-0.1-0.3-0.2-0.7-0.2-1.1c0-0.4,0.1-0.7,0.2-1.1c0.1-0.3,0.3-0.6,0.6-0.9c0.3-0.3,0.6-0.5,0.9-0.6c0.3-0.1,0.7-0.2,1.1-0.2h1
		c-0.1-1.3,0-2.5,0.5-3.7c0.6-1.3,1.7-2.3,3.6-3.5c0.3-0.2,0.6-0.4,0.8-0.5c1.5-0.9,3-1.9,3-2.9s-1.6-2-3-2.9
		c-0.3-0.2-0.5-0.3-0.8-0.5c-2-1.3-3.1-2.4-3.6-3.8c-0.5-1.3-0.6-2.7-0.4-4h-1c-0.4,0-0.7-0.1-1.1-0.2c-0.3-0.1-0.6-0.3-0.9-0.6
		c-0.3-0.3-0.5-0.6-0.6-0.9c-0.1-0.3-0.2-0.7-0.2-1.1c0-0.4,0.1-0.7,0.2-1.1c0.1-0.3,0.3-0.6,0.6-0.9c0.3-0.3,0.6-0.5,0.9-0.6
		S111.7,0,112,0h21.5c0.4,0,0.7,0.1,1.1,0.2c0.3,0.1,0.6,0.3,0.9,0.6c0.3,0.3,0.5,0.6,0.6,0.9c0.1,0.3,0.2,0.7,0.2,1.1
		c0,0.4-0.1,0.7-0.2,1.1c-0.1,0.3-0.3,0.6-0.6,0.9c-0.3,0.3-0.6,0.5-0.9,0.6c-0.3,0.1-0.7,0.2-1.1,0.2h-1c0.2,1.3,0,2.7-0.4,4
		c-0.6,1.4-1.7,2.5-3.6,3.8c-0.3,0.2-0.6,0.4-0.9,0.5c-1.5,0.9-3,1.9-3,2.9c0,1,1.6,2,3,2.9c0.3,0.2,0.7,0.4,0.8,0.5
		c1.9,1.2,3,2.2,3.6,3.5c0.5,1.2,0.7,2.5,0.5,3.7h1c0.7,0,1.4,0.3,2,0.8c0.3,0.3,0.5,0.6,0.6,0.9c0.1,0.3,0.2,0.7,0.2,1.1
		c0,0.7-0.3,1.4-0.8,2c-0.5,0.5-1.2,0.8-2,0.8L112.1,33z M112.1,31h21.5c0.2,0,0.4-0.1,0.6-0.2c0.1-0.1,0.2-0.4,0.2-0.6
		c0-0.1,0-0.2-0.1-0.3c0-0.1-0.1-0.2-0.2-0.3c-0.1-0.1-0.2-0.1-0.3-0.2c-0.1,0-0.2-0.1-0.3-0.1h-21.5c-0.2,0-0.4,0.1-0.6,0.2
		c-0.1,0.1-0.1,0.2-0.2,0.3c0,0.1-0.1,0.2-0.1,0.3c0,0.2,0.1,0.4,0.2,0.6C111.6,30.9,111.8,31,112.1,31z M119.1,21.3
		c-0.3,0.2-0.6,0.4-0.8,0.5c-1.2,0.6-2.2,1.6-2.8,2.7c-0.3,0.9-0.5,1.9-0.3,2.9h15.5c0.1-1,0-2-0.3-2.9c-0.7-1.1-1.7-2.1-2.9-2.7
		c-0.4-0.2-0.6-0.4-0.8-0.5c-1.5-1-3.2-2-3.7-3.4C122.2,19.3,120.6,20.4,119.1,21.3z M115.4,8.8c0.7,1.2,1.7,2.2,2.9,2.9
		c0.2,0.1,0.5,0.3,0.8,0.5c1.5,1,3.2,2,3.7,3.4c0.6-1.4,2.2-2.4,3.7-3.4c0.3-0.2,0.6-0.4,0.8-0.5c1.2-0.6,2.2-1.7,2.9-2.9
		c0.3-1,0.4-2.1,0.3-3.2h-15.5C114.9,6.7,115,7.8,115.4,8.8L115.4,8.8z M111.5,2.2c-0.1,0.1-0.2,0.4-0.2,0.6c0,0.2,0.1,0.4,0.2,0.6
		c0.1,0.1,0.4,0.2,0.6,0.2h21.5c0.1,0,0.2,0,0.3-0.1c0.1,0,0.2-0.1,0.3-0.2c0.1-0.1,0.1-0.2,0.2-0.3c0-0.1,0.1-0.2,0.1-0.3
		c0-0.1,0-0.2-0.1-0.3c0-0.1-0.1-0.2-0.2-0.3c-0.1-0.1-0.4-0.2-0.6-0.2h-21.5C111.8,2,111.6,2.1,111.5,2.2L111.5,2.2z"/>
</g>
<g>
	<path class="st3" d="M70.4,23.8c-0.7-1-2.6,0-3.5,0.2c-0.6,0.1-1.1,0.3-1.7,0.5c-1.3,0.3-2.6,0.6-3.8,1c-2.1,0.6-4.3,1.1-6.3,1.9
		c-0.1,0-0.2,0.1-0.3,0.1c0.7-0.2,1.5-0.3,1.9-0.5c1.5-0.5,3-0.9,4.5-1.3c1.4-0.4,2.9-0.7,4.3-1.1c1.3-0.3,3-1.2,4.3-1.2
		c-0.2,0,0.4,4.2,0.8,4.1c-0.9,0.2-1.8,0.5-2.8,0.6c-0.6,0-1.2,0.3-1.8,0.5c-1.4,0.4-2.7,0.8-4.1,1.2c-0.4,0.1-0.8,0.3-1.2,0.5
		c-1,0.3-1.9,0.6-2.9,1c-0.6,0.2-1.2,0.5-1.6,1c-0.3,0.3-0.3,0.9-0.4,1.3c0,0,0,0.1,0.1,0.1c0,0,0.1,0.1,0.2,0.1
		c0.1-0.4,0.1-0.8,0.3-1.2c0-0.2,0.2-0.3,0.3-0.4c0.3-0.2,0.6-0.4,0.9-0.5c0.6-0.3,1.2-0.4,1.8-0.1c0.6,0.3,1.3,0.3,1.9,0.3
		c1,0,2.1,0,3.1,0.2c0.5,0.1,1.1,0.5,1.5,0.8c0.6,0.5,1.2,1.1,1.6,1.8c0.5,0.7,0.9,1.5,1.2,2.3c0.3,0.8,0.5,1.6,0.7,2.5
		c0.3,0.9,0.1,1.8,0,2.6c-0.1,0.5-0.2,1.1-0.4,1.6c-0.2,0.7-0.6,1.4-1.2,1.9c-0.5,0.5-1.1,1.1-1.6,1.6c-0.2,0.2-0.4,0.3-0.7,0.4
		c-0.5,0.2-1,0.5-1.6,0.6c-1.6,0.3-3-0.2-4.2-1.2c-0.6-0.5-1.1-1-1.4-1.7c-0.2-0.5-0.3-1,0-1.6c0.7-1.3,1.3-2.7,1.2-4.2
		c0-0.7-0.2-1.4-0.4-2c-0.1-0.4-0.2-0.9-0.4-1.3c-0.3-0.7-1-1.2-1.7-1.6c-0.5-0.3-1-0.5-1.6-0.7c-1.2-0.4-2.4-0.7-3.6-0.8
		c-1.1-0.1-2.2,0.2-3.3,0.5c-1.2,0.4-2.4,0.8-3.4,1.5c-0.9,0.6-1.9,1.1-2.7,1.9c-0.5,0.6-0.9,1.3-1.1,2c0,0,0,0.1-0.1,0.1
		c0,0,0,0-0.1,0.1c0-0.2-0.1-0.3-0.1-0.5c0-1.9,0.1-3.8,0-5.6c-0.1-1.8-0.2-3.5-0.4-5.3c0-0.1-0.1-0.2-0.1-0.4c0,0-0.1,0-0.1,0
		c0,0.5,0.1,1,0.1,1.5c0.1,1.6,0.2,3.1,0.3,4.7c0.1,1.3,0.1,2.5,0.1,3.8c0,0.8,0,1.5,0.2,2.2c0.3,0.8,0.3,1.6,0.4,2.4
		c0,0.1,0.1,0.3,0.1,0.4c0.6,0.7,0.6,1.5,0.7,2.4c0.1,1,0.4,2,1.1,2.7c0.7,0.7,1.1,1.1,2,0.8c0.4-0.1,0.8-0.1,1.2-0.3
		c0.6-0.3,1.2-0.6,1.8-1c0,0-0.1-0.1-0.1-0.1c-0.4,0.2-0.7,0.5-1.1,0.6c-0.4,0.2-0.9,0.2-1.3,0.3c-0.2,0.1-0.5,0.2-0.7,0.3
		c-0.1,0-0.3,0.1-0.4,0.1c-0.5-0.4-1.1-0.8-1.6-1.3c-0.5-0.5-0.6-1.3-0.7-2c-0.1-0.6-0.2-1.2-0.3-1.8c0-0.2-0.2-0.4-0.3-0.6
		c-0.1-0.2-0.3-0.4-0.3-0.6c0.1-1.2-0.3-2.3,0-3.5c0.2-0.6,0.4-1.2,1-1.6c0.6-0.4,1.2-0.9,1.8-1.3c0.3-0.2,0.5-0.4,0.8-0.6
		c1.2-0.7,2.4-1.2,3.8-1.4c0.9-0.1,1.7-0.5,2.6-0.4c0.3,0,0.7,0.1,1,0.1c1.5,0.2,2.9,0.7,4.2,1.5c0.8,0.5,1.4,1.3,1.8,2.2
		c0.7,1.6,0.6,3.1,0.2,4.7c-0.2,0.5-0.4,1.1-0.7,1.5c-0.5,0.8-0.4,1.6,0,2.3c0.7,1.4,1.9,2.1,3.4,2.5c0.5,0.1,0.6,0.5,0.6,0.8
		c0.2,1,0.4,2,0.2,3c-0.1,0.6-0.2,1.3-0.7,1.9c-0.2,0.3-0.4,0.6-0.5,0.9c-0.4,0.7-1.1,1.2-1.8,1.7c-0.6,0.4-1.2,0.8-1.8,1.2
		c-0.6,0.4-1.3,0.6-2,0.7c-0.9,0.2-1.8,0.4-2.6,0.9c-0.4,0.3-0.9,0.3-1.4,0.5c-0.7,0.2-1.4,0.4-2.2,0.5c-1.2,0.1-2.3,0.2-3.5,0.2
		c-0.4,0-0.8,0-1.2,0c-1.4,0.1-2.6-0.4-3.8-1c-1.2-0.7-2.3-1.6-3.3-2.6c-1-0.9-2-1.8-3-2.6c-0.1-0.1-0.2-0.1-0.4-0.1
		c-1-0.1-1.5-0.7-2-1.5c-0.3-0.5-0.5-1-0.8-1.5c0,0.6,0.2,1.1,0.5,1.6c0.6,0.7,1.2,1.2,2.1,1.6c0.6,0.3,1.1,0.7,1.5,1.2
		c1,0.9,2,1.9,3,2.8c0.2,0.2,0.4,0.4,0.6,0.7c-0.4,0.1-0.7,0.3-1.1,0.4c-0.7,0.2-1.4,0.4-2.1,0.5c-0.6,0.1-1.1,0.1-1.7,0
		c-1.1,0-2.2,0-3.3-0.1c-1.1,0-2.2-0.2-3.2-0.6c-1.5-0.6-2.9-1.6-4.4-2.4c-0.7-0.4-1.6-0.6-2.4-1c-0.5-0.2-1-0.4-1.4-0.7
		C19.3,55,18.6,54.5,18,54c-0.4-0.4-0.8-0.8-1.1-1.2c-1-1.1-1.6-2.3-2-3.7c-0.5-1.6-0.4-3.2,0.1-4.8c0.4-1.4,1.2-2.7,2.2-3.8
		c0.7-0.8,1.5-1.4,2.2-2.2c0.3-0.2,0.5-0.5,0.8-0.7c0,0,0-0.1-0.1-0.1c-0.4,0.2-0.8,0.4-1.1,0.7c-0.9,0.8-1.7,1.7-2.5,2.5
		c0,0,0,0,0,0.1c-0.4,0.5-0.7,0.5-1.1-0.1c0-0.1-0.1-0.1-0.1-0.2c-0.8-0.6-1.1-1.4-1.5-2.2c-0.3-0.5-0.4-1.2-0.4-1.8
		c-0.2-1.3,0.1-2.4,0.9-3.5c0.6-0.9,1.3-1.7,2-2.4c0.4-0.4,0.9-0.8,1.3-1.2c0.4-0.3,0.7-0.7,1.1-0.9c0.5-0.2,1.2-0.3,1.8-0.3
		c1.7-0.1,3.3-0.3,5-0.4c1.1-0.1,2.2-0.1,3.4,0.1c0.2,0,0.4,0.1,0.6,0.2c0.1,0.5,0.3,1,0.5,1.5c0.2,0.6,0.3,1.2,0.5,1.8
		c0.4,1.1,1.3,1.6,2.3,2.1c0.4,0.2,0.9,0.3,1.4,0.1c0.9-0.2,1.4-0.8,1.6-1.7c0.1-0.5,0.2-1,0.3-1.5c0.1-0.3,0.1-0.7,0.2-1
		c0.1-0.3,0.3-0.6,0.4-0.9c0.7-0.1,0.7,0,1.1,0.6c0.3,0.6,0.2,1.2,0.3,1.9c0.1,0.7,0.1,1.4,0,2.1c-0.1,0.9-0.2,1.7-0.3,2.6
		c-0.1,0.5-0.1,1.1-0.2,1.8c-0.2-0.2-0.3-0.4-0.4-0.5c-0.4-0.6-0.9-1-1.6-1c-0.3,0-0.6-0.2-0.9-0.3c-0.6-0.2-1.3-0.4-1.9-0.6
		c-0.2-0.1-0.5-0.2-0.6-0.4c-0.5-0.6-1.2-0.7-2-0.5c-0.5,0.1-1.1,0.3-1.6,0.4c-0.1,0-0.2,0.1-0.4,0.2c0,0,0,0.1,0,0.1
		c0.1,0,0.3,0,0.4-0.1c0.7-0.3,1.4-0.5,2.2-0.4c0.4,0.1,0.8,0.3,1.2,0.4c0.5,0.2,0.9,0.5,1.3,0.7c0.5,0.2,1,0.4,1.6,0.5
		c0.6,0.1,1.2,0.3,1.7,0.7c0.4,0.3,0.6,0.8,0.8,1.3c0,0.1-0.1,0.3-0.2,0.5c-0.1,0.3-0.3,0.7-0.4,1c-0.1,0.1-0.2,0.2-0.2,0.3
		c-0.1,0.6-0.3,1.3-0.3,1.9c0,0.6-0.3,1-0.7,1.3c-0.8,0.6-3.1,1.9-3,3.1c0.3-0.4,0.6-0.9,1-1.3c0.5-0.5,1.2-0.8,1.7-1.2
		c0.2-0.1,0.4-0.2,0.6-0.4c0.4-0.7,0.8-1.3,0.6-2.2c0-0.1,0-0.3,0-0.4c0.1-0.3,0.2-0.7,0.3-1c0.6-0.7,0.9-1.6,1.1-2.5
		c0.2-1.3,0.4-2.6,0.5-3.9c0.1-1.3,0.1-2.5-0.3-3.8c-0.1-0.2-0.2-0.4-0.3-0.7c-0.1-0.3-0.3-0.5-0.6-0.5c-0.4,0-0.6,0.1-0.8,0.5
		c-0.5,0.7-0.5,1.5-0.6,2.3c-0.1,0.6-0.3,1.1-0.5,1.6c-0.3,0.6-0.9,0.7-1.4,0.7c-1.6,0-2.6-0.8-3-2.4c-0.2-0.6-0.4-1.2-0.4-1.9
		c-0.1-0.7-0.8-1.2-1.3-1.2c-0.9-0.1-1.9-0.1-2.8-0.1c-0.8,0-1.6,0.1-2.4,0.2c-1.4,0.1-2.7,0.2-4.1,0.3c-2.1,0.3-4.1,0.6-6.2,1
		c-0.2,0-0.5,0.1-0.7,0.1c-0.6,0.2-0.6,0.2-1-0.4c-0.4-0.6-0.3-1.7,0.2-2.3c0.4-0.5,1-0.5,1.5-0.6c1.6-0.3,3.2-0.6,4.8-0.9
		c1.4-0.2,2.8-0.4,4.3-0.5c1.5-0.1,2.9-0.3,4.4-0.3c1.1,0,2.3,0,3.5,0c0.4,0,0.8,0.1,1.1,0.3c0.4,0.1,0.5,0.6,0.6,0.9
		c0.3,1,0.6,2,0.5,3.1c0,0.3,0.2,0.7,0.3,0.9c0.1,0.1,0.3,0.2,0.5,0.2c0.1,0,0.3-0.2,0.3-0.3c0.1-0.7,0.2-1.5,0.3-2.2
		c0.1-0.8,0.4-1.5,1-2.1c0.9-0.8,1.9-1,3.1-0.8c0.4,0.1,0.7,0.2,1.1,0.5c0.1,0.1,0.3,0.1,0.5,0.2c-0.2-0.4-0.6-0.7-1-0.8
		c-1.3-0.4-2.6-0.1-3.8,0.6c-0.9,0.6-1.1,1.6-1.3,2.5c-0.1,0.4,0,0.9,0,1.3c0,0.1,0,0.3-0.1,0.4c0,0.1-0.1,0.2-0.2,0.2
		c-0.1,0-0.2-0.1-0.3-0.2c-0.1-0.3-0.2-0.5-0.2-0.8c-0.1-0.7,0-1.4-0.1-2c-0.1-0.5-0.3-1-0.5-1.5c-0.2-0.4-0.6-0.6-1.1-0.6
		c-1.3-0.1-2.5-0.1-3.8-0.1c-1.1,0-2.2,0.1-3.4,0.2c-0.1,0-0.2,0-0.3-0.1c0.2-0.1,0.3-0.3,0.5-0.4c0.3-0.2,0.7-0.4,1-0.5
		c0.7-0.3,1.5-0.6,2.3-0.8c1.4-0.3,2.8-0.5,4.3-0.7c1-0.1,2.1,0,3.1-0.1c1.3-0.1,2.7-0.2,4-0.3c2-0.1,4.1-0.2,6.1,0.2
		c0.7,0.1,1.4,0.4,2.1,0.6c1.4,0.5,2.5,1.5,3.9,2.2c0.4,0.2,0.8,0.5,1.1,0.8c0.3,0.2,0.5,0.5,0.7,0.8c0.3,0.4,0.5,0.9,0.8,1.3
		c0.2,0.3,0,0.6-0.2,0.8c-0.2,0.1-0.3,0.3-0.4,0.4c0.3-0.3,0.9-0.6,1.6-0.8c-0.1,0-0.2,0-0.3,0.1c0-0.1,0-0.2-0.1-0.3
		c-0.3-0.4-0.6-0.8-0.9-1.2c-0.6-0.9-1.3-1.6-2.2-2c-0.8-0.4-1.5-1-2.3-1.4c-1.3-0.8-2.6-1.2-4.1-1.5C43,20.9,41.6,21,40.1,21
		c-2,0.1-3.9,0.2-5.9,0.3c-1.6,0.1-3.2,0.1-4.7,0.3c-2.3,0.2-4.5,0.8-6.4,2c-0.7,0.4-1.3,0.6-2.1,0.7c-1.7,0.2-3.4,0.4-5.1,0.7
		c-1.2,0.2-2.4,0.5-3.6,0.7c-0.6,0.1-1.1,0.4-1.3,1.1c0,0.1-0.1,0.1-0.1,0.2c-0.4,0.7-0.1,2,0.5,2.4c0.1,0.1,0.3,0.1,0.4,0.1
		c0.9-0.2,1.9-0.4,2.8-0.5c1-0.2,1.9-0.4,2.9-0.5l0.1,0.2c-0.3,0.3-0.6,0.7-1,1c-1.3,1-2.4,2.1-3.2,3.5c-0.6,1-0.9,2.1-0.8,3.3
		c0.1,1,0.4,1.8,0.9,2.6c0.4,0.6,0.8,1.2,1.2,1.7c0.2,0.3,0.6,0.5,0.6,0.8c0,0.3-0.3,0.6-0.4,1c0,0,0,0.1-0.1,0.1
		c-0.8,1.5-1.2,3.1-0.8,4.7c0.2,0.9,0.5,1.8,0.8,2.7c0.6,1.6,1.7,3,3,4.2c0.3,0.3,0.7,0.5,1,0.8c0.8,0.7,1.8,1.2,2.8,1.5
		c0.5,0.2,1.1,0.3,1.6,0.6c1.1,0.6,2.1,1.3,3.1,1.9c1.4,0.8,2.9,1.1,4.4,1.2c0.8,0,1.6,0,2.4,0.1c0.7,0,1.4,0.2,2.1,0.1
		c1.3-0.1,2.6-0.4,3.9-1c0.3-0.2,0.6-0.1,0.8,0.1c0.5,0.3,1,0.6,1.5,0.8c1,0.4,2,0.5,3.1,0.6c1.8,0.2,3.5,0,5.2-0.2
		c1.2-0.2,2.3-0.7,3.5-1.2c0.7-0.3,1.4-0.5,2.2-0.8c0.8-0.3,1.6-0.4,2.4-0.9c0.8-0.6,1.7-1.1,2.5-1.7c0.7-0.5,1.3-1.1,1.6-1.8
		c0.6-1.3,0.9-2.7,0.6-4.2c-0.1-0.5-0.2-1.1-0.3-1.6c0.2,0,0.3,0,0.4,0c0.3,0,0.7,0,1-0.1c1.3-0.3,2.4-0.9,3.4-1.8
		c0.8-0.8,1.6-1.6,2-2.7c0.3-0.9,0.5-1.9,0.6-2.9c0.1-1-0.1-2-0.4-3c-0.5-1.6-1.3-3.1-2.5-4.4c-0.7-0.8-1.5-1.5-2.5-1.8
		c-0.8-0.2-1.7-0.3-2.5-0.2c-0.8,0-1.5,0-2.3-0.2c-0.1,0-0.3-0.1-0.5-0.3c0.3-0.2,0.6-0.4,0.8-0.5c0.8-0.3,1.6-0.6,2.5-0.9
		c1.9-0.5,3.8-1,5.7-1.5c0.8-0.2,1.6-0.3,2.4-0.5c0.2,0,0.4-0.3,0.4-0.4c0-0.5,0-1.1-0.1-1.6c-0.1-0.5-0.2-1.1-0.4-1.6
		C70.6,24,70.5,23.8,70.4,23.8z M69.9,25.1c-0.1-0.6-0.1-1.1,0.2-1.6C70,24,70,24.6,69.9,25.1z"/>
	<path class="st3" d="M51.5,46.6c0.8-0.2,1.6-0.1,2.3,0.2c0.7,0.3,1.3,0.8,2,1.2c0.2,0.1,0.4,0.1,0.6,0.1c0.5-0.1,0.7-0.5,0.9-0.9
		c0.1-0.2,0.2-0.5,0.3-0.7c0,0-0.1,0-0.1-0.1c-0.3,0.4-0.5,0.7-0.8,1.1c-0.1,0.1-0.4,0.3-0.5,0.2c-0.4-0.1-0.9-0.2-1.3-0.4
		c-0.7-0.4-1.4-0.9-2.3-0.8c-0.6,0-1.2,0.1-1.8,0.1c-0.2,0-0.4,0.1-0.6,0.2c0,0,0,0.1,0,0.1C50.6,46.8,51.1,46.7,51.5,46.6z"/>
	<path class="st3" d="M31.3,48.4c-0.2,1,0.1,1.9,0.3,2.9c0-0.2,0-0.4,0-0.6c-0.2-1.1-0.1-2.3,0.1-3.4c0.1-0.4,0.3-0.8,0.4-1.1
		c-0.2,0.3-0.4,0.5-0.5,0.8C31.5,47.4,31.4,47.9,31.3,48.4z"/>
	<path class="st3" d="M50,46.8c0,0,0-0.1,0-0.1c-0.4,0.1-0.8,0.3-1.2,0.4c0,0,0,0.1,0,0.1C49.2,47.1,49.6,47,50,46.8z"/>
</g>
</svg>
