<?xml version="1.0" encoding="utf-8"?>
<!-- Generator: Adobe Illustrator 25.2.1, SVG Export Plug-In . SVG Version: 6.00 Build 0)  -->
<svg version="1.1" id="Camada_1" xmlns="http://www.w3.org/2000/svg" xmlns:xlink="http://www.w3.org/1999/xlink" x="0px" y="0px"
	 viewBox="0 0 82 82" style="enable-background:new 0 0 82 82;" xml:space="preserve">
<style type="text/css">
	.st0{fill:#EAF9FF;}
	.st1{fill:#3DABDD;}
</style>
<path class="st0" d="M54,0H28C12.5,0,0,12.5,0,28v26c0,15.5,12.5,28,28,28h26c15.5,0,28-12.5,28-28V28C82,12.5,69.5,0,54,0z"/>
<path class="st1" d="M120.8,152.3c-0.1,0-0.2,0-0.4-0.1c-0.1,0-0.2-0.1-0.3-0.2c-0.1-0.1-0.2-0.2-0.2-0.3c0-0.1-0.1-0.2-0.1-0.4
	v-2.2c0-0.7,0.3-1.4,0.8-2s1.2-0.8,2-0.8h1.7v-4.2c0-0.2,0.1-0.4,0.2-0.6c0.1-0.2,0.3-0.3,0.5-0.3h0c1-0.2,1.9-0.8,2.5-1.7
	c0.6-0.8,0.9-1.9,0.8-2.9c-2.3-1.1-4.1-2.8-5.3-5.1c-0.5-0.8-0.9-1.6-1.2-2.5c-2-1.1-3.7-2.6-5-4.5c-1.3-1.9-2.2-4-2.5-6.2
	c-0.1-0.4,0-0.8,0.1-1.2c0.1-0.4,0.3-0.8,0.6-1.1c0.3-0.3,0.6-0.6,1-0.7c0.4-0.2,0.8-0.3,1.2-0.3h2.8v-0.9c0-0.5,0.2-1,0.6-1.4
	c0.4-0.4,0.9-0.6,1.4-0.6h18.8c0.5,0,1,0.2,1.4,0.6c0.4,0.4,0.6,0.9,0.6,1.4v0.9h2.8c0.4,0,0.8,0.1,1.2,0.3c0.4,0.2,0.7,0.4,1,0.7
	c0.3,0.3,0.5,0.7,0.6,1.1c0.1,0.4,0.1,0.8,0.1,1.2c-0.4,2.2-1.2,4.4-2.5,6.2c-1.3,1.9-3,3.4-5,4.5c-0.4,0.9-0.8,1.7-1.2,2.5
	c-1.2,2.2-3,3.9-5.2,5c-0.1,1,0.2,2.1,0.8,2.9c0.6,0.8,1.5,1.4,2.5,1.7h0c0.2,0,0.4,0.2,0.5,0.3c0.1,0.2,0.2,0.4,0.2,0.6v4.2h1.7
	c0.7,0,1.4,0.3,2,0.8c0.5,0.5,0.8,1.2,0.8,2v2.2c0,0.1,0,0.2-0.1,0.4c0,0.1-0.1,0.2-0.2,0.3c-0.1,0.1-0.2,0.2-0.3,0.2
	c-0.1,0-0.2,0.1-0.4,0.1H120.8z M121.8,149.2v1.3h18.9v-1.3c0-0.2-0.1-0.5-0.3-0.7s-0.4-0.3-0.7-0.3h-17.1c-0.2,0-0.5,0.1-0.7,0.3
	C121.8,148.7,121.8,149,121.8,149.2L121.8,149.2z M126.2,146.4h10v-3.3h-10V146.4z M129.2,140.4c-0.2,0.3-0.4,0.6-0.6,0.8h5.2
	c-1-1.1-1.6-2.5-1.6-4c-0.4,0.1-0.7,0.1-1.1,0.1c-0.3,0-0.7,0-1-0.1C130.2,138.4,129.9,139.5,129.2,140.4L129.2,140.4z M121.7,114.3
	v4.4c-0.1,4.2,0.9,8.3,2.9,12c1.8,3.1,4.1,4.7,6.6,4.7s4.8-1.7,6.6-4.7c2-3.7,3-7.8,2.9-12v-4.4c0,0,0,0,0,0c0,0,0,0,0,0
	c0,0,0,0,0,0c0,0,0,0,0,0h-18.8C121.7,114.2,121.7,114.2,121.7,114.3C121.7,114.2,121.7,114.3,121.7,114.3L121.7,114.3z
	 M142.5,118.7c0,2.6-0.3,5.1-1,7.6c2.5-2,4.2-4.9,4.8-8.1c0-0.1,0-0.3,0-0.4c0-0.1-0.1-0.3-0.2-0.4c-0.1-0.1-0.2-0.2-0.4-0.3
	c-0.1-0.1-0.3-0.1-0.4-0.1h-2.8L142.5,118.7z M116.3,117.4c-0.1,0.1-0.2,0.2-0.2,0.4c0,0.1,0,0.3,0,0.4c0.5,3.2,2.2,6.1,4.8,8.1
	c-0.7-2.5-1-5.1-1-7.6V117h-2.8c-0.2,0-0.3,0-0.4,0.1C116.5,117.2,116.4,117.3,116.3,117.4L116.3,117.4z M127.7,128.4
	c-0.1-0.1-0.2-0.2-0.3-0.4c-0.1-0.2-0.1-0.3-0.1-0.5l0.5-2.8l-2-2c-0.1-0.1-0.2-0.3-0.3-0.4c0-0.2,0-0.3,0-0.5
	c0.1-0.2,0.1-0.3,0.3-0.4c0.1-0.1,0.3-0.2,0.5-0.2l2.8-0.4l1.2-2.5c0.1-0.2,0.2-0.3,0.3-0.4c0.1-0.1,0.3-0.1,0.5-0.1
	c0.2,0,0.3,0,0.5,0.1c0.1,0.1,0.3,0.2,0.3,0.4l1.2,2.5l2.8,0.4c0.2,0,0.3,0.1,0.5,0.2c0.1,0.1,0.2,0.3,0.3,0.4
	c0.1,0.2,0.1,0.3,0,0.5c0,0.2-0.1,0.3-0.3,0.4l-2,2l0.5,2.8c0,0.2,0,0.3-0.1,0.5c-0.1,0.2-0.2,0.3-0.3,0.4c-0.2,0.1-0.3,0.2-0.5,0.2
	c-0.1,0-0.3,0-0.4-0.1l-2.5-1.3l-2.5,1.3c-0.2,0.1-0.3,0.1-0.5,0.1C128,128.6,127.9,128.5,127.7,128.4L127.7,128.4z M131.6,125.3
	l1.3,0.7l-0.2-1.4c0-0.1,0-0.3,0-0.4c0-0.1,0.1-0.3,0.2-0.4l1-1l-1.4-0.2c-0.1,0-0.3-0.1-0.4-0.2c-0.1-0.1-0.2-0.2-0.3-0.3l-0.6-1.3
	l-0.6,1.3c-0.1,0.1-0.2,0.3-0.3,0.3c-0.1,0.1-0.3,0.1-0.4,0.2l-1.4,0.2l1,1c0.1,0.1,0.2,0.2,0.2,0.4c0,0.1,0.1,0.3,0,0.4l-0.2,1.4
	l1.3-0.7c0.1-0.1,0.3-0.1,0.4-0.1C131.3,125.2,131.5,125.3,131.6,125.3L131.6,125.3z"/>
<path class="st1" d="M30.2,61.9c-0.3-0.2-0.4-0.5-0.4-0.9c0-0.4,0-0.9,0-1.3c0-1.2,0.8-2,2-2.1c0.3,0,0.6,0,0.9,0c0-0.3,0-0.6,0-0.9
	c0-1.4,0.8-2.2,2.2-2.2c1.3,0,2.5,0,3.8,0c0.1,0,0.3,0,0.5,0c0-7.7,0-15.3,0-22.9c-3.2,0-6.5,0-9.7,0c0,0.1,0.1,0.2,0.1,0.3
	c1.9,4.1,3.7,8.2,5.6,12.4c0.1,0.1,0.2,0.3,0.4,0.3c0.6,0.1,0.9,0.6,0.6,1.2c-0.4,0.8-0.8,1.7-1.3,2.4c-0.5,0.8-1.2,1-2.1,1
	c-2.6,0-5.2,0-7.9,0c-0.5,0-1,0-1.5,0c-0.9,0-1.6-0.4-2-1.2c-0.4-0.7-0.8-1.4-1.1-2.2c-0.3-0.6,0-1.1,0.6-1.2c0.1,0,0.3-0.1,0.3-0.3
	c1.9-4.2,3.8-8.4,5.7-12.5c0-0.1,0-0.1,0.1-0.2c-0.5,0-0.9,0-1.3,0c-1.4-0.1-2.2-1.3-1.5-2.5c0.3-0.5,0.7-0.8,1.3-0.9
	c0.2,0,0.4,0,0.6,0c4.2,0,8.3,0,12.5,0c0.2,0,0.3,0,0.6,0c0-0.7,0-1.4,0-2.1c0-0.1-0.2-0.3-0.3-0.4c-1-0.9-1.4-2-1.1-3.4
	c0.4-1.3,1.3-2.2,2.7-2.4c1.5-0.2,2.9,0.5,3.5,1.9c0.6,1.3,0.2,2.9-0.9,3.8c-0.2,0.2-0.3,0.3-0.3,0.6c0,0.6,0,1.2,0,1.8
	c0.2,0,0.4,0,0.5,0c4.2,0,8.4,0,12.6,0c0.3,0,0.6,0,0.8,0.1c0.8,0.2,1.3,0.9,1.2,1.7c0,0.8-0.6,1.4-1.3,1.6c-0.3,0-0.5,0-0.8,0.1
	c-0.3,0-0.5,0-0.9,0c0.1,0.2,0.1,0.3,0.2,0.4c1.8,4.1,3.7,8.1,5.5,12.2c0.1,0.2,0.2,0.4,0.5,0.5c0.5,0.1,0.8,0.6,0.6,1.1
	c-0.4,0.8-0.8,1.7-1.3,2.5c-0.5,0.8-1.2,1-2.1,1c-3,0-6.1,0-9.1,0c-0.1,0-0.2,0-0.3,0c-0.8,0-1.5-0.4-1.9-1.1
	c-0.4-0.7-0.8-1.5-1.2-2.3c-0.3-0.6,0-1.1,0.6-1.2c0.1,0,0.3-0.1,0.3-0.2c1.9-4.2,3.8-8.4,5.7-12.6c0,0,0-0.1,0-0.2
	c-3.2,0-6.5,0-9.7,0c0,0.6,0,1.2,0,1.8c0,0.2,0,0.3,0,0.5c0,0.3-0.3,0.5-0.6,0.5c-0.2,0-0.4-0.2-0.6-0.4c-0.1-0.1-0.1-0.4-0.1-0.6
	c0-0.8,0-1.5,0-2.3c0-0.7,0.2-0.9,0.9-0.9c4.5,0,9,0,13.4,0c0.2,0,0.4,0,0.5-0.1c0.1-0.1,0.3-0.3,0.3-0.5c0-0.1-0.2-0.3-0.3-0.4
	c-0.1-0.1-0.3,0-0.4,0c-4.4,0-8.9,0-13.3,0c-0.9,0-1-0.2-1-1c0-0.6,0-1.2,0-1.9c-0.4,0-0.7,0-1.2,0c0,0.6,0,1.2,0,1.8
	c0,0.9-0.1,1.1-1,1.1c-4.4,0-8.8,0-13.2,0c-0.1,0-0.2,0-0.2,0c-0.5,0-0.7,0.1-0.7,0.5c0,0.4,0.4,0.4,0.7,0.4c4.5,0,9,0,13.4,0
	c0.9,0,1,0.1,1,1c0,7.5,0,15.1,0,22.6c0,0.2,0,0.3,0,0.5c0.4,0,0.8,0,1.2,0c0-0.2,0-0.3,0-0.5c0-5.6,0-11.2,0-16.9
	c0-0.2,0-0.4,0-0.5c0.1-0.3,0.3-0.5,0.6-0.4c0.3,0,0.5,0.2,0.5,0.5c0,0.2,0,0.3,0,0.5c0,5.6,0,11.2,0,16.8c0,0.2,0,0.3,0,0.5
	c0.2,0,0.3,0,0.5,0c1.2,0,2.5,0,3.7,0c1.4,0,2.2,0.8,2.2,2.2c0,0.3,0,0.5,0,0.8c0.3,0,0.6,0,0.9,0c1.3,0,2.1,0.8,2.1,2.1
	c0,0.4,0,0.8,0,1.3c0,0.4-0.1,0.7-0.4,0.9C44.6,61.9,37.4,61.9,30.2,61.9z M34,44.7c-1.9-4.2-3.8-8.4-5.7-12.6
	c-1.9,4.2-3.8,8.4-5.7,12.6C26.4,44.7,30.1,44.7,34,44.7z M53.7,32.1c-1.9,4.2-3.8,8.4-5.7,12.6c3.8,0,7.6,0,11.4,0
	C57.6,40.4,55.7,36.3,53.7,32.1z M31,60.7c6.7,0,13.3,0,19.9,0c0-0.2,0-0.5,0-0.7c0-0.9-0.2-1.1-1.1-1.1c-3.6,0-7.3,0-10.9,0
	c-0.2,0-0.4,0-0.5,0c-0.3-0.1-0.5-0.3-0.5-0.6c0-0.3,0.2-0.5,0.5-0.6c0.1,0,0.3,0,0.4,0c2.9,0,5.7,0,8.6,0c0.2,0,0.3,0,0.5,0
	c0-0.3,0-0.4,0-0.6c0-1.1-0.2-1.2-1.2-1.2c-3.7,0-7.5,0-11.2,0c-1.6,0-1.6,0.3-1.6,1.7c0,0,0,0.1,0.1,0.2c0.5,0,1,0,1.6,0
	c0.4,0,0.7,0.2,0.7,0.6c0,0.4-0.3,0.6-0.7,0.6c-0.1,0-0.2,0-0.3,0c-1.1,0-2.3,0-3.4,0c-0.5,0-0.8,0.2-0.9,0.7C31,60,31,60.3,31,60.7
	z M34.8,45.9c-4.4,0-8.7,0-13.1,0c0.2,0.4,0.4,0.8,0.6,1.2c0.3,0.7,0.8,0.9,1.5,0.9c2,0,4.1,0,6.1,0c1,0,2,0,2.9,0
	c0.5,0,0.9-0.2,1.1-0.6C34.3,47,34.5,46.5,34.8,45.9z M47.2,45.9c0.2,0.4,0.4,0.8,0.6,1.2c0.3,0.7,0.8,0.9,1.5,0.9c2.7,0,5.3,0,8,0
	c0.4,0,0.8,0.1,1.2,0c0.3-0.1,0.7-0.2,0.9-0.5c0.4-0.5,0.6-1.1,0.9-1.6C55.9,45.9,51.6,45.9,47.2,45.9z M41,25.4c1.1,0,2-0.9,2-2
	c0-1.1-0.9-2.1-2-2.1c-1.1,0-2.1,0.9-2,2.1C39,24.5,39.9,25.4,41,25.4z"/>
</svg>
