<?xml version="1.0" encoding="utf-8"?>
<!-- Generator: Adobe Illustrator 25.2.1, SVG Export Plug-In . SVG Version: 6.00 Build 0)  -->
<svg version="1.1" id="Camada_1" xmlns="http://www.w3.org/2000/svg" xmlns:xlink="http://www.w3.org/1999/xlink" x="0px" y="0px"
	 viewBox="0 0 50 50" style="enable-background:new 0 0 50 50;" xml:space="preserve">
<style type="text/css">
	.st0{fill:url(#SVGID_1_);}
	.st1{fill-rule:evenodd;clip-rule:evenodd;fill:#FFFFFF;}
	.st2{fill-rule:evenodd;clip-rule:evenodd;fill:url(#SVGID_2_);}
</style>
<g id="BPF_1_">
	<g>
		<radialGradient id="SVGID_1_" cx="25" cy="25" r="25" gradientTransform="matrix(1 0 0 -1 0 50)" gradientUnits="userSpaceOnUse">
			<stop  offset="0" style="stop-color:#73B62C"/>
			<stop  offset="0.7482" style="stop-color:#5FAC2F"/>
			<stop  offset="0.8381" style="stop-color:#269732"/>
			<stop  offset="0.9205" style="stop-color:#008933"/>
		</radialGradient>
		<circle class="st0" cx="25" cy="25" r="25"/>
	</g>
	<path class="st1" d="M7.4,16.9l-3.3-1.7L5,13.5l0.6,0.3l-0.5,1l0.6,0.3l0.5-1l0.7,0.3l-0.5,1l0.7,0.4l0.5-1l0.7,0.3L7.4,16.9
		L7.4,16.9z M8.4,14.8l0.5-0.7l-2.4-1.6l2.7,1.2l0.4-0.5l-2-2.1l2.3,1.7l0.5-0.7l-3-2.2l-0.7,1l1.1,1.2c0,0,0.1,0.1,0.2,0.2
		c0.2,0.1,0.3,0.3,0.4,0.4c-0.2-0.1-0.3-0.2-0.5-0.3c-0.2-0.1-0.2-0.1-0.3-0.1l-1.5-0.7l-0.7,1L8.4,14.8L8.4,14.8z M9.8,9.8
		C9.8,9.8,9.9,9.8,9.8,9.8C9.9,9.8,9.9,9.7,9.8,9.8c0.2-0.2,0.3-0.3,0.3-0.4c0-0.1-0.1-0.2-0.2-0.4C9.8,8.9,9.7,8.8,9.6,8.8
		C9.5,8.8,9.4,8.9,9.2,9l0,0L9.8,9.8L9.8,9.8z M10.6,11.9L8.1,9.2l0.6-0.6C9,8.4,9.1,8.3,9.2,8.2C9.4,8.1,9.5,8,9.6,8
		c0.2,0,0.3,0,0.5,0c0.2,0.1,0.3,0.2,0.5,0.4C10.8,8.7,11,9,10.9,9.2c0,0.3-0.2,0.5-0.4,0.8l-0.2,0.2l1,1L10.6,11.9L10.6,11.9z
		 M11.9,7.9C12,7.9,12,7.8,11.9,7.9C12,7.8,12,7.8,11.9,7.9c0.2-0.2,0.3-0.2,0.3-0.4c0-0.1,0-0.2-0.1-0.4C12.1,7,12,6.9,11.9,6.9
		c-0.1,0-0.2,0-0.4,0.1c0,0,0,0,0,0c0,0,0,0,0,0L11.9,7.9L11.9,7.9z M12.5,10.1l-2.1-3l0.8-0.6c0.2-0.2,0.5-0.3,0.6-0.4
		c0.1-0.1,0.2-0.1,0.4-0.1c0.1,0,0.2,0,0.4,0.1c0.1,0.1,0.2,0.2,0.3,0.3C12.9,6.7,13,6.9,13,7s0,0.3-0.1,0.5
		c0.3-0.1,0.6,0.1,0.8,0.4l0,0c0,0,0.1,0.1,0.1,0.2c0.2,0.3,0.5,0.5,0.6,0.5l-0.8,0.6c-0.1,0-0.1-0.1-0.2-0.2c0-0.1-0.1-0.1-0.2-0.2
		c0,0-0.1-0.1-0.1-0.2c0-0.1-0.1-0.1-0.1-0.1c-0.1-0.2-0.2-0.3-0.3-0.3c-0.1,0-0.2,0-0.3,0.1l-0.1,0.1l0.8,1.2L12.5,10.1L12.5,10.1z
		 M14.6,8.5l1.8-1L16,6.9l-1,0.6l-0.4-0.7l0.9-0.5l-0.4-0.6l-0.9,0.5l-0.3-0.6l1-0.6l-0.3-0.6l-1.8,1L14.6,8.5L14.6,8.5z M16.1,6.3
		L16.8,6l0,0.1C17,6.3,17,6.4,17.1,6.5c0.1,0.1,0.2,0.1,0.3,0c0.1,0,0.1-0.1,0.2-0.2c0-0.1,0-0.2,0-0.3c-0.1-0.2-0.2-0.3-0.5-0.3
		c0,0-0.1,0-0.1,0c0,0,0,0,0,0c-0.4-0.1-0.7-0.2-0.8-0.2c-0.1-0.1-0.2-0.1-0.2-0.2c-0.1-0.1-0.1-0.2-0.2-0.3c-0.1-0.3-0.1-0.6,0-0.8
		c0.1-0.2,0.3-0.4,0.6-0.5c0.3-0.1,0.6-0.1,0.9,0c0.2,0.1,0.4,0.3,0.5,0.6c0,0,0,0,0,0.1c0,0,0,0,0,0L17,4.5l0,0
		c-0.1-0.2-0.1-0.3-0.2-0.3s-0.2-0.1-0.2,0c-0.1,0-0.1,0.1-0.2,0.2c0,0.1,0,0.2,0,0.2c0,0.1,0.2,0.2,0.6,0.3c0.1,0,0.1,0,0.1,0
		c0,0,0.1,0,0.1,0c0.3,0.1,0.6,0.2,0.7,0.2C18,5.2,18,5.3,18.1,5.4c0.1,0.1,0.1,0.2,0.2,0.3c0.1,0.3,0.2,0.6,0,0.9
		C18.2,6.8,18,7,17.6,7.2c-0.3,0.1-0.6,0.2-0.9,0c-0.2-0.1-0.4-0.3-0.6-0.7c0,0,0,0,0-0.1C16.2,6.4,16.1,6.4,16.1,6.3L16.1,6.3z
		 M19.2,5l0.5-0.1L19,3.4L19.2,5L19.2,5z M18.6,6.6l0.8-0.3l-0.1-0.7L20,5.5l0.3,0.6l0.8-0.2l-1.8-3.3l-1,0.3L18.6,6.6L18.6,6.6z
		 M23.9,4.1l0.8-0.1c0,0,0,0,0,0.1s0,0.1,0,0.1c0,0.5,0,0.8-0.2,1c-0.2,0.2-0.5,0.4-0.9,0.4c-0.2,0-0.5,0-0.6-0.1
		c-0.2-0.1-0.3-0.2-0.4-0.3c-0.1-0.1-0.1-0.3-0.2-0.5c0-0.2-0.1-0.5-0.1-1c0-0.4,0-0.8,0-1c0-0.2,0-0.4,0.1-0.5
		c0.1-0.2,0.2-0.3,0.4-0.4c0.2-0.1,0.4-0.2,0.6-0.2c0.4,0,0.7,0.1,0.9,0.3s0.3,0.5,0.4,1v0l-0.8,0.1c0-0.2-0.1-0.4-0.1-0.5
		c-0.1-0.1-0.2-0.1-0.3-0.1c-0.1,0-0.2,0.1-0.3,0.2c0,0.1,0,0.5,0,1v0.1c0,0.6,0.1,0.9,0.2,1C23.4,5,23.5,5,23.6,5
		c0.1,0,0.2-0.1,0.2-0.2c0-0.1,0.1-0.3,0-0.5L23.9,4.1L23.9,4.1z M25.2,5.5l0.2-3.7l2,0.1l0,0.7l-1.1-0.1l0,0.7l1.1,0.1l0,0.7
		L26.2,4l0,0.8l1.1,0.1l0,0.8L25.2,5.5L25.2,5.5z M28.8,3.8C28.8,3.8,28.8,3.8,28.8,3.8C28.9,3.8,28.9,3.8,28.8,3.8
		c0.3,0.1,0.4,0.1,0.5,0c0.1,0,0.1-0.2,0.2-0.3c0-0.2,0-0.3,0-0.3C29.4,3,29.2,3,29.1,2.9c0,0,0,0,0,0c0,0,0,0,0,0L28.8,3.8
		L28.8,3.8z M27.5,5.7l0.8-3.6l1,0.2c0.3,0.1,0.5,0.1,0.7,0.2c0.1,0.1,0.3,0.1,0.3,0.2c0.1,0.1,0.1,0.2,0.2,0.4c0,0.1,0,0.3,0,0.5
		c0,0.2-0.1,0.4-0.2,0.5c-0.1,0.1-0.2,0.2-0.4,0.3C30,4.5,30,4.8,30,5.2c0,0,0,0,0,0c0,0,0,0.1,0,0.2c-0.1,0.4-0.1,0.7,0,0.8L29,6
		c0-0.1,0-0.2,0-0.2s0-0.2,0-0.3c0-0.1,0-0.1,0-0.2c0-0.1,0-0.1,0-0.2c0-0.2,0-0.4,0-0.5S29,4.5,28.8,4.5l-0.2,0l-0.3,1.5L27.5,5.7
		L27.5,5.7z M30.5,6.4l0.9-2.8l-0.7-0.2L31,2.7l2.2,0.7L33,4.1l-0.7-0.2l-0.9,2.8L30.5,6.4L30.5,6.4z M32.2,7L33,7.3l1.5-3.4
		l-0.8-0.3L32.2,7L32.2,7z M33.3,7.4l1.8-3.2l1.8,1l-0.3,0.6l-1-0.5l-0.3,0.6l0.9,0.5L35.8,7l-0.9-0.5l-0.8,1.4L33.3,7.4L33.3,7.4z
		 M35.3,8.5L36,9l2.1-3l-0.7-0.5L35.3,8.5L35.3,8.5z M38.4,9.1l-0.1,0.1c-0.2,0.2-0.3,0.3-0.4,0.3c-0.1,0-0.2,0-0.3-0.1
		c-0.1-0.1-0.1-0.2-0.1-0.3s0.3-0.4,0.6-0.9l0,0c0.3-0.4,0.6-0.6,0.7-0.7c0.1-0.1,0.2,0,0.3,0c0.1,0.1,0.1,0.2,0.1,0.3
		c0,0.1-0.1,0.3-0.3,0.5l0.6,0.5l0,0c0.3-0.3,0.4-0.7,0.4-1c0-0.3-0.2-0.6-0.5-0.8c-0.2-0.2-0.4-0.2-0.5-0.3c-0.2,0-0.4,0-0.5,0
		c-0.1,0-0.3,0.1-0.4,0.3c-0.2,0.1-0.4,0.4-0.7,0.7c-0.3,0.3-0.5,0.6-0.6,0.8c-0.1,0.2-0.2,0.3-0.2,0.5c0,0.2,0,0.4,0.1,0.5
		c0.1,0.2,0.2,0.3,0.4,0.5c0.3,0.2,0.6,0.4,0.9,0.3c0.3,0,0.6-0.2,0.9-0.6c0,0,0.1-0.1,0.1-0.1c0,0,0,0,0-0.1L38.4,9.1L38.4,9.1z
		 M39.9,10.6l1.3-1l-1,1.3L39.9,10.6L39.9,10.6z M38.2,10.8l3.2-2l0.7,0.7L40,12.7l-0.6-0.6l0.4-0.6L39.4,11l-0.6,0.4L38.2,10.8
		L38.2,10.8z M43,11.8l-1.9,1.4c0,0,0,0,0,0c0,0,0,0,0,0.1c0,0.1,0.1,0.1,0.2,0.2c0,0,0.1,0,0.2,0c0,0,0.1,0,0.2-0.1
		c0.1-0.1,0.3-0.2,0.6-0.4l0.1-0.1c0.3-0.2,0.4-0.3,0.5-0.4c0.1-0.1,0.1-0.1,0.1-0.2c0-0.1,0-0.1,0-0.2c0-0.1,0-0.1-0.1-0.2
		C43,11.8,43,11.8,43,11.8C43,11.8,43,11.8,43,11.8L43,11.8z M40.1,12.8l0.6,0.8c0.2,0.3,0.4,0.5,0.5,0.6c0.1,0.1,0.3,0.1,0.5,0.1
		c0.1,0,0.3,0,0.5-0.1c0.2-0.1,0.4-0.3,0.8-0.5c0.4-0.3,0.7-0.5,0.8-0.6c0.1-0.1,0.2-0.3,0.2-0.4c0.1-0.2,0.1-0.3,0-0.5
		c0-0.2-0.2-0.4-0.4-0.7L43,10.6L40.1,12.8L40.1,12.8z M43.2,15l0.2,0.4l1.3-1L43.2,15L43.2,15z M41.4,14.8l3.6-1l0.5,0.9L42.7,17
		l-0.4-0.8l0.6-0.4l-0.3-0.6l-0.7,0.2L41.4,14.8L41.4,14.8z M25,7.6c-9.5,0-17.2,7.7-17.2,17.2S15.5,42.1,25,42.1
		s17.2-7.7,17.2-17.3C42.2,15.3,34.5,7.6,25,7.6z"/>
	
		<radialGradient id="SVGID_2_" cx="25.8409" cy="25.1477" r="23.4156" gradientTransform="matrix(1 0 0 -1 0 50)" gradientUnits="userSpaceOnUse">
		<stop  offset="0" style="stop-color:#76B82A"/>
		<stop  offset="1" style="stop-color:#007632"/>
	</radialGradient>
	<path class="st2" d="M14.2,20.3L14.2,20.3L14.2,20.3L14.2,20.3z M25,41.4L25,41.4c9.1,0,16.5-7.4,16.5-16.5v-0.1
		c0-1.4-0.2-2.7-0.5-4h-4l-0.5,2.9h3.3c0.1,0,0.2,0,0.2,0c0.3,0,0.6,0.2,0.8,0.5c0.2,0.2,0.3,0.6,0.3,0.9c0,0.1,0,0.2,0,0.2
		c-0.1,0.4-0.3,0.8-0.7,1.1c-0.3,0.3-0.8,0.5-1.2,0.5H36l-0.5,3.4c-0.1,0.5-0.3,0.9-0.7,1.2c-0.3,0.3-0.8,0.5-1.2,0.5
		c-0.1,0-0.2,0-0.3,0c-0.3,0-0.6-0.2-0.9-0.5c-0.2-0.2-0.3-0.6-0.3-0.9c0-0.1,0-0.2,0-0.3L34,19.2c0.1-0.5,0.3-0.9,0.7-1.2
		c0.3-0.3,0.8-0.5,1.2-0.5c0,0,0,0,0.1,0s0,0,0,0c0,0,0,0,0,0c0,0,0,0,0.1,0h3.7c-2.7-5.5-8.3-9.2-14.8-9.2s-12.1,3.8-14.8,9.2
		c0.1,0,0.1,0,0.2,0h4.8c0.7,0,1.4,0.1,1.9,0.2c0.5,0.2,1,0.4,1.4,0.8l0,0c0.4,0.3,0.6,0.7,0.8,1.2c0.1,0.5,0.2,1,0.1,1.6
		c-0.1,0.4-0.1,0.7-0.3,1c-0.1,0.3-0.3,0.6-0.5,0.8c-0.2,0.2-0.4,0.5-0.7,0.6c-0.2,0.1-0.3,0.2-0.5,0.3c0.3,0.1,0.6,0.2,0.8,0.4
		c0.3,0.2,0.6,0.5,0.8,0.8l0,0c0.2,0.3,0.3,0.7,0.4,1.1s0.1,0.9,0,1.3c-0.1,0.7-0.3,1.3-0.6,1.9c-0.3,0.5-0.8,1-1.3,1.4l0,0
		c-0.4,0.3-0.8,0.5-1.2,0.7c-0.5,0.2-0.9,0.3-1.5,0.4c-0.1,0-0.2,0-0.2,0.1c-0.1,0-0.2,0-0.3,0h-4C12.9,37.6,18.5,41.4,25,41.4
		L25,41.4z M22.2,24.3h3.4h0h0.9c0.4,0,0.7,0,1-0.1c0.3-0.1,0.5-0.2,0.7-0.3s0.4-0.3,0.5-0.5c0.1-0.2,0.2-0.5,0.2-0.8s0-0.6,0-0.8
		s-0.1-0.4-0.3-0.5l0,0c-0.1-0.1-0.3-0.2-0.5-0.3c-0.2-0.1-0.5-0.1-0.7-0.1c0,0,0,0,0,0h0h-4.7c-0.1,0-0.2,0-0.2,0
		c-0.3,0-0.6-0.2-0.9-0.5c-0.2-0.2-0.3-0.6-0.3-0.9c0-0.1,0-0.2,0-0.2c0.1-0.5,0.3-0.9,0.7-1.2c0.3-0.3,0.8-0.5,1.2-0.5h5
		c0.8,0,1.5,0.1,2.2,0.3s1.2,0.6,1.6,1c0.4,0.5,0.7,1,0.8,1.6c0.1,0.6,0.2,1.3,0,2.1s-0.3,1.5-0.7,2.1c-0.3,0.6-0.8,1.1-1.3,1.6
		c-0.5,0.4-1.1,0.8-1.8,1c-0.7,0.2-1.4,0.3-2.2,0.3h-3.4L23,30.4c-0.1,0.5-0.3,0.9-0.7,1.2C22,31.8,21.5,32,21.1,32
		c-0.1,0-0.2,0-0.2,0c-0.3,0-0.6-0.2-0.9-0.5c-0.2-0.3-0.3-0.6-0.3-0.9c0-0.1,0-0.2,0-0.3l0.6-3.9c0,0,0-0.1,0-0.1c0,0,0-0.1,0-0.1
		s0-0.1,0-0.1s0-0.1,0-0.1c0.1-0.4,0.3-0.8,0.7-1.1C21.3,24.5,21.8,24.3,22.2,24.3L22.2,24.3z M14.2,20.3L14.2,20.3L14.2,20.3z
		 M14.2,20.3L14.2,20.3L14.2,20.3z M14.2,20.3L14.2,20.3L14.2,20.3z M14.2,20.3L14.2,20.3L14.2,20.3L14.2,20.3z M13.3,23.1
		C13.3,23.1,13.2,23.1,13.3,23.1h-2l0.4-2.5h2.5c0,0,0,0,0,0l0,0h0h0.1c0.2,0,0.5,0,0.6,0.1c0.2,0,0.3,0.1,0.4,0.2
		c0.1,0.1,0.2,0.2,0.2,0.4s0,0.3,0,0.5c0,0.2-0.1,0.4-0.2,0.5c-0.1,0.2-0.2,0.3-0.4,0.4S14.9,23,14.7,23c-0.2,0.1-0.4,0.1-0.6,0.1
		H13.3L13.3,23.1z M10.4,29.1l0.5-2.9h2c0,0,0,0,0,0h0.9c0.4,0,0.7,0,1,0.1c0.2,0.1,0.5,0.2,0.6,0.3l0,0c0.1,0.1,0.2,0.2,0.3,0.4
		c0,0.2,0.1,0.4,0,0.7c0,0.2-0.1,0.5-0.2,0.6c-0.1,0.2-0.3,0.3-0.5,0.5c-0.2,0.1-0.4,0.2-0.6,0.3c-0.2,0.1-0.5,0.1-0.8,0.1H10.4z"/>
	<path class="st1" d="M28.5,48.5l0-0.3c0.1,0,0.2,0,0.3,0c0.1,0,0.2,0,0.2,0c0.1,0,0.1,0,0.1-0.1c0,0,0-0.1,0-0.1c0,0,0-0.1-0.1-0.1
		c0,0-0.1,0-0.2,0c0,0,0,0,0,0c0,0,0,0,0,0l-0.1-0.4c-0.1,0-0.3,0-0.4,0c-0.2,0-0.3-0.2-0.5-0.3c-0.1-0.1-0.2-0.3-0.2-0.5
		c-0.1-0.2-0.1-0.5-0.2-1s-0.1-0.8-0.1-1s0-0.4,0.1-0.5c0.1-0.2,0.2-0.3,0.3-0.4c0.2-0.1,0.3-0.2,0.6-0.2c0.4-0.1,0.7,0,1,0.2
		c0.2,0.2,0.4,0.5,0.5,1v0l-0.8,0.1c0-0.2-0.1-0.4-0.2-0.5c-0.1-0.1-0.2-0.1-0.3-0.1c-0.1,0-0.2,0.1-0.2,0.2c0,0.1,0,0.5,0.1,1v0.1
		c0.1,0.6,0.2,0.9,0.2,1s0.2,0.2,0.3,0.1c0.1,0,0.2-0.1,0.2-0.2c0-0.1,0-0.3,0-0.5l0-0.2l0.8-0.1c0,0,0,0,0,0.1c0,0,0,0.1,0,0.1
		c0.1,0.5,0,0.8-0.1,1c-0.2,0.2-0.4,0.4-0.8,0.5l0,0.1c0.2,0,0.3,0,0.4,0c0.1,0.1,0.2,0.2,0.2,0.3c0,0.2,0,0.3-0.1,0.4
		c-0.1,0.1-0.2,0.2-0.4,0.2c-0.1,0-0.2,0-0.3,0C28.7,48.5,28.6,48.5,28.5,48.5L28.5,48.5z M30.3,43L30,43.1c0-0.2,0-0.3,0-0.5
		s0.1-0.2,0.3-0.2c0,0,0,0,0.1,0c0,0,0,0,0.1,0l0.3,0c0,0,0,0,0.1,0c0,0,0,0,0.1,0c0,0,0.1,0,0.1-0.1c0,0,0-0.1,0-0.2l0.2-0.1
		c0,0.2,0,0.3,0,0.5c0,0.1-0.1,0.2-0.3,0.2c0,0,0,0-0.1,0c0,0,0,0-0.1,0l-0.3,0c0,0,0,0,0,0c0,0,0,0,0,0c0,0-0.1,0-0.1,0.1
		C30.3,42.9,30.3,43,30.3,43L30.3,43z M35.7,43.8l0.7-0.4l0.1,0.1c0.1,0.2,0.2,0.3,0.3,0.3c0.1,0,0.2,0,0.3,0c0.1,0,0.1-0.1,0.1-0.2
		s0-0.2-0.1-0.2c-0.1-0.2-0.3-0.2-0.6-0.2c0,0-0.1,0-0.1,0c0,0,0,0,0,0c-0.4,0-0.7,0-0.8-0.1c-0.1,0-0.2-0.1-0.3-0.2
		S35,42.6,35,42.5c-0.2-0.3-0.2-0.5-0.2-0.8c0.1-0.2,0.2-0.5,0.5-0.6c0.3-0.2,0.6-0.2,0.8-0.2c0.3,0,0.5,0.2,0.7,0.5c0,0,0,0,0,0
		c0,0,0,0,0,0l-0.7,0.4l0,0c-0.1-0.1-0.2-0.2-0.2-0.3c-0.1,0-0.2,0-0.2,0c-0.1,0-0.1,0.1-0.1,0.2s0,0.2,0.1,0.2
		c0.1,0.1,0.3,0.2,0.6,0.2c0.1,0,0.1,0,0.1,0c0,0,0.1,0,0.1,0c0.4,0,0.6,0,0.8,0.1c0.1,0,0.2,0.1,0.2,0.2c0.1,0.1,0.2,0.2,0.2,0.3
		c0.2,0.3,0.3,0.6,0.2,0.9c0,0.3-0.2,0.5-0.5,0.7c-0.3,0.2-0.6,0.3-0.9,0.2c-0.3-0.1-0.5-0.2-0.7-0.6c0,0,0,0,0-0.1
		C35.7,43.9,35.7,43.8,35.7,43.8L35.7,43.8z M33.9,46l1.8-0.9l-0.3-0.7l-1,0.5L34,44.2l1-0.5l-0.3-0.7l-1,0.5L33.4,43l1-0.5
		l-0.3-0.6l-1.8,0.9L33.9,46L33.9,46z M31.9,45.1l-0.2-0.6c-0.1-0.4-0.2-0.6-0.3-0.7c-0.1-0.1-0.2-0.1-0.3,0c-0.1,0-0.2,0.1-0.2,0.2
		c0,0.1,0,0.4,0.2,0.8l0.2,0.6c0.1,0.4,0.2,0.6,0.3,0.7c0.1,0.1,0.2,0.1,0.3,0c0.1,0,0.2-0.1,0.2-0.2C32.1,45.7,32,45.5,31.9,45.1
		L31.9,45.1z M30.3,45.3c0.1,0.4,0.3,0.7,0.3,0.9c0.1,0.2,0.2,0.3,0.3,0.4c0.2,0.1,0.3,0.2,0.5,0.2c0.2,0,0.4,0,0.6-0.1
		c0.2-0.1,0.4-0.2,0.5-0.3c0.1-0.1,0.2-0.3,0.3-0.5c0-0.1,0-0.3,0-0.5c0-0.2-0.1-0.5-0.3-0.9c-0.1-0.4-0.2-0.7-0.3-0.9
		s-0.2-0.3-0.3-0.4c-0.2-0.1-0.3-0.2-0.5-0.2c-0.2,0-0.4,0-0.6,0.1c-0.2,0.1-0.4,0.2-0.5,0.3c-0.1,0.1-0.2,0.3-0.3,0.5
		c0,0.1,0,0.3,0,0.5C30.1,44.5,30.2,44.8,30.3,45.3L30.3,45.3z M25.6,46.4l0.5,0l-0.3-1.6L25.6,46.4L25.6,46.4z M24.7,47.8l0.6-3.7
		l1-0.1l1,3.6l-0.9,0L26.3,47l-0.7,0l-0.1,0.7L24.7,47.8L24.7,47.8z M22.9,45.5C23,45.5,23,45.5,22.9,45.5
		C23,45.5,23,45.5,22.9,45.5c0.3,0,0.4,0,0.5-0.1c0.1-0.1,0.1-0.2,0.2-0.3c0-0.2,0-0.3-0.1-0.3c-0.1-0.1-0.2-0.1-0.4-0.1
		c0,0,0,0,0,0c0,0,0,0,0,0L22.9,45.5L22.9,45.5z M21.8,47.5l0.4-3.7l1,0.1c0.3,0,0.5,0.1,0.7,0.1c0.1,0,0.2,0.1,0.3,0.2
		c0.1,0.1,0.2,0.2,0.2,0.3c0,0.1,0,0.3,0,0.5c0,0.2-0.1,0.4-0.2,0.5c-0.1,0.1-0.2,0.2-0.4,0.3c0.2,0.2,0.4,0.4,0.3,0.9c0,0,0,0,0,0
		c0,0,0,0.1,0,0.2c0,0.4,0,0.7,0.1,0.8l-1-0.1c0-0.1,0-0.2,0-0.3c0-0.1,0-0.2,0-0.3c0-0.1,0-0.1,0-0.2c0-0.1,0-0.1,0-0.2
		c0-0.2,0-0.4,0-0.5s-0.2-0.1-0.3-0.2l-0.2,0l-0.2,1.5L21.8,47.5L21.8,47.5z M20.2,47.2l0.8,0.2l0.8-3.6L21,43.6L20.2,47.2
		L20.2,47.2z M19,43.7l-0.7,2.2c0,0,0,0,0,0c0,0,0,0,0.1,0c0.1,0,0.2,0,0.2,0c0.1,0,0.1,0,0.2-0.1c0,0,0.1-0.1,0.1-0.2
		s0.1-0.4,0.2-0.7l0-0.2c0.1-0.3,0.2-0.5,0.2-0.6c0-0.1,0-0.2,0-0.2c0-0.1,0-0.1-0.1-0.2C19.2,43.8,19.1,43.8,19,43.7
		C19,43.8,19,43.7,19,43.7C19,43.7,19,43.7,19,43.7L19,43.7z M17.2,46.3l1.1-3.5l0.9,0.3c0.3,0.1,0.6,0.2,0.7,0.3s0.2,0.2,0.3,0.4
		c0,0.1,0,0.3,0,0.5c0,0.2-0.1,0.5-0.2,1c-0.2,0.5-0.3,0.8-0.4,0.9c-0.1,0.2-0.2,0.3-0.3,0.4c-0.1,0.1-0.3,0.2-0.5,0.2
		c-0.2,0-0.4,0-0.8-0.2L17.2,46.3L17.2,46.3z M14.4,45l0.7,0.3l0.3-0.5c0.1-0.2,0.2-0.5,0.4-0.8c0.1-0.3,0.2-0.5,0.3-0.8l-0.4,2.4
		l0.8,0.4l1.7-3.3l-0.7-0.3L17.1,43c-0.1,0.2-0.2,0.4-0.3,0.6c-0.1,0.2-0.2,0.6-0.4,0.9l0.4-2.3L16,41.8L14.4,45L14.4,45z
		 M12.9,44.2l2-3.1l0.7,0.5l-2,3.1L12.9,44.2L12.9,44.2z M11.3,41.5C11.2,41.6,11.2,41.6,11.3,41.5c-0.1,0.1-0.1,0.1-0.1,0.2
		c-0.2,0.3-0.3,0.6-0.3,0.8c0,0.3,0.2,0.5,0.5,0.8c0.3,0.2,0.6,0.3,0.8,0.3c0.3,0,0.5-0.2,0.8-0.5c0.1-0.1,0.1-0.2,0.2-0.3
		c0-0.1,0.1-0.2,0.1-0.3c0-0.2,0-0.4-0.2-0.7c0,0,0-0.1,0-0.1c0,0,0-0.1,0-0.1c-0.1-0.3-0.1-0.5,0-0.7c0.1-0.1,0.1-0.1,0.2-0.1
		c0.1,0,0.1,0,0.2,0c0.1,0.1,0.1,0.1,0.1,0.2c0,0.1-0.1,0.2-0.2,0.3l0,0l0.6,0.5c0,0,0,0,0,0c0,0,0,0,0,0c0.2-0.3,0.3-0.5,0.2-0.8
		c0-0.2-0.2-0.5-0.5-0.7C13.5,40,13.2,39.9,13,40c-0.2,0-0.5,0.2-0.7,0.4c-0.1,0.1-0.1,0.2-0.2,0.3S12,40.9,12,41
		c0,0.1,0.1,0.4,0.2,0.8c0,0,0,0,0,0c0,0,0,0.1,0,0.1c0.1,0.3,0.1,0.5,0,0.6c-0.1,0.1-0.1,0.1-0.2,0.2c-0.1,0-0.2,0-0.2,0
		c-0.1-0.1-0.1-0.2-0.1-0.3c0-0.1,0.1-0.2,0.2-0.4L12,42L11.3,41.5z"/>
</g>
</svg>
