<?xml version="1.0" encoding="utf-8"?>
<!-- Generator: Adobe Illustrator 25.2.1, SVG Export Plug-In . SVG Version: 6.00 Build 0)  -->
<svg version="1.1" id="Camada_1" xmlns="http://www.w3.org/2000/svg" xmlns:xlink="http://www.w3.org/1999/xlink" x="0px" y="0px"
	 viewBox="0 0 50 50" style="enable-background:new 0 0 50 50;" xml:space="preserve">
<style type="text/css">
	.st0{fill-rule:evenodd;clip-rule:evenodd;fill:url(#SVGID_1_);}
	.st1{fill-rule:evenodd;clip-rule:evenodd;fill:url(#SVGID_2_);}
	.st2{fill-rule:evenodd;clip-rule:evenodd;fill:url(#SVGID_3_);}
	.st3{fill-rule:evenodd;clip-rule:evenodd;}
	.st4{fill-rule:evenodd;clip-rule:evenodd;fill:url(#SVGID_4_);}
</style>
<g id="FDA_1_">
	
		<linearGradient id="SVGID_1_" gradientUnits="userSpaceOnUse" x1="8.4448" y1="41.5664" x2="47.2448" y2="2.7668" gradientTransform="matrix(1 0 0 -1 0 50)">
		<stop  offset="0" style="stop-color:#FCC000"/>
		<stop  offset="0.19" style="stop-color:#FFF08E"/>
		<stop  offset="0.2" style="stop-color:#FFF08E"/>
		<stop  offset="0.44" style="stop-color:#B55818"/>
		<stop  offset="0.66" style="stop-color:#F7A624"/>
		<stop  offset="1" style="stop-color:#FCC000"/>
	</linearGradient>
	<path class="st0" d="M32.6,47c-0.8,2-2.8,2.4-4.5,1.1c-1.6-1.4-4.3-1.3-5.9,0.1c-1.6,1.4-3.6,1-4.5-1s-3.3-3.1-5.3-2.5
		S8.9,44,8.9,41.9c0.1-2.1-1.6-4.2-3.7-4.5s-3-2.2-2-4.1c1-1.9,0.4-4.4-1.4-5.7c-1.7-1.3-1.8-3.3,0-4.6C3.5,21.7,4,19.1,3,17.3
		s-0.1-3.7,2-4.1c2.1-0.4,3.7-2.5,3.6-4.6c-0.1-2.1,1.5-3.4,3.6-2.9S16.6,5,17.4,3c0.8-2,2.8-2.5,4.5-1.1s4.3,1.3,5.9-0.1
		s3.6-1,4.5,1c0.9,1.9,3.3,3.1,5.3,2.5s3.7,0.7,3.6,2.8c-0.1,2.1,1.6,4.2,3.7,4.5c2.1,0.4,3,2.2,2,4.1c-1,1.9-0.4,4.4,1.4,5.7
		c1.7,1.3,1.8,3.3,0,4.6c-1.7,1.3-2.3,3.8-1.3,5.7c1,1.9,0.1,3.7-1.9,4.1s-3.7,2.5-3.6,4.6c0.1,2.1-1.5,3.4-3.6,2.9
		C35.8,43.9,33.5,45.1,32.6,47z"/>
	
		<linearGradient id="SVGID_2_" gradientUnits="userSpaceOnUse" x1="46.7563" y1="46.7449" x2="5.4935" y2="5.4821" gradientTransform="matrix(1 0 0 -1 0 50)">
		<stop  offset="0" style="stop-color:#FCBD30"/>
		<stop  offset="0.19" style="stop-color:#FFEF8E"/>
		<stop  offset="0.21" style="stop-color:#FFEF8E"/>
		<stop  offset="0.44" style="stop-color:#B35F16"/>
		<stop  offset="0.66" style="stop-color:#F7A53B"/>
		<stop  offset="1" style="stop-color:#FCBD30"/>
	</linearGradient>
	<path class="st1" d="M32.8,47.5c-0.8,2-2.9,2.5-4.6,1.1c-1.7-1.4-4.3-1.4-6,0.1c-1.6,1.4-3.7,1-4.6-1c-0.9-2-3.3-3.1-5.4-2.6
		c-2.1,0.6-3.8-0.7-3.7-2.9c0.1-2.2-1.6-4.3-3.8-4.6s-3.1-2.3-2.1-4.2s0.4-4.6-1.4-5.8c-1.8-1.3-1.8-3.4,0-4.7s2.3-3.9,1.3-5.9
		s-0.1-3.8,2-4.3c2.1-0.4,3.8-2.6,3.7-4.7c-0.1-2.2,1.5-3.5,3.6-3c2,0.5,4.5-0.6,5.3-2.6s2.9-2.5,4.6-1.1c1.7,1.4,4.3,1.4,6-0.1
		c1.6-1.4,3.7-1,4.6,1c0.9,2,3.3,3.1,5.4,2.6c2.1-0.6,3.8,0.7,3.7,2.9c-0.1,2.2,1.6,4.3,3.8,4.6c2.1,0.4,3.1,2.3,2.1,4.2
		c-1,1.9-0.4,4.6,1.4,5.8c1.8,1.3,1.8,3.4,0,4.7c-1.7,1.3-2.3,3.9-1.3,5.9c1,1.9,0.1,3.8-2,4.3c-2.1,0.4-3.8,2.6-3.7,4.7
		c0.1,2.2-1.5,3.5-3.6,3C36.1,44.4,33.7,45.5,32.8,47.5z"/>
	
		<linearGradient id="SVGID_3_" gradientUnits="userSpaceOnUse" x1="8.4449" y1="41.5665" x2="47.2447" y2="2.7667" gradientTransform="matrix(1 0 0 -1 0 50)">
		<stop  offset="0" style="stop-color:#FCBD30"/>
		<stop  offset="0.19" style="stop-color:#FFEF8E"/>
		<stop  offset="0.2" style="stop-color:#FFEF8E"/>
		<stop  offset="0.44" style="stop-color:#B35F16"/>
		<stop  offset="0.66" style="stop-color:#F7A53B"/>
		<stop  offset="1" style="stop-color:#FCBD30"/>
	</linearGradient>
	<path class="st2" d="M32.6,47c-0.8,2-2.8,2.4-4.5,1.1c-1.6-1.4-4.3-1.3-5.9,0.1c-1.6,1.4-3.6,1-4.5-1s-3.3-3.1-5.3-2.5
		S8.9,44,8.9,41.9c0.1-2.1-1.6-4.2-3.7-4.5s-3-2.2-2-4.1c1-1.9,0.4-4.4-1.4-5.7c-1.7-1.3-1.8-3.3,0-4.6C3.5,21.7,4,19.1,3,17.3
		s-0.1-3.7,2-4.1c2.1-0.4,3.7-2.5,3.6-4.6c-0.1-2.1,1.5-3.4,3.6-2.9S16.6,5,17.4,3c0.8-2,2.8-2.5,4.5-1.1s4.3,1.3,5.9-0.1
		s3.6-1,4.5,1c0.9,1.9,3.3,3.1,5.3,2.5s3.7,0.7,3.6,2.8c-0.1,2.1,1.6,4.2,3.7,4.5c2.1,0.4,3,2.2,2,4.1c-1,1.9-0.4,4.4,1.4,5.7
		c1.7,1.3,1.8,3.3,0,4.6c-1.7,1.3-2.3,3.8-1.3,5.7c1,1.9,0.1,3.7-1.9,4.1s-3.7,2.5-3.6,4.6c0.1,2.1-1.5,3.4-3.6,2.9
		C35.8,43.9,33.5,45.1,32.6,47z"/>
	<ellipse class="st3" cx="25" cy="25" rx="21.4" ry="21.4"/>
	
		<linearGradient id="SVGID_4_" gradientUnits="userSpaceOnUse" x1="10.6834" y1="39.3281" x2="46.2674" y2="3.7438" gradientTransform="matrix(1 0 0 -1 0 50)">
		<stop  offset="0" style="stop-color:#FCBD30"/>
		<stop  offset="0.19" style="stop-color:#FFEF8E"/>
		<stop  offset="0.22" style="stop-color:#FFEF8E"/>
		<stop  offset="0.66" style="stop-color:#FDC53D"/>
		<stop  offset="0.99" style="stop-color:#B35F16"/>
		<stop  offset="1" style="stop-color:#E1BF20"/>
	</linearGradient>
	<circle class="st4" cx="25" cy="25" r="18.4"/>
	<path class="st3" d="M21.4,11.2l-1-0.6l-1,0.6l0.3-1.1l-0.9-0.8l1.1-0.1l0.5-1l0.5,1L22,9.4l-0.9,0.8L21.4,11.2L21.4,11.2z
		 M31.7,38.7H18.8v-0.4h12.9L31.7,38.7L31.7,38.7z M29.8,40.2h-9.1v-0.4h9L29.8,40.2L29.8,40.2z M36.9,33.2h1.4
		c1.5,0,2.3-0.8,2.3-1.9l0,0c0-1.1-0.8-1.8-2.2-1.8h-1.4V33.2L36.9,33.2z M38.1,32.1v-1.6h0.2c0.6,0,1,0.2,1,0.8l0,0
		c0,0.5-0.4,0.8-1,0.8L38.1,32.1L38.1,32.1z M33.3,33.2h3.2v-1h-2v-0.4h1.8v-0.9h-1.8v-0.4h2v-1h-3.2L33.3,33.2L33.3,33.2z
		 M30.4,33.3h1.2l1.5-3.8h-1.4L31,31.6l-0.7-2.1h-1.4L30.4,33.3L30.4,33.3z M27,33.3c-1.2,0-2-0.9-2-2l0,0c0-1.1,0.9-2,2-2
		c1.2,0,2,0.9,2,2l0,0C29.1,32.4,28.2,33.3,27,33.3L27,33.3z M27,32.2c0.5,0,0.8-0.4,0.8-0.8l0,0c0-0.5-0.3-0.8-0.8-0.8
		c-0.5,0-0.8,0.4-0.8,0.8l0,0C26.2,31.8,26.5,32.2,27,32.2L27,32.2z M21.2,33.2h1.3v-1.1h0.3l0.7,1.1h1.4L24,31.9
		c0.5-0.2,0.8-0.6,0.8-1.1l0,0c0-0.4-0.1-0.7-0.3-0.9c-0.3-0.3-0.7-0.4-1.3-0.4h-1.8L21.2,33.2L21.2,33.2z M22.5,31.3v-0.7H23
		c0.3,0,0.5,0.1,0.5,0.4l0,0c0,0.2-0.2,0.4-0.5,0.4L22.5,31.3L22.5,31.3z M17.6,33.2h1.3v-1h0.4c1,0,1.7-0.5,1.7-1.4l0,0
		c0-0.9-0.7-1.3-1.7-1.3h-1.7V33.2L17.6,33.2z M18.8,31.3v-0.8h0.3c0.3,0,0.5,0.1,0.5,0.4l0,0c0,0.3-0.2,0.4-0.5,0.4L18.8,31.3
		L18.8,31.3z M13.9,33.2h1.3v-1h0.4c1,0,1.7-0.5,1.7-1.4l0,0c0-0.9-0.7-1.3-1.7-1.3h-1.7L13.9,33.2L13.9,33.2z M15.2,31.3v-0.8h0.3
		c0.3,0,0.5,0.1,0.5,0.4l0,0c0,0.3-0.2,0.4-0.5,0.4L15.2,31.3L15.2,31.3z M9.3,33.2h1.3l0.2-0.5h1.3l0.2,0.5h1.4l-1.6-3.8h-1.3
		L9.3,33.2L9.3,33.2z M11.2,31.8l0.3-0.9l0.3,0.9H11.2L11.2,31.8z M21.2,25.5h2.3l0,0c1.4-0.1,2.1-0.7,2.5-1.5
		c0.8-1.5,0.7-3,0.3-4.5c-0.4-1.4-1.6-2.1-3.8-2v0h-9.6v2.9h3.5v2.2h-3.5v5.1h-2.6V15.3h1.7h1h9.1c1.4,0,3.2,0.1,4.6,0.8
		c1.5,0.8,2.1,1.9,2.5,3.5c0.4,1.5,0.4,3-0.2,4.5c-0.2,0.5-0.4,1-0.7,1.5c-0.5,0.7-1.2,1.2-1.9,1.6c-1.1,0.6-1.8,0.6-3.1,0.6h-4.8
		v-7.3h2.7L21.2,25.5L21.2,25.5z M33.3,22.7L33.3,22.7l1.4-4.3l3.1,9.3h2.8l-4.6-12.4h-2.6l-4.6,12.5h2.8l0.9-2.8h3L35,22.7
		L33.3,22.7L33.3,22.7z M34.3,12.7l-1-0.6l-1,0.6l0.3-1.1l-0.9-0.8l1.1-0.1l0.5-1l0.5,1l1.1,0.1L34,11.6L34.3,12.7L34.3,12.7z
		 M30.1,11.2l-1-0.6l-1,0.6l0.3-1.1l-0.9-0.8l1.1-0.1l0.5-1l0.5,1l1.1,0.1l-0.9,0.8L30.1,11.2L30.1,11.2z M25.6,10.3l-1-0.6l-1,0.6
		l0.3-1.1L23,8.4l1.1-0.1l0.5-1l0.5,1l1.1,0.1l-0.9,0.8L25.6,10.3L25.6,10.3z M17.2,12.7l-1-0.6l-1,0.6l0.3-1.1l-0.9-0.8l1.1-0.1
		l0.5-1l0.5,1l1.1,0.1L17,11.6L17.2,12.7z"/>
</g>
</svg>
