<?xml version="1.0" encoding="utf-8"?>
<!-- Generator: Adobe Illustrator 25.2.1, SVG Export Plug-In . SVG Version: 6.00 Build 0)  -->
<svg version="1.1" id="Camada_1" xmlns="http://www.w3.org/2000/svg" xmlns:xlink="http://www.w3.org/1999/xlink" x="0px" y="0px"
	 viewBox="0 0 50 50" style="enable-background:new 0 0 50 50;" xml:space="preserve">
<style type="text/css">
	.st0{fill-rule:evenodd;clip-rule:evenodd;fill:#007B37;}
	.st1{fill-rule:evenodd;clip-rule:evenodd;fill:#FFFFFF;}
</style>
<g id="IBD_1_">
	<path class="st0" d="M4.3,0h41.5C48,0,50,1.9,50,4.2v41.5c0,2.3-1.9,4.2-4.2,4.2H4.3C2,50,0,48.1,0,45.8V4.2C0,1.9,2,0,4.3,0z"/>
	<path class="st1" d="M12,25.1V11.4H8.2v13.7C9.5,25.1,10.7,25.1,12,25.1L12,25.1z M11.3,42.9l0.3,1.1h1.2l-1.2-4.8H10L8.8,44H10
		l0.2-1.1H11.3L11.3,42.9z M10.3,42l0.2-0.9c0.1-0.3,0.1-0.7,0.2-1l0,0c0.1,0.3,0.1,0.7,0.2,1l0.2,0.9H10.3L10.3,42z M13.2,44h1.1
		v-1.6c0.1,0,0.2,0,0.3,0c0.6,0,1-0.2,1.4-0.5c0.3-0.3,0.4-0.7,0.4-1.2c0-0.5-0.2-0.9-0.5-1.2c-0.3-0.2-0.7-0.4-1.3-0.4
		c-0.6,0-1.1,0-1.4,0.1L13.2,44L13.2,44z M14.4,40.2c0,0,0.2,0,0.3,0c0.4,0,0.6,0.2,0.6,0.6c0,0.4-0.3,0.7-0.7,0.7
		c-0.1,0-0.2,0-0.2,0L14.4,40.2L14.4,40.2z M17,44h1.1v-1.8h0.2c0.3,0,0.5,0.1,0.6,0.7c0.1,0.6,0.2,1,0.3,1.1h1.1
		c-0.1-0.2-0.2-0.9-0.3-1.4c-0.1-0.4-0.2-0.7-0.5-0.9v0c0.3-0.1,0.7-0.6,0.7-1.2c0-0.5-0.1-0.8-0.4-1c-0.3-0.3-0.8-0.4-1.4-0.4
		c-0.6,0-1,0-1.3,0.1L17,44L17,44z M18.1,40.2c0,0,0.2,0,0.4,0c0.4,0,0.6,0.2,0.6,0.6c0,0.4-0.2,0.6-0.7,0.6h-0.3L18.1,40.2
		L18.1,40.2z M22.6,44.1c1.3,0,2.1-1,2.1-2.5c0-1.3-0.7-2.4-2-2.4c-1.3,0-2.1,1.1-2.1,2.5C20.6,43,21.3,44.1,22.6,44.1L22.6,44.1
		L22.6,44.1z M22.6,43.1c-0.5,0-0.9-0.6-0.9-1.5c0-0.8,0.3-1.5,0.9-1.5c0.5,0,0.9,0.6,0.9,1.5C23.5,42.5,23.2,43.1,22.6,43.1
		L22.6,43.1L22.6,43.1z M27.5,44l1.4-4.8h-1.2l-0.5,1.9c-0.1,0.5-0.2,1.1-0.3,1.7h0c-0.1-0.6-0.2-1.1-0.3-1.7l-0.5-1.9h-1.2l1.3,4.8
		H27.5L27.5,44z M31.2,42.9h-1.1L29.9,44h-1.2l1.2-4.8h1.5l1.3,4.8h-1.2L31.2,42.9L31.2,42.9z M30.3,42h0.8l-0.2-0.9
		c-0.1-0.3-0.1-0.7-0.2-1h0c-0.1,0.3-0.1,0.7-0.2,1L30.3,42L30.3,42z M33.2,44c0.2,0,0.6,0.1,1.1,0.1c0.8,0,1.5-0.2,2-0.6
		c0.4-0.4,0.7-1,0.7-2c0-0.9-0.3-1.5-0.8-1.8c-0.4-0.3-0.9-0.5-1.7-0.5c-0.5,0-1,0-1.3,0.1L33.2,44L33.2,44z M34.4,40.2
		c0,0,0.2,0,0.3,0c0.7,0,1.2,0.4,1.2,1.4c0,1.1-0.5,1.5-1.3,1.5c-0.1,0-0.2,0-0.2,0V40.2L34.4,40.2z M39.5,44.1c1.3,0,2.1-1,2.1-2.5
		c0-1.3-0.7-2.4-2-2.4c-1.3,0-2.1,1.1-2.1,2.5C37.5,43,38.2,44.1,39.5,44.1L39.5,44.1L39.5,44.1z M39.5,43.1c-0.5,0-0.9-0.6-0.9-1.5
		c0-0.8,0.3-1.5,0.9-1.5c0.5,0,0.9,0.6,0.9,1.5C40.4,42.5,40.1,43.1,39.5,43.1L39.5,43.1L39.5,43.1z M13.7,31.4v4.8h1.1v-4.8H13.7
		L13.7,31.4z M16.6,36.2V35c0-0.8,0-1.5,0-2.1h0c0.2,0.6,0.5,1.2,0.7,1.7l0.7,1.6h1.2v-4.8h-1v1.1c0,0.7,0,1.4,0.1,2h0
		c-0.2-0.6-0.4-1.2-0.7-1.7l-0.7-1.5h-1.3v4.8L16.6,36.2L16.6,36.2z M19.8,36c0.2,0.1,0.7,0.3,1.2,0.3c1.2,0,1.8-0.7,1.8-1.5
		c0-0.7-0.3-1.1-1.1-1.4C21.2,33.1,21,33,21,32.7c0-0.2,0.2-0.4,0.5-0.4c0.4,0,0.7,0.1,0.9,0.2l0.2-1c-0.3-0.1-0.6-0.3-1.1-0.3
		c-1,0-1.7,0.7-1.7,1.5c0,0.7,0.5,1.2,1.2,1.4c0.5,0.2,0.7,0.3,0.7,0.5c0,0.3-0.2,0.4-0.6,0.4c-0.4,0-0.8-0.2-1.1-0.3L19.8,36
		L19.8,36z M23.5,31.4V34c0,1.5,0.6,2.2,1.8,2.2c1.2,0,1.8-0.8,1.8-2.2v-2.6h-1.1v2.7c0,0.8-0.2,1.1-0.7,1.1s-0.7-0.4-0.7-1.1v-2.7
		L23.5,31.4L23.5,31.4z M31.4,36.2h1.1l-0.2-4.8h-1.5l-0.3,1.3c-0.1,0.5-0.2,1.2-0.4,1.8h0c-0.1-0.6-0.2-1.2-0.3-1.8l-0.3-1.3H28
		l-0.2,4.8h1l0.1-1.7c0-0.5,0-1.2,0.1-1.9h0c0.1,0.7,0.2,1.4,0.3,1.9l0.3,1.7h0.9l0.4-1.7c0.1-0.5,0.3-1.2,0.4-1.9h0
		c0,0.8,0,1.4,0,1.9L31.4,36.2L31.4,36.2z M35,36.3c1.3,0,2.1-1,2.1-2.5c0-1.3-0.7-2.4-2-2.4c-1.3,0-2.1,1.1-2.1,2.5
		C33,35.2,33.7,36.3,35,36.3L35,36.3L35,36.3z M35,35.2c-0.5,0-0.9-0.6-0.9-1.5c0-0.8,0.3-1.5,0.9-1.5c0.5,0,0.9,0.6,0.9,1.5
		C35.9,34.7,35.6,35.2,35,35.2L35,35.2L35,35.2z M26,18.8c-0.4-0.4-0.9-0.9-2-1.1c1.9-0.6,2.8-2.4,2-4.1c-0.3-0.7-0.9-1.2-1.6-1.5
		c-2.1-1.1-7-0.8-9.3-0.4v13.5c0.7,0.1,1.7,0.2,3.2,0.2c2.2,0,5.1,0,6.9-1.2C26.8,22.9,27.4,20.3,26,18.8L26,18.8z M22.5,15.2
		c-0.1,1.5-2.3,1.5-3.4,1.5V14C20.2,14,22.4,13.8,22.5,15.2L22.5,15.2z M22.8,20.8c-0.1,1.7-2.3,1.8-3.7,1.6v-3.2
		C20.4,19.2,22.7,19.1,22.8,20.8L22.8,20.8z M37.5,16.3c0.4,0.9,0.4,2.2,0.1,3.2c-0.6,2.3-3.1,3.1-5.6,2.9v-8
		C34,13.9,36.7,14.2,37.5,16.3L37.5,16.3z M28.2,25.1c0.8,0.1,2.1,0.2,3.9,0.2h0.2h0.2c3,0,5.4-0.7,7-1.9c0.9-0.7,1.7-1.6,2.1-2.9
		c0.4-1.2,0.5-2.7,0.3-4c-0.3-1.7-1.2-2.9-2.4-3.8c-2-1.3-4.3-1.4-6.6-1.5c-1.7,0-3.4,0.1-4.6,0.3L28.2,25.1L28.2,25.1z"/>
</g>
</svg>
