<?xml version="1.0" encoding="utf-8"?>
<!-- Generator: Adobe Illustrator 25.2.1, SVG Export Plug-In . SVG Version: 6.00 Build 0)  -->
<svg version="1.1" id="Camada_1" xmlns="http://www.w3.org/2000/svg" xmlns:xlink="http://www.w3.org/1999/xlink" x="0px" y="0px"
	 viewBox="0 0 50 50" style="enable-background:new 0 0 50 50;" xml:space="preserve">
<style type="text/css">
	.st0{clip-path:url(#SVGID_2_);fill:#FFFFFF;}
	.st1{clip-path:url(#SVGID_4_);fill:#E64417;}
	.st2{clip-path:url(#SVGID_6_);fill:#E64417;}
	.st3{clip-path:url(#SVGID_8_);}
	.st4{clip-path:url(#SVGID_10_);fill:#FFFFFF;}
	.st5{clip-path:url(#SVGID_12_);fill:#E64417;}
	.st6{clip-path:url(#SVGID_14_);fill:#E64417;}
	.st7{clip-path:url(#SVGID_16_);fill:#E64417;}
	.st8{clip-path:url(#SVGID_18_);fill:#E64417;}
	.st9{clip-path:url(#SVGID_20_);fill:#E64417;}
	.st10{clip-path:url(#SVGID_22_);fill:#E64417;}
	.st11{clip-path:url(#SVGID_24_);fill:#E64417;}
	.st12{clip-path:url(#SVGID_26_);fill:#E64417;}
	.st13{clip-path:url(#SVGID_28_);fill:#E64417;}
	.st14{clip-path:url(#SVGID_30_);fill:#E64417;}
	.st15{clip-path:url(#SVGID_32_);fill:#E64417;}
	.st16{clip-path:url(#SVGID_34_);fill:#E64417;}
	.st17{clip-path:url(#SVGID_36_);fill:#E64417;}
	.st18{clip-path:url(#SVGID_38_);fill:#E64417;}
	.st19{clip-path:url(#SVGID_40_);fill:#E64417;}
	.st20{clip-path:url(#SVGID_42_);fill:#E64417;}
	.st21{clip-path:url(#SVGID_44_);fill:#010202;}
	.st22{clip-path:url(#SVGID_46_);fill:#010202;}
	.st23{clip-path:url(#SVGID_48_);fill:#010202;}
	.st24{clip-path:url(#SVGID_50_);fill:#010202;}
	.st25{clip-path:url(#SVGID_52_);fill:#010202;}
	.st26{clip-path:url(#SVGID_54_);fill:#010202;}
	.st27{clip-path:url(#SVGID_56_);fill:#010202;}
	.st28{clip-path:url(#SVGID_58_);fill:#E74519;}
	.st29{clip-path:url(#SVGID_60_);fill:#FFFFFF;}
	.st30{clip-path:url(#SVGID_62_);fill:#E74519;}
	.st31{clip-path:url(#SVGID_64_);fill:#FFFFFF;}
	.st32{clip-path:url(#SVGID_66_);fill:#E74519;}
	.st33{clip-path:url(#SVGID_68_);fill:#FFFFFF;}
	.st34{clip-path:url(#SVGID_70_);fill:#010202;}
	.st35{clip-path:url(#SVGID_72_);fill:#010202;}
	.st36{clip-path:url(#SVGID_74_);fill:#010202;}
	.st37{clip-path:url(#SVGID_76_);fill:#010202;}
	.st38{clip-path:url(#SVGID_78_);fill:#010202;}
	.st39{clip-path:url(#SVGID_80_);fill:#010202;}
	.st40{clip-path:url(#SVGID_82_);fill:#010202;}
	.st41{clip-path:url(#SVGID_84_);fill:#010202;}
	.st42{clip-path:url(#SVGID_86_);fill:#010202;}
	.st43{clip-path:url(#SVGID_88_);fill:#010202;}
	.st44{clip-path:url(#SVGID_90_);fill:#010202;}
	.st45{clip-path:url(#SVGID_92_);fill:#010202;}
	.st46{clip-path:url(#SVGID_94_);fill:#010202;}
</style>
<g>
	<g>
		<g>
			<defs>
				<rect id="SVGID_1_" x="4.5" y="-2.7" width="41" height="55.4"/>
			</defs>
			<clipPath id="SVGID_2_">
				<use xlink:href="#SVGID_1_"  style="overflow:visible;"/>
			</clipPath>
			<rect x="7.9" y="0.6" class="st0" width="34.2" height="43.4"/>
		</g>
		<g>
			<defs>
				<rect id="SVGID_3_" x="4.5" y="-2.7" width="41" height="55.4"/>
			</defs>
			<clipPath id="SVGID_4_">
				<use xlink:href="#SVGID_3_"  style="overflow:visible;"/>
			</clipPath>
			<path class="st1" d="M42.5,44.3H7.6V0.2h34.9V44.3z M8.2,43.7h33.5V1H8.2V43.7z"/>
		</g>
		<g>
			<defs>
				<rect id="SVGID_5_" x="4.5" y="-2.7" width="41" height="55.4"/>
			</defs>
			<clipPath id="SVGID_6_">
				<use xlink:href="#SVGID_5_"  style="overflow:visible;"/>
			</clipPath>
			<rect x="7.9" y="0.6" class="st2" width="34.2" height="31.5"/>
		</g>
		<g>
			<defs>
				<rect id="SVGID_7_" x="4.5" y="-2.7" width="41" height="55.4"/>
			</defs>
			<clipPath id="SVGID_8_">
				<use xlink:href="#SVGID_7_"  style="overflow:visible;"/>
			</clipPath>
			<g class="st3">
				<g>
					<defs>
						<rect id="SVGID_9_" x="4.5" y="-2.7" width="41" height="55.4"/>
					</defs>
					<clipPath id="SVGID_10_">
						<use xlink:href="#SVGID_9_"  style="overflow:visible;"/>
					</clipPath>
					<path class="st4" d="M34.9,16.4c0-1.5-0.3-3-0.9-4.3s-1.4-2.5-2.4-3.6c-1-1-2.2-1.8-3.6-2.4c-1.4-0.6-2.8-0.9-4.4-0.9
						c-1.5,0-3,0.3-4.3,0.9s-2.6,1.4-3.6,2.4S14,10.6,13.3,12c-0.6,1.4-0.9,2.8-0.9,4.3c0,0.9,0.1,1.8,0.3,2.7
						c0.2,0.9,0.5,1.7,1,2.5c0.4,0.8,0.9,1.6,1.5,2.2c0.6,0.7,1.3,1.3,2.1,1.8c1,0.6,2,1.1,3.1,1.4c1.1,0.3,2.2,0.5,3.4,0.5
						c1,0,1.9-0.1,2.9-0.4c1-0.2,1.9-0.6,2.7-1.1l0.5,0.8h5.4L33,22.6c0.6-0.9,1.1-1.9,1.4-3C34.8,18.6,34.9,17.5,34.9,16.4
						 M28.6,19.6h-2.6l0.9,1.8c-0.5,0.3-1,0.6-1.5,0.7c-0.5,0.2-1.1,0.2-1.6,0.2c-0.8,0-1.6-0.2-2.3-0.5c-0.7-0.3-1.3-0.7-1.8-1.2
						c-0.5-0.5-0.9-1.1-1.2-1.8c-0.3-0.7-0.4-1.4-0.4-2.2c0-0.8,0.1-1.5,0.4-2.2c0.3-0.7,0.7-1.3,1.2-1.8c0.5-0.5,1.1-0.9,1.8-1.2
						s1.4-0.5,2.2-0.5c0.8,0,1.5,0.2,2.2,0.5c0.7,0.3,1.3,0.7,1.8,1.2c0.5,0.5,0.9,1.1,1.2,1.8c0.3,0.7,0.4,1.4,0.4,2.2
						C29.4,17.6,29.2,18.6,28.6,19.6"/>
				</g>
				<g>
					<defs>
						<rect id="SVGID_11_" x="4.5" y="-2.7" width="41" height="55.4"/>
					</defs>
					<clipPath id="SVGID_12_">
						<use xlink:href="#SVGID_11_"  style="overflow:visible;"/>
					</clipPath>
					<path class="st5" d="M11.8,35.2c0,0.2,0,0.3-0.1,0.4s-0.2,0.2-0.3,0.3c-0.1,0.1-0.3,0.1-0.5,0.1c-0.3,0-0.5-0.1-0.7-0.3
						c-0.2-0.2-0.2-0.5-0.2-0.8v-0.1c0-0.2,0-0.4,0.1-0.6s0.2-0.3,0.3-0.4c0.1-0.1,0.3-0.1,0.5-0.1c0.3,0,0.5,0.1,0.6,0.2
						c0.2,0.1,0.2,0.3,0.3,0.6h-0.5c0-0.1,0-0.2-0.1-0.3c-0.1-0.1-0.2-0.1-0.3-0.1c-0.1,0-0.2,0-0.3,0.1c-0.1,0.1-0.1,0.2-0.1,0.5
						v0.2c0,0.2,0,0.4,0.1,0.5c0.1,0.1,0.2,0.2,0.3,0.2c0.1,0,0.2,0,0.3-0.1c0.1,0,0.1-0.1,0.1-0.3L11.8,35.2L11.8,35.2z"/>
				</g>
				<g>
					<defs>
						<rect id="SVGID_13_" x="4.5" y="-2.7" width="41" height="55.4"/>
					</defs>
					<clipPath id="SVGID_14_">
						<use xlink:href="#SVGID_13_"  style="overflow:visible;"/>
					</clipPath>
					<polygon class="st6" points="13.4,35 12.6,35 12.6,35.5 13.6,35.5 13.6,35.9 12.1,35.9 12.1,33.7 13.6,33.7 13.6,34.1 
						12.6,34.1 12.6,34.6 13.4,34.6 					"/>
				</g>
				<g>
					<defs>
						<rect id="SVGID_15_" x="4.5" y="-2.7" width="41" height="55.4"/>
					</defs>
					<clipPath id="SVGID_16_">
						<use xlink:href="#SVGID_15_"  style="overflow:visible;"/>
					</clipPath>
					<path class="st7" d="M14.6,35.1h-0.3v0.8h-0.5v-2.2h0.9c0.2,0,0.5,0.1,0.6,0.2c0.1,0.1,0.2,0.3,0.2,0.5c0,0.2,0,0.3-0.1,0.4
						c-0.1,0.1-0.2,0.2-0.3,0.2l0.5,0.9v0H15L14.6,35.1z M14.3,34.7h0.3c0.1,0,0.2,0,0.2-0.1c0,0,0.1-0.1,0.1-0.2
						c0-0.1,0-0.2-0.1-0.2c0,0-0.1-0.1-0.2-0.1h-0.3C14.3,34.1,14.3,34.7,14.3,34.7z"/>
				</g>
				<g>
					<defs>
						<rect id="SVGID_17_" x="4.5" y="-2.7" width="41" height="55.4"/>
					</defs>
					<clipPath id="SVGID_18_">
						<use xlink:href="#SVGID_17_"  style="overflow:visible;"/>
					</clipPath>
					<polygon class="st8" points="17.5,34.1 16.8,34.1 16.8,35.9 16.3,35.9 16.3,34.1 15.7,34.1 15.7,33.7 17.5,33.7 					"/>
				</g>
				<g>
					<defs>
						<rect id="SVGID_19_" x="4.5" y="-2.7" width="41" height="55.4"/>
					</defs>
					<clipPath id="SVGID_20_">
						<use xlink:href="#SVGID_19_"  style="overflow:visible;"/>
					</clipPath>
					<rect x="17.8" y="33.7" class="st9" width="0.5" height="2.2"/>
				</g>
				<g>
					<defs>
						<rect id="SVGID_21_" x="4.5" y="-2.7" width="41" height="55.4"/>
					</defs>
					<clipPath id="SVGID_22_">
						<use xlink:href="#SVGID_21_"  style="overflow:visible;"/>
					</clipPath>
					<polygon class="st10" points="20,35 19.2,35 19.2,35.9 18.6,35.9 18.6,33.7 20.1,33.7 20.1,34.1 19.2,34.1 19.2,34.6 20,34.6 
											"/>
				</g>
				<g>
					<defs>
						<rect id="SVGID_23_" x="4.5" y="-2.7" width="41" height="55.4"/>
					</defs>
					<clipPath id="SVGID_24_">
						<use xlink:href="#SVGID_23_"  style="overflow:visible;"/>
					</clipPath>
					<rect x="20.3" y="33.7" class="st11" width="0.5" height="2.2"/>
				</g>
				<g>
					<defs>
						<rect id="SVGID_25_" x="4.5" y="-2.7" width="41" height="55.4"/>
					</defs>
					<clipPath id="SVGID_26_">
						<use xlink:href="#SVGID_25_"  style="overflow:visible;"/>
					</clipPath>
					<polygon class="st12" points="22.6,35 21.8,35 21.8,35.5 22.7,35.5 22.7,35.9 21.2,35.9 21.2,33.7 22.7,33.7 22.7,34.1 
						21.8,34.1 21.8,34.6 22.6,34.6 					"/>
				</g>
				<g>
					<defs>
						<rect id="SVGID_27_" x="4.5" y="-2.7" width="41" height="55.4"/>
					</defs>
					<clipPath id="SVGID_28_">
						<use xlink:href="#SVGID_27_"  style="overflow:visible;"/>
					</clipPath>
					<path class="st13" d="M23,35.9v-2.2h0.7c0.2,0,0.4,0,0.5,0.1c0.2,0.1,0.3,0.2,0.4,0.4c0.1,0.2,0.1,0.3,0.1,0.5v0.1
						c0,0.2,0,0.4-0.1,0.5c-0.1,0.2-0.2,0.3-0.4,0.4s-0.3,0.1-0.5,0.1H23z M23.5,34.1v1.4h0.2c0.2,0,0.3,0,0.3-0.2
						c0.1-0.1,0.1-0.3,0.1-0.5v-0.1c0-0.2,0-0.4-0.1-0.5c-0.1-0.1-0.2-0.2-0.4-0.2H23.5z"/>
				</g>
				<g>
					<defs>
						<rect id="SVGID_29_" x="4.5" y="-2.7" width="41" height="55.4"/>
					</defs>
					<clipPath id="SVGID_30_">
						<use xlink:href="#SVGID_29_"  style="overflow:visible;"/>
					</clipPath>
					<path class="st14" d="M27.4,35.2c0,0.2,0,0.3-0.1,0.4s-0.2,0.2-0.3,0.3c-0.1,0.1-0.3,0.1-0.5,0.1c-0.3,0-0.5-0.1-0.7-0.3
						c-0.2-0.2-0.2-0.5-0.2-0.8v-0.1c0-0.2,0-0.4,0.1-0.6c0.1-0.2,0.2-0.3,0.3-0.4c0.1-0.1,0.3-0.1,0.5-0.1c0.3,0,0.5,0.1,0.6,0.2
						c0.2,0.1,0.2,0.3,0.3,0.6h-0.5c0-0.1,0-0.2-0.1-0.3c-0.1-0.1-0.2-0.1-0.3-0.1c-0.1,0-0.2,0-0.3,0.1c-0.1,0.1-0.1,0.2-0.1,0.5
						v0.2c0,0.2,0,0.4,0.1,0.5c0.1,0.1,0.2,0.2,0.3,0.2c0.1,0,0.2,0,0.3-0.1c0.1,0,0.1-0.1,0.1-0.3L27.4,35.2L27.4,35.2z"/>
				</g>
				<g>
					<defs>
						<rect id="SVGID_31_" x="4.5" y="-2.7" width="41" height="55.4"/>
					</defs>
					<clipPath id="SVGID_32_">
						<use xlink:href="#SVGID_31_"  style="overflow:visible;"/>
					</clipPath>
					<path class="st15" d="M29.5,34.9c0,0.2,0,0.4-0.1,0.6c-0.1,0.2-0.2,0.3-0.3,0.4c-0.1,0.1-0.3,0.1-0.5,0.1s-0.3,0-0.5-0.1
						c-0.1-0.1-0.2-0.2-0.3-0.4c-0.1-0.2-0.1-0.3-0.1-0.5v-0.1c0-0.2,0-0.4,0.1-0.6c0.1-0.2,0.2-0.3,0.3-0.4
						c0.1-0.1,0.3-0.1,0.5-0.1c0.2,0,0.3,0,0.5,0.1c0.1,0.1,0.2,0.2,0.3,0.4C29.5,34.4,29.5,34.6,29.5,34.9L29.5,34.9L29.5,34.9z
						 M29,34.8c0-0.2,0-0.4-0.1-0.5c-0.1-0.1-0.2-0.2-0.3-0.2c-0.3,0-0.4,0.2-0.4,0.6v0.2c0,0.2,0,0.4,0.1,0.5
						c0.1,0.1,0.2,0.2,0.3,0.2c0.1,0,0.2,0,0.3-0.2c0.1-0.1,0.1-0.3,0.1-0.5L29,34.8L29,34.8z"/>
				</g>
				<g>
					<defs>
						<rect id="SVGID_33_" x="4.5" y="-2.7" width="41" height="55.4"/>
					</defs>
					<clipPath id="SVGID_34_">
						<use xlink:href="#SVGID_33_"  style="overflow:visible;"/>
					</clipPath>
					<polygon class="st16" points="30.5,33.7 31,35.2 31.5,33.7 32.1,33.7 32.1,35.9 31.6,35.9 31.6,35.4 31.7,34.4 31.1,35.9 
						30.8,35.9 30.3,34.4 30.3,35.4 30.3,35.9 29.8,35.9 29.8,33.7 					"/>
				</g>
				<g>
					<defs>
						<rect id="SVGID_35_" x="4.5" y="-2.7" width="41" height="55.4"/>
					</defs>
					<clipPath id="SVGID_36_">
						<use xlink:href="#SVGID_35_"  style="overflow:visible;"/>
					</clipPath>
					<path class="st17" d="M33,35.2v0.7h-0.5v-2.2h0.9c0.2,0,0.3,0,0.4,0.1c0.1,0.1,0.2,0.2,0.3,0.3s0.1,0.2,0.1,0.4
						c0,0.2-0.1,0.4-0.2,0.5c-0.2,0.1-0.4,0.2-0.6,0.2L33,35.2L33,35.2z M33,34.8h0.3c0.1,0,0.2,0,0.2-0.1c0,0,0.1-0.1,0.1-0.2
						c0-0.1,0-0.2-0.1-0.2c0-0.1-0.1-0.1-0.2-0.1H33V34.8z"/>
				</g>
				<g>
					<defs>
						<rect id="SVGID_37_" x="4.5" y="-2.7" width="41" height="55.4"/>
					</defs>
					<clipPath id="SVGID_38_">
						<use xlink:href="#SVGID_37_"  style="overflow:visible;"/>
					</clipPath>
					<path class="st18" d="M35.7,35.5H35l-0.1,0.4h-0.5l0.8-2.2h0.5l0.8,2.2h-0.6L35.7,35.5z M35.1,35.1h0.5l-0.2-0.7L35.1,35.1z"/>
				</g>
				<g>
					<defs>
						<rect id="SVGID_39_" x="4.5" y="-2.7" width="41" height="55.4"/>
					</defs>
					<clipPath id="SVGID_40_">
						<use xlink:href="#SVGID_39_"  style="overflow:visible;"/>
					</clipPath>
					<polygon class="st19" points="38.4,35.9 37.9,35.9 37.1,34.6 37.1,35.9 36.6,35.9 36.6,33.7 37.1,33.7 37.9,35.1 37.9,33.7 
						38.4,33.7 					"/>
				</g>
				<g>
					<defs>
						<rect id="SVGID_41_" x="4.5" y="-2.7" width="41" height="55.4"/>
					</defs>
					<clipPath id="SVGID_42_">
						<use xlink:href="#SVGID_41_"  style="overflow:visible;"/>
					</clipPath>
					<polygon class="st20" points="39.5,34.7 39.9,33.7 40.5,33.7 39.8,35.1 39.8,35.9 39.2,35.9 39.2,35.1 38.5,33.7 39.1,33.7 
											"/>
				</g>
				<g>
					<defs>
						<rect id="SVGID_43_" x="4.5" y="-2.7" width="41" height="55.4"/>
					</defs>
					<clipPath id="SVGID_44_">
						<use xlink:href="#SVGID_43_"  style="overflow:visible;"/>
					</clipPath>
					<rect x="15.7" y="37.9" class="st21" width="0.8" height="3.3"/>
				</g>
				<g>
					<defs>
						<rect id="SVGID_45_" x="4.5" y="-2.7" width="41" height="55.4"/>
					</defs>
					<clipPath id="SVGID_46_">
						<use xlink:href="#SVGID_45_"  style="overflow:visible;"/>
					</clipPath>
					<path class="st22" d="M18.7,40.3c0-0.1,0-0.2-0.1-0.3c-0.1-0.1-0.2-0.1-0.4-0.2c-0.2-0.1-0.4-0.1-0.5-0.2
						c-0.4-0.2-0.6-0.5-0.6-0.9c0-0.2,0-0.3,0.2-0.5c0.1-0.1,0.2-0.2,0.5-0.3c0.2-0.1,0.4-0.1,0.7-0.1c0.2,0,0.5,0,0.6,0.1
						s0.3,0.2,0.4,0.4c0.1,0.2,0.2,0.3,0.2,0.5h-0.8c0-0.1,0-0.2-0.1-0.3c-0.1-0.1-0.2-0.1-0.3-0.1c-0.1,0-0.2,0-0.3,0.1
						c-0.1,0.1-0.1,0.1-0.1,0.2c0,0.1,0,0.2,0.1,0.2c0.1,0.1,0.2,0.1,0.5,0.2c0.2,0.1,0.4,0.2,0.6,0.2c0.4,0.2,0.5,0.5,0.5,0.8
						c0,0.3-0.1,0.5-0.3,0.7c-0.2,0.2-0.5,0.2-0.9,0.2c-0.3,0-0.5,0-0.7-0.1c-0.2-0.1-0.4-0.2-0.5-0.4C17,40.5,17,40.3,17,40.1h0.8
						c0,0.2,0,0.3,0.1,0.4c0.1,0.1,0.2,0.1,0.4,0.1c0.1,0,0.2,0,0.3-0.1C18.7,40.4,18.7,40.4,18.7,40.3"/>
				</g>
				<g>
					<defs>
						<rect id="SVGID_47_" x="4.5" y="-2.7" width="41" height="55.4"/>
					</defs>
					<clipPath id="SVGID_48_">
						<use xlink:href="#SVGID_47_"  style="overflow:visible;"/>
					</clipPath>
					<path class="st23" d="M22.7,39.6c0,0.3-0.1,0.6-0.2,0.8c-0.1,0.2-0.3,0.4-0.5,0.6c-0.2,0.1-0.5,0.2-0.7,0.2
						c-0.3,0-0.5-0.1-0.7-0.2c-0.2-0.1-0.4-0.3-0.5-0.5c-0.1-0.2-0.2-0.5-0.2-0.8v-0.2c0-0.3,0.1-0.6,0.2-0.8
						c0.1-0.2,0.3-0.4,0.5-0.6c0.2-0.1,0.5-0.2,0.7-0.2c0.3,0,0.5,0.1,0.7,0.2c0.2,0.1,0.4,0.3,0.5,0.6c0.1,0.2,0.2,0.5,0.2,0.8
						V39.6z M21.9,39.4c0-0.3,0-0.6-0.2-0.7c-0.1-0.2-0.3-0.2-0.5-0.2c-0.4,0-0.6,0.3-0.6,0.9v0.2c0,0.3,0,0.6,0.2,0.7
						c0.1,0.2,0.3,0.2,0.5,0.2s0.4-0.1,0.5-0.2c0.1-0.2,0.2-0.4,0.2-0.7L21.9,39.4L21.9,39.4z"/>
				</g>
				<g>
					<defs>
						<rect id="SVGID_49_" x="4.5" y="-2.7" width="41" height="55.4"/>
					</defs>
					<clipPath id="SVGID_50_">
						<use xlink:href="#SVGID_49_"  style="overflow:visible;"/>
					</clipPath>
					<path class="st24" d="M25.7,39.9c-0.2,0.1-0.3,0.2-0.5,0.2c-0.3,0-0.5-0.1-0.7-0.3c-0.2-0.2-0.2-0.5-0.2-0.8
						c0-0.2,0-0.4,0.1-0.6c0.1-0.2,0.2-0.3,0.4-0.4c0.2-0.1,0.4-0.2,0.6-0.2c0.2,0,0.4,0,0.6,0.2c0.2,0.1,0.3,0.3,0.4,0.5
						c0.1,0.2,0.2,0.4,0.2,0.7v0.3c0,0.4-0.1,0.7-0.2,0.9c-0.1,0.3-0.3,0.5-0.6,0.6s-0.6,0.2-0.9,0.2h0v-0.6h0.1
						C25.3,40.5,25.6,40.3,25.7,39.9 M25.3,39.5c0.2,0,0.3-0.1,0.4-0.2V39c0-0.2,0-0.4-0.1-0.5c-0.1-0.1-0.2-0.2-0.3-0.2
						c-0.1,0-0.2,0.1-0.3,0.2c-0.1,0.1-0.1,0.2-0.1,0.4c0,0.2,0,0.3,0.1,0.4C25.1,39.5,25.2,39.5,25.3,39.5"/>
				</g>
				<g>
					<defs>
						<rect id="SVGID_51_" x="4.5" y="-2.7" width="41" height="55.4"/>
					</defs>
					<clipPath id="SVGID_52_">
						<use xlink:href="#SVGID_51_"  style="overflow:visible;"/>
					</clipPath>
					<path class="st25" d="M29.1,39.8c0,0.4-0.1,0.8-0.3,1c-0.2,0.2-0.5,0.4-0.8,0.4c-0.4,0-0.6-0.1-0.8-0.4c-0.2-0.2-0.3-0.6-0.3-1
						v-0.6c0-0.4,0.1-0.8,0.3-1c0.2-0.2,0.5-0.4,0.8-0.4c0.4,0,0.6,0.1,0.8,0.4s0.3,0.6,0.3,1V39.8z M28.3,39.1c0-0.2,0-0.4-0.1-0.5
						c-0.1-0.1-0.2-0.2-0.3-0.2s-0.2,0-0.3,0.2s-0.1,0.3-0.1,0.5v0.8c0,0.2,0,0.4,0.1,0.5s0.2,0.2,0.3,0.2c0.1,0,0.2,0,0.3-0.2
						c0.1-0.1,0.1-0.3,0.1-0.5V39.1z"/>
				</g>
				<g>
					<defs>
						<rect id="SVGID_53_" x="4.5" y="-2.7" width="41" height="55.4"/>
					</defs>
					<clipPath id="SVGID_54_">
						<use xlink:href="#SVGID_53_"  style="overflow:visible;"/>
					</clipPath>
					<path class="st26" d="M31.8,39.8c0,0.4-0.1,0.8-0.3,1c-0.2,0.2-0.5,0.4-0.8,0.4c-0.4,0-0.6-0.1-0.8-0.4c-0.2-0.2-0.3-0.6-0.3-1
						v-0.6c0-0.4,0.1-0.8,0.3-1c0.2-0.2,0.5-0.4,0.8-0.4c0.4,0,0.6,0.1,0.8,0.4c0.2,0.2,0.3,0.6,0.3,1V39.8z M31,39.1
						c0-0.2,0-0.4-0.1-0.5c-0.1-0.1-0.2-0.2-0.3-0.2c-0.1,0-0.2,0-0.3,0.2c-0.1,0.1-0.1,0.3-0.1,0.5v0.8c0,0.2,0,0.4,0.1,0.5
						c0.1,0.1,0.2,0.2,0.3,0.2c0.1,0,0.2,0,0.3-0.2s0.1-0.3,0.1-0.5V39.1z"/>
				</g>
				<g>
					<defs>
						<rect id="SVGID_55_" x="4.5" y="-2.7" width="41" height="55.4"/>
					</defs>
					<clipPath id="SVGID_56_">
						<use xlink:href="#SVGID_55_"  style="overflow:visible;"/>
					</clipPath>
					<polygon class="st27" points="33.8,41.1 33.1,41.1 33.1,38.7 32.3,38.9 32.3,38.4 33.8,37.9 33.8,37.9 					"/>
				</g>
				<g>
					<defs>
						<rect id="SVGID_57_" x="4.5" y="-2.7" width="41" height="55.4"/>
					</defs>
					<clipPath id="SVGID_58_">
						<use xlink:href="#SVGID_57_"  style="overflow:visible;"/>
					</clipPath>
					<rect x="11.4" y="46.4" class="st28" width="3.7" height="3.4"/>
				</g>
				<g>
					<defs>
						<rect id="SVGID_59_" x="4.5" y="-2.7" width="41" height="55.4"/>
					</defs>
					<clipPath id="SVGID_60_">
						<use xlink:href="#SVGID_59_"  style="overflow:visible;"/>
					</clipPath>
					<polygon class="st29" points="14.5,46.9 14.5,49.2 13.9,49.2 13.9,47.8 13.3,48.8 13.1,48.8 12.5,47.8 12.5,49.2 11.9,49.2 
						11.9,46.9 12.5,46.9 13.2,48 13.9,46.9 					"/>
				</g>
				<g>
					<defs>
						<rect id="SVGID_61_" x="4.5" y="-2.7" width="41" height="55.4"/>
					</defs>
					<clipPath id="SVGID_62_">
						<use xlink:href="#SVGID_61_"  style="overflow:visible;"/>
					</clipPath>
					<rect x="15.2" y="46.4" class="st30" width="3.7" height="3.4"/>
				</g>
				<g>
					<defs>
						<rect id="SVGID_63_" x="4.5" y="-2.7" width="41" height="55.4"/>
					</defs>
					<clipPath id="SVGID_64_">
						<use xlink:href="#SVGID_63_"  style="overflow:visible;"/>
					</clipPath>
					<path class="st31" d="M17.9,48.5c0,0.4-0.3,0.7-0.9,0.7c-0.4,0-0.8-0.2-0.9-0.6l0.5-0.2c0,0.1,0.2,0.3,0.4,0.3
						c0.2,0,0.3-0.1,0.3-0.2c0-0.2-0.2-0.2-0.5-0.3c-0.5-0.1-0.7-0.3-0.7-0.7c0-0.5,0.4-0.7,0.9-0.7c0.4,0,0.7,0.2,0.8,0.6l-0.5,0.1
						c0-0.1-0.1-0.2-0.3-0.2c-0.2,0-0.3,0.1-0.3,0.2c0,0.2,0.3,0.2,0.5,0.3C17.8,48,17.9,48.2,17.9,48.5"/>
				</g>
				<g>
					<defs>
						<rect id="SVGID_65_" x="4.5" y="-2.7" width="41" height="55.4"/>
					</defs>
					<clipPath id="SVGID_66_">
						<use xlink:href="#SVGID_65_"  style="overflow:visible;"/>
					</clipPath>
					<rect x="7.5" y="46.3" class="st32" width="3.7" height="3.4"/>
				</g>
				<g>
					<defs>
						<rect id="SVGID_67_" x="4.5" y="-2.7" width="41" height="55.4"/>
					</defs>
					<clipPath id="SVGID_68_">
						<use xlink:href="#SVGID_67_"  style="overflow:visible;"/>
					</clipPath>
					<path class="st33" d="M10.5,48.1c0-0.2,0-0.3-0.1-0.5c-0.1-0.1-0.2-0.3-0.2-0.4C10,47.1,9.9,47,9.7,46.9
						c-0.1-0.1-0.3-0.1-0.5-0.1c-0.2,0-0.3,0-0.5,0.1c-0.1,0.1-0.3,0.2-0.4,0.2c-0.1,0.1-0.2,0.2-0.2,0.4c-0.1,0.1-0.1,0.3-0.1,0.5
						c0,0.1,0,0.2,0,0.3c0,0.1,0.1,0.2,0.1,0.3c0,0.1,0.1,0.2,0.2,0.2c0.1,0.1,0.1,0.1,0.2,0.2c0.1,0.1,0.2,0.1,0.3,0.2
						c0.1,0,0.2,0,0.4,0s0.2,0,0.3,0c0.1,0,0.2-0.1,0.3-0.1l0,0.1h0.6l-0.2-0.5c0.1-0.1,0.1-0.2,0.2-0.3
						C10.4,48.3,10.5,48.2,10.5,48.1 M9.8,48.4H9.5l0.1,0.2c0,0-0.1,0.1-0.2,0.1c-0.1,0-0.1,0-0.2,0c-0.1,0-0.2,0-0.2,0
						c-0.1,0-0.1-0.1-0.2-0.1c0,0-0.1-0.1-0.1-0.2c0-0.1,0-0.2,0-0.2s0-0.2,0-0.2c0-0.1,0.1-0.1,0.1-0.2c0,0,0.1-0.1,0.2-0.1
						c0.1,0,0.2,0,0.2,0c0.1,0,0.2,0,0.2,0c0.1,0,0.1,0.1,0.2,0.1c0,0,0.1,0.1,0.1,0.2c0,0.1,0,0.2,0,0.2
						C9.9,48.2,9.8,48.3,9.8,48.4"/>
				</g>
				<g>
					<defs>
						<rect id="SVGID_69_" x="4.5" y="-2.7" width="41" height="55.4"/>
					</defs>
					<clipPath id="SVGID_70_">
						<use xlink:href="#SVGID_69_"  style="overflow:visible;"/>
					</clipPath>
					<path class="st34" d="M21.3,48.7c0,0.1-0.1,0.2-0.2,0.2c-0.2,0.2-0.4,0.2-0.6,0.2c-0.2,0-0.5-0.1-0.7-0.3
						c-0.2-0.2-0.3-0.5-0.3-0.8c0-0.3,0.1-0.6,0.3-0.8c0.2-0.2,0.4-0.3,0.7-0.3c0.1,0,0.3,0,0.4,0.1c0.2,0.1,0.3,0.2,0.4,0.4
						l-0.2,0.1c0,0-0.1-0.1-0.1-0.2c-0.1-0.1-0.3-0.2-0.5-0.2c-0.2,0-0.3,0.1-0.5,0.2c-0.2,0.2-0.2,0.4-0.2,0.7
						c0,0.2,0.1,0.4,0.2,0.6c0.1,0.2,0.3,0.3,0.5,0.3c0.1,0,0.2,0,0.3-0.1c0.2-0.1,0.3-0.2,0.3-0.3L21.3,48.7z"/>
				</g>
				<g>
					<defs>
						<rect id="SVGID_71_" x="4.5" y="-2.7" width="41" height="55.4"/>
					</defs>
					<clipPath id="SVGID_72_">
						<use xlink:href="#SVGID_71_"  style="overflow:visible;"/>
					</clipPath>
					<polygon class="st35" points="23.4,46.9 23.4,47.2 23.3,47.2 22.1,47.2 22.1,47.9 22.9,47.9 23.1,47.9 23.1,48.2 22.9,48.2 
						22.1,48.2 22.1,49 23.3,49 23.4,49 23.4,49.2 23.3,49.2 22,49.2 21.9,49.2 21.9,49.1 21.9,48.2 21.9,47.9 21.9,47.1 21.9,46.9 
						22,46.9 23.3,46.9 					"/>
				</g>
				<g>
					<defs>
						<rect id="SVGID_73_" x="4.5" y="-2.7" width="41" height="55.4"/>
					</defs>
					<clipPath id="SVGID_74_">
						<use xlink:href="#SVGID_73_"  style="overflow:visible;"/>
					</clipPath>
					<path class="st36" d="M25.6,49.1l0,0.2h-0.3l0-0.1c-0.1-0.2-0.1-0.4-0.2-0.6c-0.1-0.2-0.2-0.3-0.3-0.4h-0.7v0.9v0.1H24v-0.1
						v-0.9v-0.1v-1v-0.1h0.1h0.8c0.2,0,0.3,0,0.5,0.2c0.2,0.1,0.2,0.3,0.2,0.5c0,0.1,0,0.1,0,0.2c-0.1,0.2-0.2,0.3-0.3,0.4
						C25.4,48.3,25.5,48.6,25.6,49.1 M24.5,47.9h0.4c0.1,0,0.2,0,0.2-0.1c0.1-0.1,0.2-0.2,0.2-0.3c0-0.1,0-0.2-0.1-0.2
						c-0.1-0.1-0.2-0.2-0.3-0.2h-0.7v0.7L24.5,47.9L24.5,47.9z"/>
				</g>
				<g>
					<defs>
						<rect id="SVGID_75_" x="4.5" y="-2.7" width="41" height="55.4"/>
					</defs>
					<clipPath id="SVGID_76_">
						<use xlink:href="#SVGID_75_"  style="overflow:visible;"/>
					</clipPath>
					<polygon class="st37" points="27.5,46.9 27.6,46.9 27.6,47.2 27.5,47.2 26.9,47.2 26.9,49.1 26.9,49.2 26.6,49.2 26.6,49.1 
						26.6,47.2 26.1,47.2 25.9,47.2 25.9,46.9 26.1,46.9 26.6,46.9 26.9,46.9 					"/>
				</g>
				<g>
					<defs>
						<rect id="SVGID_77_" x="4.5" y="-2.7" width="41" height="55.4"/>
					</defs>
					<clipPath id="SVGID_78_">
						<use xlink:href="#SVGID_77_"  style="overflow:visible;"/>
					</clipPath>
					<polygon class="st38" points="28,46.9 28.3,46.9 28.3,47.1 28.3,49.1 28.3,49.2 28,49.2 28,49.1 28,47.1 					"/>
				</g>
				<g>
					<defs>
						<rect id="SVGID_79_" x="4.5" y="-2.7" width="41" height="55.4"/>
					</defs>
					<clipPath id="SVGID_80_">
						<use xlink:href="#SVGID_79_"  style="overflow:visible;"/>
					</clipPath>
					<polygon class="st39" points="30.2,46.9 30.2,47.2 30.1,47.2 29.1,47.2 29.1,47.9 29.8,47.9 29.9,47.9 29.9,48.2 29.8,48.2 
						29.1,48.2 29.1,49.1 29.1,49.2 28.9,49.2 28.9,49.1 28.9,48.2 28.9,47.9 28.9,47.1 28.9,46.9 29,46.9 30.1,46.9 					"/>
				</g>
				<g>
					<defs>
						<rect id="SVGID_81_" x="4.5" y="-2.7" width="41" height="55.4"/>
					</defs>
					<clipPath id="SVGID_82_">
						<use xlink:href="#SVGID_81_"  style="overflow:visible;"/>
					</clipPath>
					<polygon class="st40" points="30.6,46.9 30.9,46.9 30.9,47.1 30.9,49.1 30.9,49.2 30.6,49.2 30.6,49.1 30.6,47.1 					"/>
				</g>
				<g>
					<defs>
						<rect id="SVGID_83_" x="4.5" y="-2.7" width="41" height="55.4"/>
					</defs>
					<clipPath id="SVGID_84_">
						<use xlink:href="#SVGID_83_"  style="overflow:visible;"/>
					</clipPath>
					<path class="st41" d="M33.1,48.7c0,0.1-0.1,0.2-0.2,0.2c-0.2,0.2-0.4,0.2-0.6,0.2c-0.2,0-0.5-0.1-0.7-0.3
						c-0.2-0.2-0.3-0.5-0.3-0.8c0-0.3,0.1-0.6,0.3-0.8c0.2-0.2,0.4-0.3,0.7-0.3c0.1,0,0.3,0,0.4,0.1c0.2,0.1,0.3,0.2,0.4,0.4
						l-0.2,0.1c0,0-0.1-0.1-0.1-0.2c-0.1-0.1-0.3-0.2-0.5-0.2c-0.2,0-0.3,0.1-0.5,0.2c-0.2,0.2-0.2,0.4-0.2,0.7
						c0,0.2,0.1,0.4,0.2,0.6c0.1,0.2,0.3,0.3,0.5,0.3c0.1,0,0.2,0,0.3-0.1c0.2-0.1,0.3-0.2,0.3-0.3L33.1,48.7z"/>
				</g>
				<g>
					<defs>
						<rect id="SVGID_85_" x="4.5" y="-2.7" width="41" height="55.4"/>
					</defs>
					<clipPath id="SVGID_86_">
						<use xlink:href="#SVGID_85_"  style="overflow:visible;"/>
					</clipPath>
					<polygon class="st42" points="33.6,49.2 33.3,49.2 33.4,49 34.2,47 34.3,46.9 34.4,46.9 34.5,47 35.3,49 35.4,49.2 35.1,49.2 
						35.1,49.2 34.4,47.4 33.6,49.2 					"/>
				</g>
				<g>
					<defs>
						<rect id="SVGID_87_" x="4.5" y="-2.7" width="41" height="55.4"/>
					</defs>
					<clipPath id="SVGID_88_">
						<use xlink:href="#SVGID_87_"  style="overflow:visible;"/>
					</clipPath>
					<polygon class="st43" points="37.1,46.9 37.2,46.9 37.2,47.2 37.1,47.2 36.5,47.2 36.5,49.1 36.5,49.2 36.2,49.2 36.2,49.1 
						36.2,47.2 35.6,47.2 35.5,47.2 35.5,46.9 35.6,46.9 36.2,46.9 36.5,46.9 					"/>
				</g>
				<g>
					<defs>
						<rect id="SVGID_89_" x="4.5" y="-2.7" width="41" height="55.4"/>
					</defs>
					<clipPath id="SVGID_90_">
						<use xlink:href="#SVGID_89_"  style="overflow:visible;"/>
					</clipPath>
					<polygon class="st44" points="37.6,46.9 37.9,46.9 37.9,47.1 37.9,49.1 37.9,49.2 37.6,49.2 37.6,49.1 37.6,47.1 					"/>
				</g>
				<g>
					<defs>
						<rect id="SVGID_91_" x="4.5" y="-2.7" width="41" height="55.4"/>
					</defs>
					<clipPath id="SVGID_92_">
						<use xlink:href="#SVGID_91_"  style="overflow:visible;"/>
					</clipPath>
					<path class="st45" d="M38.6,47.2c0.2-0.2,0.4-0.3,0.7-0.3c0.2,0,0.5,0.1,0.7,0.3c0.2,0.2,0.3,0.5,0.3,0.8
						c0,0.3-0.1,0.6-0.3,0.8c-0.2,0.2-0.4,0.3-0.7,0.3c-0.2,0-0.5-0.1-0.7-0.3c-0.2-0.2-0.3-0.5-0.3-0.8
						C38.3,47.7,38.4,47.5,38.6,47.2 M38.8,48.7c0.1,0.2,0.3,0.3,0.5,0.3c0.2,0,0.3-0.1,0.5-0.2c0.2-0.2,0.2-0.4,0.2-0.7
						c0-0.2-0.1-0.4-0.2-0.6c-0.1-0.2-0.3-0.3-0.5-0.3c-0.2,0-0.3,0.1-0.5,0.2c-0.2,0.2-0.2,0.4-0.2,0.7
						C38.6,48.3,38.7,48.5,38.8,48.7"/>
				</g>
				<g>
					<defs>
						<rect id="SVGID_93_" x="4.5" y="-2.7" width="41" height="55.4"/>
					</defs>
					<clipPath id="SVGID_94_">
						<use xlink:href="#SVGID_93_"  style="overflow:visible;"/>
					</clipPath>
					<polygon class="st46" points="41.1,49.2 40.9,49.2 40.9,49.1 40.9,47.1 40.9,46.9 41,46.9 41.1,47 42.2,48.7 42.2,47.1 
						42.2,46.9 42.5,46.9 42.5,47.1 42.5,49.1 42.5,49.2 42.3,49.2 42.2,49.2 41.1,47.5 41.1,49.1 					"/>
				</g>
			</g>
		</g>
	</g>
</g>
</svg>
