<?xml version="1.0" encoding="utf-8"?>
<!-- Generator: Adobe Illustrator 25.2.1, SVG Export Plug-In . SVG Version: 6.00 Build 0)  -->
<svg version="1.1" id="Camada_1" xmlns="http://www.w3.org/2000/svg" xmlns:xlink="http://www.w3.org/1999/xlink" x="0px" y="0px"
	 viewBox="0 0 62.5 63.1" style="enable-background:new 0 0 62.5 63.1;" xml:space="preserve">
<style type="text/css">
	.st0{fill-rule:evenodd;clip-rule:evenodd;fill:url(#SVGID_1_);}
	.st1{fill-rule:evenodd;clip-rule:evenodd;fill:url(#SVGID_2_);}
	.st2{fill-rule:evenodd;clip-rule:evenodd;fill:none;stroke:#FFFFFF;stroke-width:0.8;stroke-miterlimit:10;}
	.st3{fill-rule:evenodd;clip-rule:evenodd;fill:url(#SVGID_3_);}
	.st4{fill:none;stroke:#FFFFFF;stroke-width:0.8;stroke-miterlimit:10;}
	.st5{fill-rule:evenodd;clip-rule:evenodd;fill:url(#SVGID_4_);}
	.st6{fill-rule:evenodd;clip-rule:evenodd;fill:url(#SVGID_5_);}
	.st7{fill-rule:evenodd;clip-rule:evenodd;fill:url(#SVGID_6_);}
	.st8{fill:none;stroke:#FBFBFD;stroke-width:0.8;stroke-miterlimit:10;}
	.st9{fill-rule:evenodd;clip-rule:evenodd;fill:url(#SVGID_7_);}
	.st10{fill-rule:evenodd;clip-rule:evenodd;fill:url(#SVGID_8_);}
</style>
<g>
	<linearGradient id="SVGID_1_" gradientUnits="userSpaceOnUse" x1="-490.2262" y1="-155.828" x2="-482.4485" y2="-155.828">
		<stop  offset="0" style="stop-color:#8C2984"/>
		<stop  offset="1" style="stop-color:#A6569D"/>
	</linearGradient>
	<path class="st0" d="M-486.3-151.9c2.1,0,3.9-1.7,3.9-3.9s-1.7-3.9-3.9-3.9s-3.9,1.7-3.9,3.9S-488.5-151.9-486.3-151.9
		L-486.3-151.9z"/>
	<g>
		<g>
			<linearGradient id="SVGID_2_" gradientUnits="userSpaceOnUse" x1="-490.3611" y1="-181.0357" x2="-431.6238" y2="-181.0357">
				<stop  offset="0" style="stop-color:#8C2984"/>
				<stop  offset="1" style="stop-color:#A6569D"/>
			</linearGradient>
			<path class="st1" d="M-461-210.4l29.3,0.1l0.1,29.3c0,16.2-13.1,29.4-29.4,29.4c-16.2,0-29.4-13.1-29.4-29.4
				C-490.4-197.3-477.2-210.4-461-210.4"/>
		</g>
		<g>
			<path class="st2" d="M-440.1-190.2c-0.6-0.4-1.2-0.9-1.6-1.4c0.1,0,0,0.5,0.2,0.7C-441.3-190.6-440.1-190.2-440.1-190.2
				 M-452.4-165.8c-0.2-0.2-0.5-0.6-0.7-0.8c0.2-0.1,0.5-0.1,0.6-0.2C-452.5-166.5-452.4-166.1-452.4-165.8z M-453.5-172.7
				c0,0,0.4,2.1,0.5,2.5c0.1,0.4-0.1,0.8,0,1.4c0.1,0.5-0.4,2-0.5,1.8c-0.1-0.1,0-0.4-0.3-1.1c-0.2-0.6-0.3-1.8-0.2-2.2
				C-453.9-170.8-453.5-172.7-453.5-172.7z M-481.9-176.1c0,0.1,1.4-0.5,1.9-1.6c0-1.3,0.1-2.2,0.7-2.5c0,0,0.1-0.4,0-1
				c-0.4-1.4-0.7-3.5-0.3-5c0.3-1.4,1-3.2,2.6-4c0.8-0.4,1.5-0.7,2.5-1c0.8-0.4,3-1.4,3.9-1.2c1.1,0,4.4,0.6,5.3,0.8
				c1.6,0.4,3.1,0.4,4.7-0.1c2.3-0.7,6.4-1,6.2-0.7c-1.5-0.9-1.2-2.9-0.1-3.8c0.8-0.6,1.8-0.7,3.1-0.1c0.3,0.1,0.4,0.5-0.2,0.3
				c-1.4-0.3-2.5-0.1-2.4,1.5c0.1,1.5,1.3,1.7,2.5,1.5c1-0.4,1.9-1.1,2.6-1.8c0.3-0.2,0.5-0.6,1.3-0.9c0.7-0.3,2-0.6,2.3,0.1
				c0.2-0.4,2.5-0.5,3,0.5c0.4,0.5,1.5,1.9,2.1,2.6c0.9,1.1,2.6,1.6,3,0c0.2-1.6-0.6-2.2-2.4-1.8c-0.4-0.1-0.4-0.3-0.1-0.4
				c2.5-0.6,4.3,0.2,3.7,3.3c-0.5,1.3-1.8,2.1-3.9,1.5c1.1,0.5,1.8,1.5,1.5,1.8c0,0-1.4,0.5-2.1,0.4c-1.4,0.4-2.5-0.9-2.4-1.3
				c0.1,0-0.2,0.7-0.5,1.2c-0.3,0.4-0.2,0.9-0.2,0.9c-0.1,0.1-0.2,0.2-0.4,0c-0.6-0.2-0.6,0.3-0.7,0.5c-0.2,0.8-0.6,1.7-1.1,2.5
				c-0.9,1.7-1.9,3.2-2.3,3.5c-0.6,0.5-1.7,1.7-2.4,3c-0.4,0.7-0.5,1.6-0.6,2.2c0,0.8,0,2.5-0.2,3.6c-0.1,0.5-0.2,0.7-0.3,1.2
				c0,1.1,0.1,2.2,0.4,3c0.1,0.2,0.3,0.4,0.4,0.5c0.3,0.3,0.5,0.7,0.7,0.9c0.4,0.5,0.7,1-0.3,1c-0.6,0-1.2-0.1-2-0.3
				c0.1,0.5-0.6,0.6-1.3,0.5c-0.6-0.1-1.1,0-1.5-0.2c-0.2,0-0.3-0.6-0.2-1.1c0.1-0.2-0.2-0.2-0.5-0.2c-0.3,0.1-0.7,0-0.4-0.4
				c0.3-0.3,0.2-1.1,0.3-1.5c0.1-0.8,0-1.7-0.3-2.5c-0.5-1.6-0.7-3.7-0.8-5.3c0-0.6-0.1-0.6-0.6-0.7c-0.6,0.2-6.3,0.9-6.3,0.7
				c-0.8,0.1-1.6,0.6-2.3,1.6c-0.2,0.3-0.5,0.4-0.6-0.3c-0.2-0.3-0.2-0.7-0.4-1.1c-0.2-0.4-0.4-0.6-0.7-0.7
				c-0.8-0.2-3.5-1.9-3.3-2.1c-0.3,0.3-0.7,0.6-0.9,1c-0.4,1.3-0.9,3.1-1.4,4.3c-0.3,0.9-0.3,1.9-0.1,2.8c0.2,0.9,1.2,3.4,1.2,3.4
				c0.5,0.6,1.2,1,1.7,1.5c0.5,0.6,0.3,0.8-0.2,0.8c-0.6,0-1.1,0-1.7-0.1c-0.7-0.2-0.7-0.6-0.7-1c-0.1-0.2-0.9,0.4-1-0.3
				c-0.1-0.8-0.2-1.5-0.3-1.6c-0.7-1.8-1.5-3.6-2.2-5.4c0,0-0.8,1.5-0.8,2.4c0,0.6-0.1,1.8,0,2.7c0,0.5,0.3,1,0.4,1.2
				c0.4,0.4,1.2,1.6,1.1,1.6c0.5,0.6-0.3,0.7-0.8,0.6c-0.3-0.1-0.7-0.1-1-0.2c-1-0.2-1.1-0.5-0.9-1.3c-0.2-0.1-0.2,0.2-0.5,0
				c-0.1,0-0.1-0.3-0.2-0.4c-0.5,0-0.3-0.3-0.1-1c0.1-1.2-0.1-3.5-0.2-4.7c-0.1-0.9-0.8-2.5,0.1-3.1c0.6-0.4,0.9-1.3,1.2-2
				c0.3-0.7,0.5-1.5,0.4-2.2c-0.6-2.4-0.8-7.4-0.5-7.5c-0.6,0.9-0.8,2.5-0.7,3.6c0,0.7,0.4,1.7,0.6,2.8c0.1,0.8,0.3,1.8,0.1,2.6
				C-478.6-176.9-480.1-175.3-481.9-176.1z"/>
		</g>
	</g>
</g>
<g>
	<g>
		<g>
			<linearGradient id="SVGID_3_" gradientUnits="userSpaceOnUse" x1="2.0283" y1="31.5006" x2="60.4921" y2="31.5006">
				<stop  offset="0" style="stop-color:#8C2984"/>
				<stop  offset="1" style="stop-color:#A6569D"/>
			</linearGradient>
			<path class="st3" d="M31.3,2.3l29.1,0.1l0.1,29.1c0,16.1-13.1,29.2-29.2,29.2C15.1,60.7,2,47.6,2,31.5C2,15.4,15.1,2.3,31.3,2.3"
				/>
		</g>
		<g>
			<path class="st4" d="M13.4,34.2L13.4,34.2c-0.1,0.7-0.5,2-0.5,2s-0.3-0.9-0.2-1.1c0.1-0.2,0.3-0.6,0.2-1.5c-0.1-0.9,0-1-0.2-1.6
				c-0.2-0.6-0.3-1.3-0.5-2.2c-0.2-1-0.5-3-0.5-3.8c0-0.8,0.3-1.6,0.3-1.6s0.2,0.1,0.2,0.3c0,0.2,0.1,1.1,0.3,2
				c0.2,0.9,0.5,2.6,0.7,3.8C13.4,31.6,13.5,33.5,13.4,34.2 M56.3,20.5c-0.2-0.3-1.2-0.5-1.8-0.2c-0.6,0.3-1.3,1-1.7,0.9
				c-0.4-0.1-0.9-0.9-1.5-1.1c-0.6-0.1-0.9,0.1-1.1,0.1c-0.2,0-1.3-0.2-1.6-0.1c-0.3,0.1-0.6,0.6-1,0.9c-0.4,0.2-0.5,0.3-0.7,0.3
				c-0.2,0-0.6-0.8-1.2-0.9c-0.5-0.1-1.4-0.1-1.7,0c-0.3,0.1-0.4,0.3-0.3,0.4c0.1,0.1,0.2,0.4,0.2,0.4s-0.2,0-0.5-0.1
				c-0.3,0-1.8-0.5-3-0.6c-1.2-0.1-3.6,0.1-5.2,0.2c-1.6,0.1-3.4-0.1-4.3,0.1c-0.9,0.2-1.3,0.3-2.4,0.1c-1.2-0.2-6.5,0.1-7.8,0.1
				c-1.3,0-2.4-0.4-3.4-0.3c-1,0.1-1.3-0.2-2.3-0.2c-1,0-1.7-0.1-2.6,0.4c-0.9,0.5-1.4,1.3-1.6,2.4c-0.2,1.1,0,3.2,0.1,3.7
				c0.1,0.5,0.9,3.9,1,5c0.1,0.8-0.2,2.6-0.3,3.7c-0.2,0.2-0.3,0.5-0.5,0.5c0.1,0.1,0.3,0.1,0.3,0.1c-0.4,0.3-0.5,0.8-0.4,1.1
				c0.1-0.2,0.2-0.3,0.3-0.3c-0.5,1.1,1,2,0,3.3c0.5-0.1,0.7-0.9,0.7-0.9s0.2,0.1,0.2,0.4c0,0,0.1-0.1,0.1-0.1c0,0,0,0.1,0,0.1
				c0,0.5,0.1,1.3,0.2,1.7c0.1,0.4,0.2,2.6,0.2,3.2c0.1,0.6,0.1,1,0.1,1.4c-0.1,0.4-0.2,1.1,0,1.2c0.2,0.1,0.5-0.3,0.7,0
				c0.2,0.3-0.1,0.9,0.2,1.1c0.3,0.2,0.6,0.6,1.1,0.7c0.5,0.1,1.1,0,1.3-0.2c0.3-0.2,0.3-0.4,0-0.6c-0.3-0.2-0.6-0.7-0.7-0.9
				c-0.1-0.2,0-0.3-0.2-0.6c-0.2-0.3-0.4-0.4-0.4-0.7c-0.1-0.4-0.2-1-0.2-1.4c-0.1-0.4-0.1-1.5-0.1-1.5s0.1,0.2,0.2,0.6
				c0,0.3,0.1,0.9,0.2,1.2c0.1,0.3,0.2,0.6,0.2,0.8c0,0.2,0,0.9,0.2,0.9c0.3-0.1,0.3-0.2,0.5-0.1c0.2,0.2,0.1,0.8,0.3,1
				c0.2,0.2,0.6,0.6,0.8,0.6c0.3,0,1.1,0,1.4-0.2c0.3-0.2,0.6-0.4,0.3-0.7c-0.3-0.3-0.7-0.6-0.9-0.9c-0.2-0.3-0.3-0.6-0.5-0.8
				c-0.2-0.2-0.3-0.6-0.5-1c-0.2-0.4-0.4-1.2-0.4-1.7c0-0.6-0.2-1.3-0.1-1.8c0.1-0.5,0.3-1,0.3-1.3c0-0.4,0.1-1.1,0.1-1.3
				c0-0.3,0-0.4,0-0.4s0.7,0.2,0.8,0.3c0.1,0.1,0.2,0.6,0.4,0.7c0.2,0.1,0.4,0,0.4-0.3c0-0.3-0.2-0.9,0.1-1.2
				c0.3-0.2,0.4-0.5,0.7-0.4c0.3,0.1,0.3,0.4,0.4,0.6c0.1,0.3,0.1,0.6,0.4,0.6c0.3,0,0.4-0.1,0.4-0.5c0-0.4-0.1-0.8,0-1
				c0.1-0.2,0.4-0.9,0.5-0.9c0.1-0.1,0.3-0.2,0.4-0.4c0.1-0.2,0.3-0.4,0.4-0.4c0.2,0,1.2,0.8,2,1c0.8,0.2,1.7,0.7,2.7,0.8
				c1,0,2.6,0,3.6-0.2c1-0.3,2.8-0.9,3.8-1.3c0.9-0.4,1.9-0.6,1.9-0.6s-0.1,1.2-0.1,1.6c0,0.5,0,1.1-0.1,1.4c-0.1,0.3-0.1,0.9,0,1.2
				c0.1,0.2,0.3,1.2,0.2,1.9c-0.1,0.8-0.2,1.8-0.3,2.1c-0.1,0.3-0.1,0.6-0.1,0.7c-0.1,0.1-0.3,0.8-0.1,0.9c0.2,0.1,0.4,0,0.5,0.2
				c0.1,0.2,0.1,0.7,0.2,0.9c0.1,0.3,0.6,0.9,1.1,1c0.5,0.1,1.3,0,1.6-0.2c0.2-0.3,0.3-0.4,0-0.6c-0.3-0.2-0.6-0.6-0.7-0.9
				c-0.1-0.2-0.3-0.5-0.4-0.7c-0.2-0.3-0.2-0.8-0.3-1.2c-0.1-0.5-0.2-1.9-0.1-2.4c0.2-0.5,0.6-0.8,0.7-1.2c0.2-0.4,0.3-1.1,0.3-1.6
				c0-0.5,0.1-1.3,0.1-1.3s0.1,0.7,0.2,1.1c0.1,0.4,0,1.6,0.1,1.8c0.1,0.2,0.5,0.7,0.6,1.6c0.1,0.8,0.2,1.6,0.2,2.1
				c0,0.5,0.1,1.1,0.1,1.2c0,0.1-0.2,0.7-0.1,0.9c0.2,0.2,0.5-0.1,0.7,0.1c0.2,0.2,0,0.7,0.2,1c0.1,0.3,0.5,0.8,1,0.8
				c0.5,0.1,1.2,0.1,1.5-0.1c0.3-0.2,0.4-0.4,0.1-0.6c-0.2-0.1-0.6-0.7-0.8-1c-0.2-0.3-0.4-0.8-0.5-0.9c-0.1-0.1-0.1-0.4-0.2-0.6
				c-0.1-0.2-0.6-1.5-0.7-2.1c-0.1-0.6-0.2-1.2-0.1-1.3c0.1-0.2,0.4-0.9,0.5-1.3c0-0.4-0.1-0.8-0.1-1.3c-0.1-0.5,0.1-1.9,0.1-1.9
				s0.7,0.1,1.2-0.2c0.5-0.2,1-0.7,1.3-1.1c0.3-0.4,1.3-1.6,1.7-1.9c0.4-0.3,1.2-0.8,1.4-1.3c0.3-0.5,0.7-1.4,1-1.8
				c0.3-0.4,0.6-0.6,0.6-0.7c0.1-0.1,0.1-0.3,0.2-0.3c0.1-0.1,0.2-0.2,0.3-0.2c0.1,0,0.4-0.2,0.4-0.2s-0.1,0.7,0,0.8
				c0.1,0.2,0.9,0.6,1.3,0.6c0.3,0,0.6-0.1,0.8-0.1c0.2,0,1-0.1,1.3-0.2c0.2-0.2,0.3-0.2,0.2-0.5c0-0.3-0.1-0.7-0.2-0.9
				c0-0.2,0-0.4-0.1-0.5c-0.1-0.1-0.2-0.4-0.1-0.9c0.1-0.5,0.2-1,0.3-1.2c0.1-0.3,0-0.9,0.1-1.3c0.1-0.4,0.2-0.5,0.2-0.8
				c0-0.3,0-0.9,0-1c0-0.2,0.1-0.2,0.3-0.3c0.2,0,1.2,0.3,1.6,0.1c0.4-0.2,0.9-0.7,1.2-1C56.2,21.3,56.5,20.8,56.3,20.5z"/>
		</g>
	</g>
	<linearGradient id="SVGID_4_" gradientUnits="userSpaceOnUse" x1="2.0264" y1="56.9536" x2="9.8041" y2="56.9536">
		<stop  offset="0" style="stop-color:#8C2984"/>
		<stop  offset="1" style="stop-color:#A6569D"/>
	</linearGradient>
	<path class="st5" d="M5.9,60.8c2.1,0,3.9-1.7,3.9-3.9s-1.7-3.9-3.9-3.9S2,54.8,2,57S3.8,60.8,5.9,60.8L5.9,60.8z"/>
</g>
<g>
	<linearGradient id="SVGID_5_" gradientUnits="userSpaceOnUse" x1="-490.2279" y1="53.847" x2="-482.4502" y2="53.847">
		<stop  offset="0" style="stop-color:#8C2984"/>
		<stop  offset="1" style="stop-color:#A6569D"/>
	</linearGradient>
	<path class="st6" d="M-486.3,57.7c2.1,0,3.9-1.7,3.9-3.9s-1.7-3.9-3.9-3.9s-3.9,1.7-3.9,3.9S-488.5,57.7-486.3,57.7L-486.3,57.7z"
		/>
	<g>
		<g>
			<linearGradient id="SVGID_6_" gradientUnits="userSpaceOnUse" x1="-490.2275" y1="28.5005" x2="-431.757" y2="28.5005">
				<stop  offset="0" style="stop-color:#8C2984"/>
				<stop  offset="1" style="stop-color:#A6569D"/>
			</linearGradient>
			<path class="st7" d="M-461-0.7l29.1,0.1l0.1,29.1c0,16.1-13.1,29.2-29.2,29.2c-16.1,0-29.2-13.1-29.2-29.2
				C-490.2,12.4-477.1-0.7-461-0.7"/>
		</g>
		<g>
			<path class="st8" d="M-476.6,21.3C-476.6,21.3-476.6,21.3-476.6,21.3C-476.6,21.3-476.6,21.3-476.6,21.3z"/>
			<path class="st8" d="M-437.5,17.2c-0.6-0.4-2.2-1.6-2.7-1.9c-0.5-0.3-1.1-1.2-1.9-1.3c-0.8,0-1.9,0.6-2.4,0.7
				c-0.5,0-2.1-0.7-3.2-1.2c-1-0.5-1.3-0.4-0.9,0.7c0.4,1.1,1.3,1.4,1.3,1.4l0,0c-0.2,0-0.4,0.2-0.4,0.3c-0.3,0.1-0.5,0.4-0.8,0.7
				c-0.1,0-0.2,0.1-0.2,0.2c-0.2,0-0.4,0.2-0.4,0.4c0.1,0,0.1,0,0,0c-0.1,0-0.1,0-0.2,0c-0.1,0-0.2,0-0.3,0.1
				c-0.2,0.1-0.2,0.4-0.4,0.5c-0.3-0.1-0.5,0.1-0.8,0.1c-0.1,0-0.2,0-0.3,0c-0.4-0.3-0.8-0.3-1.3-0.4c-0.6-0.1-1.1,0-1.8,0.2
				c-0.2,0.1-0.4,0.2-0.7,0.2c-0.1,0-0.3,0-0.4,0c-0.1,0-0.1,0-0.1,0.1c-0.2-0.1-0.3-0.2-0.5-0.1c-0.3,0-0.5,0.2-0.7,0.4
				c0,0,0,0,0,0c-0.1-0.1-0.2-0.1-0.4-0.1c-0.2,0-0.3-0.1-0.5-0.1c0,0-0.1,0-0.2,0c-0.1-0.1-0.2-0.1-0.2-0.1c-0.2-0.1-0.4,0-0.6-0.1
				c-0.3,0-0.5-0.2-0.8-0.2c-0.5,0-1,0.1-1.4,0.3c-0.1,0-0.3-0.1-0.4-0.1c-0.2-0.1-0.4,0-0.5,0.2c0-0.1-0.2-0.2-0.3-0.2
				c-0.2,0.1-0.5-0.1-0.7-0.1c-0.3,0.1-0.5,0.1-0.8,0.1c-0.1,0-0.1,0-0.2,0c-0.1,0-0.2,0-0.2,0c-0.1,0-0.1-0.1-0.2-0.1
				c-0.1,0-0.2,0-0.3,0c-0.3-0.1-0.5-0.1-0.8,0c-0.1,0-0.2,0.1-0.2,0.2c0,0,0,0,0,0c-0.1,0-0.1,0-0.2-0.1c-0.1,0-0.2,0-0.2,0.1
				c0,0,0,0,0-0.1c-0.3-0.1-0.7-0.3-0.9,0c-0.1,0-0.1,0-0.2,0c-0.2,0-0.3,0-0.5,0c-0.2-0.1-0.4-0.2-0.6-0.2c-0.2,0-0.5,0-0.7,0
				c-0.1,0-0.2,0.1-0.2,0.2c0,0,0,0,0,0c-0.1,0-0.3-0.2-0.4-0.2c-0.1,0-0.2,0-0.2,0c0,0-0.1,0-0.2,0c-0.1,0-0.2-0.1-0.3-0.1
				c-0.1,0-0.2,0.1-0.3,0.1c0,0,0,0-0.1,0c0,0,0,0,0,0c-0.1-0.1-0.2-0.1-0.2-0.1c-0.1,0-0.3,0-0.4,0.1c0,0,0,0-0.1,0
				c-0.1,0-0.1,0-0.2,0c-0.1,0-0.3,0-0.4,0.1c-0.1,0-0.2,0.1-0.2,0.3c-0.1,0-0.1,0-0.2-0.1c-0.2,0-0.4,0-0.6,0.1
				c-0.2,0-0.3,0.1-0.5,0.2c0,0-0.3,0.1-0.3,0.1c0,0,0,0,0,0c-0.1-0.1-0.4-0.1-0.4,0.1c0,0.1,0,0.1,0,0.2c-0.1,0.1-0.2,0.1-0.3,0.2
				c-0.2,0-0.4,0.1-0.5,0.3c-0.1,0.2-0.2,0.3-0.3,0.5c-0.2,0.1-0.3,0.2-0.4,0.5c-0.1,0-0.2,0.1-0.2,0.2c0,0,0,0.1-0.1,0.1
				c0,0-0.1,0-0.1,0c-0.1,0.1-0.2,0.2-0.3,0.3c0,0,0,0,0,0c-0.1,0-0.2,0.1-0.2,0.1c0,0,0,0,0,0c0,0,0,0,0,0c0,0,0,0,0,0
				c0,0,0,0,0,0.1c0,0,0,0.1-0.1,0.1c-0.1,0.1-0.1,0.1-0.2,0.2c-0.1,0.2-0.2,0.5-0.2,0.8c0,0-0.1,0.1-0.1,0.1
				c-0.1,0.2-0.1,0.3-0.1,0.5c0,0.1,0,0.2,0.1,0.2c-0.2,0.1-0.3,0.2-0.4,0.4c0,0.1,0,0.1,0,0.2c-0.2,0.5,0,1,0,1.5
				c0,0.4,0,0.8,0,1.2c0,0.3,0.2,0.7,0.1,1c0,0.1,0,0.2,0.1,0.2c-0.1,0.3-0.1,0.5-0.1,0.8c0,0.2,0.1,0.4,0.1,0.7
				c0,0.3,0.2,0.4,0.2,0.7c0-0.1-0.1,0.3,0,0.4c0.1,0.3,0.4,0.5,0.5,0.8c0.1,0.3,0.2,0.6,0.3,0.9c0,0.1,0.1,0.1,0.1,0.1
				c0,0-0.1,0.1-0.1,0.2c-0.1,0.1-0.2,0.3-0.3,0.4c-0.1,0.2-0.1,0.3-0.2,0.5c0,0.1,0,0.1-0.1,0.2c-0.1,0-0.1,0-0.2,0
				c-0.3,0.2-0.3,0.6-0.2,0.9c0.3,0.7,0.5,1.3,0.4,2.2c0,0.1,0.1,0.2,0.2,0.3c0,0.1,0,0.2,0,0.4c0,0.2,0,0.4,0,0.7
				c0,0.2,0,0.4,0.1,0.5c0,0.1,0.1,0.2,0.1,0.2c0,0.1,0.1,0.1,0.2,0.2c0.1,0.2,0.2,0.5,0.3,0.7c0.2,0.5,0.2,1.7,0.3,2
				c0.2,0.3,0.4,0.2,0.6,0.9c0.2,0.7,0.4,0.9,0.4,0.9c0.5,0.2,2.1-0.1,2.1-0.1s-0.2-0.4-0.3-0.6c0-0.2-0.4-0.8-0.4-0.8
				c0.2-0.1,0.7-0.2,0.7-0.2s-0.3-0.4-0.5-0.7s-0.6-0.5-0.9-1s-0.4-1.4-0.4-2.6c0-0.7,0.1-1.4,0.2-1.8c0.4-0.2,0.7-0.4,1.1-0.6
				c0.2-0.1,0.4-0.1,0.5-0.2c0.2-0.1,0.3-0.2,0.5-0.3c0.1-0.1,0.2-0.2,0.2-0.3c0.2-0.1,0.3-0.1,0.5-0.2c0.1-0.1,0.2-0.1,0.3-0.2
				c0,0,0,0,0,0c0,0,0,0,0,0c0.1,0,0.1-0.1,0.2-0.1c0.2-0.1,0.3-0.3,0.5-0.4c0.1,0,0.1-0.1,0.1-0.2c0,0,0.1,0,0.1-0.1
				c0.2-0.2,0.6-0.4,0.8-0.4c0.1,0,0.2,0,0.3-0.1c0.1-0.1,0.3-0.2,0.4-0.2c0,0,0,0,0,0c0,0,0,0,0,0c0,0.2,0.2,0.3,0.3,0.4
				c0,0.1,0.2,0.2,0.2,0.2v0c0.1,0,0.2,0,0.3,0c0.1,0,0.3,0.1,0.4,0.2c0.1,0.1,0.2,0.2,0.3,0.2c0.1,0,0.2,0,0.4,0
				c0.1,0,0.3,0,0.3-0.1c0,0,0.1,0,0.2,0.1c0.2,0.1,0.4,0.2,0.6,0.2c0.1,0,0.2,0,0.3,0c0.1,0,0.1,0,0.2,0.1c0.3,0.1,0.6,0.1,1,0.1
				c0.2,0,0.4,0.1,0.6,0.1c0.2,0,0.4-0.1,0.6-0.1c0.2,0,0.4,0,0.7-0.1c0,0,0,0,0,0c0.2,0.1,0.6,0.2,0.8,0c0.1-0.1,0.1-0.2,0.2-0.3
				c0,0,0,0,0,0c0.1,0,0.2,0.1,0.3,0.1c0.1,0,0.3,0,0.4,0c0.1,0.1,0.3,0.2,0.5,0.1c0.2,0,0.3-0.2,0.3-0.4c0,0,0,0,0,0
				c0.1,0.2,0.3,0.3,0.5,0.2c0.1-0.1,0.3-0.2,0.4-0.3c0,0,0,0,0,0c0.3,0,0.5-0.1,0.8-0.1c0,0.1,0.1,0.2,0.3,0.2
				c0.2,0,0.3-0.1,0.5-0.1c0.2,0,0.3-0.1,0.5-0.1c0.2-0.1,0.4,0,0.6,0c0,0,0,0,0,0c-0.1,0-0.1,0.1-0.1,0.2c-0.1,0.1-0.1,0.1-0.1,0.2
				l0,0.1c0,0,0,0,0,0c0,0.1,0,0.2,0.1,0.3c0,0.1,0.1,0.2,0.1,0.3c0,0,0,0.2,0,0.2c0,0.1,0.1,0.2,0.2,0.4c0.1,0.1,0.1,0.3,0.1,0.4
				c0,0.1,0.1,0.1,0.2,0.2c0,0,0,0.1,0,0.1c0,0.1,0,0.3,0.1,0.4c0,0.2,0.1,0.4,0.1,0.6c0.1,0.1,0.2,0.2,0.3,0.3
				c0.1,0.4,0.2,0.7,0.2,1c0.6,2.4,0.4,4,0.3,4.7c-0.1,0.7,0.4,0.5,0.5,1.1c0.1,0.6,0.4,1.2,0.4,1.2s0.5,0.1,1.2,0.1
				s0.6-0.1,0.6-0.1c0.3,0.1,0.8,0,0.8,0c-0.1-0.4-0.9-2.1-0.9-2.1h1.3c-0.3-0.9-1.1-1.9-1.4-2.4c-0.3-0.5-0.1-0.9-0.4-1.8
				c-0.2-1-0.3-1.6,0-2.6c0.2-0.8,0.2-1.1,0.1-1.7c0-0.1,0.1-0.2,0.2-0.2c0,0,0-0.1,0-0.1c0.1,0,0.2,0,0.2-0.1
				c0.1-0.1,0.1-0.2,0.2-0.4c0.1-0.1,0.2-0.2,0.3-0.3c0.1-0.1,0.2-0.1,0.3-0.2c0,0,0.1-0.1,0.1-0.1c0,0,0,0,0,0
				c0.1,0.1,0.2,0.1,0.3,0.1c0.1,0,0.1-0.1,0.2-0.1c0,0,0.1,0,0.1,0c0.2,0,0.4,0,0.6,0c0,0,0.1,0,0.1,0.1c0.2,0.1,0.4-0.1,0.4-0.3
				c0,0,0,0,0.1,0c0,0,0,0,0.1,0.1c0.1,0.1,0.2,0.1,0.3,0c0.2,0.1,0.4,0.1,0.7,0c0.2,0,0.4-0.1,0.5-0.3c0.1-0.1,0.1-0.3,0.2-0.4
				c0.1-0.1,0.1-0.1,0.2-0.2c0-0.1,0.1-0.1,0.1-0.2c0,0,0,0,0,0c0.1,0,0.1-0.1,0.2-0.2c0.1-0.1,0.2-0.2,0.3-0.3c0.1,0,0.2,0,0.2-0.1
				c0.2-0.2,0.2-0.3,0.2-0.5c0.1-0.2,0.2-0.2,0.2-0.4c0-0.1,0.1-0.3,0.1-0.4c0.1-0.1,0.3-0.2,0.3-0.3c0.1-0.1,0.1-0.3,0-0.4
				c0.2,0,0.3-0.1,0.4-0.3c0.2,0,0.4-0.2,0.5-0.4c0,0,0,0,0.1,0c0.1,0,0.2-0.1,0.2-0.1c0.2-0.2,0.1-0.3,0.2-0.5
				c0.1-0.2,0.3-0.3,0.4-0.5c0.1-0.2,0.1-0.4,0.1-0.6c0,0,0-0.1,0-0.1c0-0.1,0.1-0.2,0.1-0.4c0.1-0.1,0.1-0.3,0.1-0.5
				c0.1,0,0.3-0.1,0.3-0.2c0.3-0.4,0.2-1.1,0-1.6c0,0,0.1,0,0.1,0c0.1,0,0.2,0,0.4,0c0.2,0,0.3-0.1,0.4-0.2c0.3-0.1,0.4-0.3,0.5-0.5
				c0,0,0-0.1,0.1-0.1c0.2-0.3,0.3-0.6,0.4-0.9c0.1-0.2,0.1-0.3,0-0.5l0,0c0.4,0.1,1-0.2,1.5-0.4c0.5-0.2,1.1-0.1,1.6,0
				c0.5,0.1,0.7-0.2,0.9-0.4c0.3-0.2,0.1-0.6,0.1-0.6c0.4-0.2,0.3-0.4,0.4-1C-436.6,17.9-437,17.6-437.5,17.2z"/>
		</g>
	</g>
</g>
<g>
	<linearGradient id="SVGID_7_" gradientUnits="userSpaceOnUse" x1="-366.6492" y1="-115.3169" x2="-358.8716" y2="-115.3169">
		<stop  offset="0" style="stop-color:#8C2984"/>
		<stop  offset="1" style="stop-color:#A6569D"/>
	</linearGradient>
	<path class="st9" d="M-362.8-111.4c2.1,0,3.9-1.7,3.9-3.9c0-2.1-1.7-3.9-3.9-3.9s-3.9,1.7-3.9,3.9
		C-366.6-113.2-364.9-111.4-362.8-111.4L-362.8-111.4z"/>
	<g>
		<g>
			<linearGradient id="SVGID_8_" gradientUnits="userSpaceOnUse" x1="-366.6393" y1="-140.6538" x2="-308.1879" y2="-140.6538">
				<stop  offset="0" style="stop-color:#8C2984"/>
				<stop  offset="1" style="stop-color:#A6569D"/>
			</linearGradient>
			<path class="st10" d="M-337.4-169.9l29.1,0.1l0.1,29.1c0,16.1-13.1,29.2-29.2,29.2c-16.1,0-29.2-13.1-29.2-29.2
				C-366.6-156.8-353.6-169.9-337.4-169.9"/>
		</g>
		<path class="st4" d="M-324.5-145.8c0,0-3.8,4.4-3.5,8.9c0,0,0.2,1.3,0,1.4c-0.2,0.1-0.2,0.2-0.6-0.3l-0.2,0.1c0,0,0.3,0.7,0,0.8
			c-0.2,0.1-0.2,0.2-0.5,0c0,0-0.8,4.7-0.7,5c0,0-0.1,0.4,0.2,1.5c0.2,1,0.6,3.3,0.5,4.8c0,0-0.3,0.2-0.9-0.3c0,0-0.4,0.2-0.7,0.3
			c0,0-0.1,0.1-0.3-0.6c-0.1-0.7-0.3-0.9-0.3-1.2l-0.6-2.2c0,0-0.3-1.2-0.2-1.8l0.1-3l-0.8,3.3c0,0-0.1,1-0.1,1c0,0,0.1,0.8,0.3,1.6
			c0.2,0.8,0.3,1.5,0.4,1.7c0,0.3,0.2,1.6,0,2.3c0,0-0.2,0.1-0.6-0.2c0,0-0.2-0.1-0.3-0.1c-0.1,0-0.4,0.3-0.6,0.3s-0.2-0.1-0.2-0.3
			c0-0.3-0.9-3.1-0.9-3.1l-0.3-1c0,0-0.2-1.1-0.2-1.5c0-0.4,0.1-3.3,0.1-3.3s-3.1,0.5-4.7,0.4c0,0-1.9,0-2.7-0.1
			c0,0-0.5,1.5-0.5,1.7c0,0.1-0.1,1.1,0,1.6c0.1,0.5,0.3,2,0.3,2s0.3,1.8,0.3,1.9c0,0,0.1,0.4,0,0.5s-0.4,0-0.4,0l-0.4-0.1
			c0,0-0.1-0.1-0.3,0c-0.2,0.1-0.2,0.3-0.4,0.3s-0.2,0.2-0.4-0.2c-0.2-0.3-0.6-1.1-0.9-2.7c-0.3-1.6-0.4-2.2-0.4-2.2
			s-0.2-1.1-0.1-1.4v-1c0,0-0.6,1.8-0.7,2c0,0.2,0,1.5,0.1,1.9c0.1,0.4,0.3,2,0.3,2.1c0,0,0.2,1.5,0.1,1.7c0,0,0,0.5-0.1,0.5
			c-0.1,0.1-0.1,0.1-0.5,0s-0.6,0-0.6,0s-0.4,0.2-0.4,0.2s-0.2,0.1-0.4-0.3c0,0-0.7-2-0.8-2.6c0,0-0.6-2.5-0.5-2.8
			c0,0-0.2-1.6-0.1-2.2l0.1-1.9l0.3-2.8c0,0-0.5-1.4-0.6-2.6c-0.1-1.2-0.1-2.8-0.1-2.8l0.1-2.6c0,0-1.7-0.9-2.4-1.9
			c0,0-0.7-0.8-1-1.6c-0.3-0.8,0.4-1.2,0.4-1.2s0.6-0.4,1.5,0.1c0,0,0.6,0.4,0.6,0.6c0,0,0-0.9,0.9-0.5s1.3,2.5,1.3,2.5l0,0.1
			c0,0,4.4,1.1,4.6,1c0,0,4,0.7,4.9,0.6c0,0,3.2,0.2,4.9-0.4c0,0,2.1-0.7,3.4-2.4c0,0,1.2-1.4,1.8-2.5c0,0-0.6,0.6-0.9,0.3
			c-0.3-0.2,0.1-0.6,0.1-0.6s-1.3,1.1-2.4,0.9s-1.4-0.4-1.4-0.4s-0.6-0.2-0.5-0.3c0-0.1,0.4-1.8,1.7-2.9c1.3-1.1,4.5-1.7,4.5-1.7
			s-1.1-2.6-2.6-3.4c0,0-1.1-0.7-2.2-0.4c0,0,0,0-0.1-0.1l-0.7,0.1c0,0-0.4-0.1,0-0.4s0.9-0.6,0.9-0.6s0.9-0.5,2-0.4
			c1.1,0.1,2.1,1.2,2.1,1.2s0.9,0.9,1.4,1.6c0.5,0.7,0.8,1.1,1,1.6c0,0,0.8-0.9,1-0.9c0,0-0.4-1.7-0.6-2.1c0,0-0.5-1.2-1.1-1.6
			c0,0-0.5-0.3-1.4-0.4c-0.9-0.1-0.8-0.1-0.8-0.1s-0.2-0.2,0.3-0.4c0.4-0.2,0.9-0.4,1.1-0.4c0,0,0.7-0.2,1-0.1
			c0.3,0.1,0.2,0,0.8,0.2c0.6,0.2,1.2,1,1.2,1s0.4,0.6,0.5,0.8c0.1,0.2,0.7,1.5,0.9,2.4l0.1,0.4c0,0,0.5,0,0.5,0.6
			c0,0,0,0.3-0.1,0.6c0,0,2.6-0.5,3.6-0.4c0,0,0.8,0,2,0.5c0,0,0.5,0.2,0.6,0.3c0,0-0.5,1.5-1.5,1.8c0,0-0.1,0.1-0.4,0.1
			c0,0-0.3-0.1-0.4-0.1c0,0-0.1,0,0,0.1c0,0,0.1,0.2,0,0.3c0,0-0.2,0.3-1.3,0.1c0,0-0.9-0.3-1.4-0.5c0,0,0.5,1.9,1.2,3
			c0,0,1.5,2.5,1.5,2.6c0,0,0.3-0.2,0.5-0.1c0,0,0.2,0.1-0.1,0.6l-0.1,0.2c0,0,0.1,1.2-0.3,1.7c0,0-0.5,1.3-2.1,1.4l0,0
			c0,0,0.1,1.2-0.1,1.6c0,0-0.1,0.3-0.3,0.1c-0.2-0.2-0.2-0.6-0.2-0.6s0.1,1.3-0.1,1.5c-0.1,0.2-0.2,0.2-0.2,0.2s-0.2,0-0.4-0.3
			c0,0-0.1-0.2-0.1-0.5c0,0-0.1,0.3-0.3,0.1c0,0-0.4-0.4-0.3-1.5c0,0,0.1-1.1,0.2-1.4c0,0-0.6-0.5-1-1.4
			C-323.6-144.7-324.3-145.9-324.5-145.8L-324.5-145.8z"/>
	</g>
</g>
</svg>
