<?xml version="1.0" encoding="utf-8"?>
<!-- Generator: Adobe Illustrator 25.2.1, SVG Export Plug-In . SVG Version: 6.00 Build 0)  -->
<svg version="1.1" id="Camada_1" xmlns="http://www.w3.org/2000/svg" xmlns:xlink="http://www.w3.org/1999/xlink" x="0px" y="0px"
	 viewBox="0 0 62.5 63.1" style="enable-background:new 0 0 62.5 63.1;" xml:space="preserve">
<style type="text/css">
	.st0{fill-rule:evenodd;clip-rule:evenodd;fill:url(#SVGID_1_);}
	.st1{fill-rule:evenodd;clip-rule:evenodd;fill:url(#SVGID_2_);}
	.st2{fill:none;stroke:#FBFBFD;stroke-width:0.8;stroke-miterlimit:10;}
	.st3{fill-rule:evenodd;clip-rule:evenodd;fill:url(#SVGID_3_);}
	.st4{fill-rule:evenodd;clip-rule:evenodd;fill:url(#SVGID_4_);}
	.st5{fill:none;stroke:#FFFFFF;stroke-width:0.8;stroke-miterlimit:10;}
</style>
<g>
	<linearGradient id="SVGID_1_" gradientUnits="userSpaceOnUse" x1="2.0238" y1="56.902" x2="9.8015" y2="56.902">
		<stop  offset="0" style="stop-color:#8C2984"/>
		<stop  offset="1" style="stop-color:#A6569D"/>
	</linearGradient>
	<path class="st0" d="M5.9,60.8c2.1,0,3.9-1.7,3.9-3.9S8.1,53,5.9,53S2,54.8,2,56.9S3.8,60.8,5.9,60.8L5.9,60.8z"/>
	<g>
		<g>
			<linearGradient id="SVGID_2_" gradientUnits="userSpaceOnUse" x1="2.0242" y1="31.5556" x2="60.4947" y2="31.5556">
				<stop  offset="0" style="stop-color:#8C2984"/>
				<stop  offset="1" style="stop-color:#A6569D"/>
			</linearGradient>
			<path class="st1" d="M31.3,2.3l29.1,0.1l0.1,29.1c0,16.1-13.1,29.2-29.2,29.2C15.1,60.8,2,47.7,2,31.6C2,15.4,15.1,2.3,31.3,2.3"
				/>
		</g>
		<g>
			<path class="st2" d="M15.7,24.4C15.7,24.4,15.7,24.4,15.7,24.4C15.7,24.3,15.7,24.3,15.7,24.4z"/>
			<path class="st2" d="M54.7,20.2c-0.6-0.4-2.2-1.6-2.7-1.9c-0.5-0.3-1.1-1.2-1.9-1.3c-0.8,0-1.9,0.6-2.4,0.7
				c-0.5,0-2.1-0.7-3.2-1.2c-1-0.5-1.3-0.4-0.9,0.7c0.4,1.1,1.3,1.4,1.3,1.4l0,0c-0.2,0-0.4,0.2-0.4,0.3c-0.3,0.1-0.5,0.4-0.8,0.7
				c-0.1,0-0.2,0.1-0.2,0.2c-0.2,0-0.4,0.2-0.4,0.4c0.1,0,0.1,0,0,0c-0.1,0-0.1,0-0.2,0c-0.1,0-0.2,0-0.3,0.1
				c-0.2,0.1-0.2,0.4-0.4,0.5c-0.3-0.1-0.5,0.1-0.8,0.1c-0.1,0-0.2,0-0.3,0c-0.4-0.3-0.8-0.3-1.3-0.4c-0.6-0.1-1.1,0-1.8,0.2
				c-0.2,0.1-0.4,0.2-0.7,0.2c-0.1,0-0.3,0-0.4,0c-0.1,0-0.1,0-0.1,0.1c-0.2-0.1-0.3-0.2-0.5-0.1c-0.3,0-0.5,0.2-0.7,0.4
				c0,0,0,0,0,0c-0.1-0.1-0.2-0.1-0.4-0.1c-0.2,0-0.3-0.1-0.5-0.1c0,0-0.1,0-0.2,0c-0.1-0.1-0.2-0.1-0.2-0.1c-0.2-0.1-0.4,0-0.6-0.1
				c-0.3,0-0.5-0.2-0.8-0.2c-0.5,0-1,0.1-1.4,0.3c-0.1,0-0.3-0.1-0.4-0.1c-0.2-0.1-0.4,0-0.5,0.2c0-0.1-0.2-0.2-0.3-0.2
				c-0.2,0.1-0.5-0.1-0.7-0.1c-0.3,0.1-0.5,0.1-0.8,0.1c-0.1,0-0.1,0-0.2,0c-0.1,0-0.2,0-0.2,0c-0.1,0-0.1-0.1-0.2-0.1
				c-0.1,0-0.2,0-0.3,0c-0.3-0.1-0.5-0.1-0.8,0c-0.1,0-0.2,0.1-0.2,0.2c0,0,0,0,0,0c-0.1,0-0.1,0-0.2-0.1c-0.1,0-0.2,0-0.2,0.1
				c0,0,0,0,0-0.1c-0.3-0.1-0.7-0.3-0.9,0c-0.1,0-0.1,0-0.2,0c-0.2,0-0.3,0-0.5,0c-0.2-0.1-0.4-0.2-0.6-0.2c-0.2,0-0.5,0-0.7,0
				c-0.1,0-0.2,0.1-0.2,0.2c0,0,0,0,0,0c-0.1,0-0.3-0.2-0.4-0.2c-0.1,0-0.2,0-0.2,0c0,0-0.1,0-0.2,0c-0.1,0-0.2-0.1-0.3-0.1
				c-0.1,0-0.2,0.1-0.3,0.1c0,0,0,0-0.1,0c0,0,0,0,0,0c-0.1-0.1-0.2-0.1-0.2-0.1c-0.1,0-0.3,0-0.4,0.1c0,0,0,0-0.1,0
				c-0.1,0-0.1,0-0.2,0c-0.1,0-0.3,0-0.4,0.1c-0.1,0-0.2,0.1-0.2,0.3c-0.1,0-0.1,0-0.2-0.1c-0.2,0-0.4,0-0.6,0.1
				c-0.2,0-0.3,0.1-0.5,0.2c0,0-0.3,0.1-0.3,0.1c0,0,0,0,0,0c-0.1-0.1-0.4-0.1-0.4,0.1c0,0.1,0,0.1,0,0.2c-0.1,0.1-0.2,0.1-0.3,0.2
				c-0.2,0-0.4,0.1-0.5,0.3c-0.1,0.2-0.2,0.3-0.3,0.5c-0.2,0.1-0.3,0.2-0.4,0.5c-0.1,0-0.2,0.1-0.2,0.2c0,0,0,0.1-0.1,0.1
				c0,0-0.1,0-0.1,0C16.1,23.9,16,24,16,24.1c0,0,0,0,0,0c-0.1,0-0.2,0.1-0.2,0.1c0,0,0,0,0,0c0,0,0,0,0,0c0,0,0,0,0,0
				c0,0,0,0,0,0.1c0,0,0,0.1-0.1,0.1c-0.1,0.1-0.1,0.1-0.2,0.2c-0.1,0.2-0.2,0.5-0.2,0.8c0,0-0.1,0.1-0.1,0.1
				c-0.1,0.2-0.1,0.3-0.1,0.5c0,0.1,0,0.2,0.1,0.2c-0.2,0.1-0.3,0.2-0.4,0.4c0,0.1,0,0.1,0,0.2c-0.2,0.5,0,1,0,1.5
				c0,0.4,0,0.8,0,1.2c0,0.3,0.2,0.7,0.1,1c0,0.1,0,0.2,0.1,0.2c-0.1,0.3-0.1,0.5-0.1,0.8c0,0.2,0.1,0.4,0.1,0.7
				c0,0.3,0.2,0.4,0.2,0.7c0-0.1-0.1,0.3,0,0.4c0.1,0.3,0.4,0.5,0.5,0.8c0.1,0.3,0.2,0.6,0.3,0.9c0,0.1,0.1,0.1,0.1,0.1
				c0,0-0.1,0.1-0.1,0.2c-0.1,0.1-0.2,0.3-0.3,0.4c-0.1,0.2-0.1,0.3-0.2,0.5c0,0.1,0,0.1-0.1,0.2c-0.1,0-0.1,0-0.2,0
				c-0.3,0.2-0.3,0.6-0.2,0.9c0.3,0.7,0.5,1.3,0.4,2.2c0,0.1,0.1,0.2,0.2,0.3c0,0.1,0,0.2,0,0.4c0,0.2,0,0.4,0,0.7
				c0,0.2,0,0.4,0.1,0.5c0,0.1,0.1,0.2,0.1,0.2c0,0.1,0.1,0.1,0.2,0.2c0.1,0.2,0.2,0.5,0.3,0.7c0.2,0.5,0.2,1.7,0.3,2
				c0.2,0.3,0.4,0.2,0.6,0.9c0.2,0.7,0.4,0.9,0.4,0.9c0.5,0.2,2.1-0.1,2.1-0.1s-0.2-0.4-0.3-0.6c0-0.2-0.4-0.8-0.4-0.8
				c0.2-0.1,0.7-0.2,0.7-0.2s-0.3-0.4-0.5-0.7c-0.2-0.3-0.6-0.5-0.9-1c-0.3-0.5-0.4-1.4-0.4-2.6c0-0.7,0.1-1.4,0.2-1.8
				c0.4-0.2,0.7-0.4,1.1-0.6c0.2-0.1,0.4-0.1,0.5-0.2c0.2-0.1,0.3-0.2,0.5-0.3c0.1-0.1,0.2-0.2,0.2-0.3c0.2-0.1,0.3-0.1,0.5-0.2
				c0.1-0.1,0.2-0.1,0.3-0.2c0,0,0,0,0,0c0,0,0,0,0,0c0.1,0,0.1-0.1,0.2-0.1c0.2-0.1,0.3-0.3,0.5-0.4c0.1,0,0.1-0.1,0.1-0.2
				c0,0,0.1,0,0.1-0.1c0.2-0.2,0.6-0.4,0.8-0.4c0.1,0,0.2,0,0.3-0.1c0.1-0.1,0.3-0.2,0.4-0.2c0,0,0,0,0,0c0,0,0,0,0,0
				c0,0.2,0.2,0.3,0.3,0.4c0,0.1,0.2,0.2,0.2,0.2v0c0.1,0,0.2,0,0.3,0c0.1,0,0.3,0.1,0.4,0.2c0.1,0.1,0.2,0.2,0.3,0.2
				c0.1,0,0.2,0,0.4,0c0.1,0,0.3,0,0.3-0.1c0,0,0.1,0,0.2,0.1c0.2,0.1,0.4,0.2,0.6,0.2c0.1,0,0.2,0,0.3,0c0.1,0,0.1,0,0.2,0.1
				c0.3,0.1,0.6,0.1,1,0.1c0.2,0,0.4,0.1,0.6,0.1c0.2,0,0.4-0.1,0.6-0.1c0.2,0,0.4,0,0.7-0.1c0,0,0,0,0,0c0.2,0.1,0.6,0.2,0.8,0
				c0.1-0.1,0.1-0.2,0.2-0.3c0,0,0,0,0,0c0.1,0,0.2,0.1,0.3,0.1c0.1,0,0.3,0,0.4,0c0.1,0.1,0.3,0.2,0.5,0.1c0.2,0,0.3-0.2,0.3-0.4
				c0,0,0,0,0,0c0.1,0.2,0.3,0.3,0.5,0.2c0.1-0.1,0.3-0.2,0.4-0.3c0,0,0,0,0,0c0.3,0,0.5-0.1,0.8-0.1c0,0.1,0.1,0.2,0.3,0.2
				c0.2,0,0.3-0.1,0.5-0.1c0.2,0,0.3-0.1,0.5-0.1c0.2-0.1,0.4,0,0.6,0c0,0,0,0,0,0c-0.1,0-0.1,0.1-0.1,0.2c-0.1,0.1-0.1,0.1-0.1,0.2
				l0,0.1c0,0,0,0,0,0c0,0.1,0,0.2,0.1,0.3c0,0.1,0.1,0.2,0.1,0.3c0,0,0,0.2,0,0.2c0,0.1,0.1,0.2,0.2,0.4c0.1,0.1,0.1,0.3,0.1,0.4
				c0,0.1,0.1,0.1,0.2,0.2c0,0,0,0.1,0,0.1c0,0.1,0,0.3,0.1,0.4c0,0.2,0.1,0.4,0.1,0.6c0.1,0.1,0.2,0.2,0.3,0.3
				c0.1,0.4,0.2,0.7,0.2,1c0.6,2.4,0.4,4,0.3,4.7c-0.1,0.7,0.4,0.5,0.5,1.1c0.1,0.6,0.4,1.2,0.4,1.2s0.5,0.1,1.2,0.1
				c0.6,0,0.6-0.1,0.6-0.1c0.3,0.1,0.8,0,0.8,0c-0.1-0.4-0.9-2.1-0.9-2.1h1.3c-0.3-0.9-1.1-1.9-1.4-2.4c-0.3-0.5-0.1-0.9-0.4-1.8
				c-0.2-1-0.3-1.6,0-2.6c0.2-0.8,0.2-1.1,0.1-1.7c0-0.1,0.1-0.2,0.2-0.2c0,0,0-0.1,0-0.1c0.1,0,0.2,0,0.2-0.1
				c0.1-0.1,0.1-0.2,0.2-0.4c0.1-0.1,0.2-0.2,0.3-0.3c0.1-0.1,0.2-0.1,0.3-0.2c0,0,0.1-0.1,0.1-0.1c0,0,0,0,0,0
				c0.1,0.1,0.2,0.1,0.3,0.1c0.1,0,0.1-0.1,0.2-0.1c0,0,0.1,0,0.1,0c0.2,0,0.4,0,0.6,0c0,0,0.1,0,0.1,0.1c0.2,0.1,0.4-0.1,0.4-0.3
				c0,0,0,0,0.1,0c0,0,0,0,0.1,0.1c0.1,0.1,0.2,0.1,0.3,0c0.2,0.1,0.4,0.1,0.7,0c0.2,0,0.4-0.1,0.5-0.3c0.1-0.1,0.1-0.3,0.2-0.4
				c0.1-0.1,0.1-0.1,0.2-0.2c0-0.1,0.1-0.1,0.1-0.2c0,0,0,0,0,0c0.1,0,0.1-0.1,0.2-0.2c0.1-0.1,0.2-0.2,0.3-0.3c0.1,0,0.2,0,0.2-0.1
				c0.2-0.2,0.2-0.3,0.2-0.5c0.1-0.2,0.2-0.2,0.2-0.4c0-0.1,0.1-0.3,0.1-0.4c0.1-0.1,0.3-0.2,0.3-0.3c0.1-0.1,0.1-0.3,0-0.4
				c0.2,0,0.3-0.1,0.4-0.3c0.2,0,0.4-0.2,0.5-0.4c0,0,0,0,0.1,0c0.1,0,0.2-0.1,0.2-0.1c0.2-0.2,0.1-0.3,0.2-0.5
				c0.1-0.2,0.3-0.3,0.4-0.5c0.1-0.2,0.1-0.4,0.1-0.6c0,0,0-0.1,0-0.1c0-0.1,0.1-0.2,0.1-0.4c0.1-0.1,0.1-0.3,0.1-0.5
				c0.1,0,0.3-0.1,0.3-0.2c0.3-0.4,0.2-1.1,0-1.6c0,0,0.1,0,0.1,0c0.1,0,0.2,0,0.4,0c0.2,0,0.3-0.1,0.4-0.2c0.3-0.1,0.4-0.3,0.5-0.5
				c0,0,0-0.1,0.1-0.1c0.2-0.3,0.3-0.6,0.4-0.9c0.1-0.2,0.1-0.3,0-0.5l0,0c0.4,0.1,1-0.2,1.5-0.4c0.5-0.2,1.1-0.1,1.6,0
				c0.5,0.1,0.7-0.2,0.9-0.4s0.1-0.6,0.1-0.6c0.4-0.2,0.3-0.4,0.4-1C55.7,21,55.3,20.7,54.7,20.2z"/>
		</g>
	</g>
</g>
<g>
	<linearGradient id="SVGID_3_" gradientUnits="userSpaceOnUse" x1="-366.6492" y1="-115.3169" x2="-358.8716" y2="-115.3169">
		<stop  offset="0" style="stop-color:#8C2984"/>
		<stop  offset="1" style="stop-color:#A6569D"/>
	</linearGradient>
	<path class="st3" d="M-362.8-111.4c2.1,0,3.9-1.7,3.9-3.9c0-2.1-1.7-3.9-3.9-3.9s-3.9,1.7-3.9,3.9
		C-366.6-113.2-364.9-111.4-362.8-111.4L-362.8-111.4z"/>
	<g>
		<g>
			<linearGradient id="SVGID_4_" gradientUnits="userSpaceOnUse" x1="-366.6393" y1="-140.6538" x2="-308.1879" y2="-140.6538">
				<stop  offset="0" style="stop-color:#8C2984"/>
				<stop  offset="1" style="stop-color:#A6569D"/>
			</linearGradient>
			<path class="st4" d="M-337.4-169.9l29.1,0.1l0.1,29.1c0,16.1-13.1,29.2-29.2,29.2c-16.1,0-29.2-13.1-29.2-29.2
				C-366.6-156.8-353.6-169.9-337.4-169.9"/>
		</g>
		<path class="st5" d="M-324.5-145.8c0,0-3.8,4.4-3.5,8.9c0,0,0.2,1.3,0,1.4c-0.2,0.1-0.2,0.2-0.6-0.3l-0.2,0.1c0,0,0.3,0.7,0,0.8
			c-0.2,0.1-0.2,0.2-0.5,0c0,0-0.8,4.7-0.7,5c0,0-0.1,0.4,0.2,1.5c0.2,1,0.6,3.3,0.5,4.8c0,0-0.3,0.2-0.9-0.3c0,0-0.4,0.2-0.7,0.3
			c0,0-0.1,0.1-0.3-0.6c-0.1-0.7-0.3-0.9-0.3-1.2l-0.6-2.2c0,0-0.3-1.2-0.2-1.8l0.1-3l-0.8,3.3c0,0-0.1,1-0.1,1c0,0,0.1,0.8,0.3,1.6
			c0.2,0.8,0.3,1.5,0.4,1.7c0,0.3,0.2,1.6,0,2.3c0,0-0.2,0.1-0.6-0.2c0,0-0.2-0.1-0.3-0.1c-0.1,0-0.4,0.3-0.6,0.3s-0.2-0.1-0.2-0.3
			c0-0.3-0.9-3.1-0.9-3.1l-0.3-1c0,0-0.2-1.1-0.2-1.5c0-0.4,0.1-3.3,0.1-3.3s-3.1,0.5-4.7,0.4c0,0-1.9,0-2.7-0.1
			c0,0-0.5,1.5-0.5,1.7c0,0.1-0.1,1.1,0,1.6c0.1,0.5,0.3,2,0.3,2s0.3,1.8,0.3,1.9c0,0,0.1,0.4,0,0.5s-0.4,0-0.4,0l-0.4-0.1
			c0,0-0.1-0.1-0.3,0c-0.2,0.1-0.2,0.3-0.4,0.3s-0.2,0.2-0.4-0.2c-0.2-0.3-0.6-1.1-0.9-2.7c-0.3-1.6-0.4-2.2-0.4-2.2
			s-0.2-1.1-0.1-1.4v-1c0,0-0.6,1.8-0.7,2c0,0.2,0,1.5,0.1,1.9c0.1,0.4,0.3,2,0.3,2.1c0,0,0.2,1.5,0.1,1.7c0,0,0,0.5-0.1,0.5
			c-0.1,0.1-0.1,0.1-0.5,0s-0.6,0-0.6,0s-0.4,0.2-0.4,0.2s-0.2,0.1-0.4-0.3c0,0-0.7-2-0.8-2.6c0,0-0.6-2.5-0.5-2.8
			c0,0-0.2-1.6-0.1-2.2l0.1-1.9l0.3-2.8c0,0-0.5-1.4-0.6-2.6c-0.1-1.2-0.1-2.8-0.1-2.8l0.1-2.6c0,0-1.7-0.9-2.4-1.9
			c0,0-0.7-0.8-1-1.6c-0.3-0.8,0.4-1.2,0.4-1.2s0.6-0.4,1.5,0.1c0,0,0.6,0.4,0.6,0.6c0,0,0-0.9,0.9-0.5s1.3,2.5,1.3,2.5l0,0.1
			c0,0,4.4,1.1,4.6,1c0,0,4,0.7,4.9,0.6c0,0,3.2,0.2,4.9-0.4c0,0,2.1-0.7,3.4-2.4c0,0,1.2-1.4,1.8-2.5c0,0-0.6,0.6-0.9,0.3
			c-0.3-0.2,0.1-0.6,0.1-0.6s-1.3,1.1-2.4,0.9s-1.4-0.4-1.4-0.4s-0.6-0.2-0.5-0.3c0-0.1,0.4-1.8,1.7-2.9c1.3-1.1,4.5-1.7,4.5-1.7
			s-1.1-2.6-2.6-3.4c0,0-1.1-0.7-2.2-0.4c0,0,0,0-0.1-0.1l-0.7,0.1c0,0-0.4-0.1,0-0.4s0.9-0.6,0.9-0.6s0.9-0.5,2-0.4
			c1.1,0.1,2.1,1.2,2.1,1.2s0.9,0.9,1.4,1.6c0.5,0.7,0.8,1.1,1,1.6c0,0,0.8-0.9,1-0.9c0,0-0.4-1.7-0.6-2.1c0,0-0.5-1.2-1.1-1.6
			c0,0-0.5-0.3-1.4-0.4c-0.9-0.1-0.8-0.1-0.8-0.1s-0.2-0.2,0.3-0.4c0.4-0.2,0.9-0.4,1.1-0.4c0,0,0.7-0.2,1-0.1
			c0.3,0.1,0.2,0,0.8,0.2c0.6,0.2,1.2,1,1.2,1s0.4,0.6,0.5,0.8c0.1,0.2,0.7,1.5,0.9,2.4l0.1,0.4c0,0,0.5,0,0.5,0.6
			c0,0,0,0.3-0.1,0.6c0,0,2.6-0.5,3.6-0.4c0,0,0.8,0,2,0.5c0,0,0.5,0.2,0.6,0.3c0,0-0.5,1.5-1.5,1.8c0,0-0.1,0.1-0.4,0.1
			c0,0-0.3-0.1-0.4-0.1c0,0-0.1,0,0,0.1c0,0,0.1,0.2,0,0.3c0,0-0.2,0.3-1.3,0.1c0,0-0.9-0.3-1.4-0.5c0,0,0.5,1.9,1.2,3
			c0,0,1.5,2.5,1.5,2.6c0,0,0.3-0.2,0.5-0.1c0,0,0.2,0.1-0.1,0.6l-0.1,0.2c0,0,0.1,1.2-0.3,1.7c0,0-0.5,1.3-2.1,1.4l0,0
			c0,0,0.1,1.2-0.1,1.6c0,0-0.1,0.3-0.3,0.1c-0.2-0.2-0.2-0.6-0.2-0.6s0.1,1.3-0.1,1.5c-0.1,0.2-0.2,0.2-0.2,0.2s-0.2,0-0.4-0.3
			c0,0-0.1-0.2-0.1-0.5c0,0-0.1,0.3-0.3,0.1c0,0-0.4-0.4-0.3-1.5c0,0,0.1-1.1,0.2-1.4c0,0-0.6-0.5-1-1.4
			C-323.6-144.7-324.3-145.9-324.5-145.8L-324.5-145.8z"/>
	</g>
</g>
</svg>
