<?xml version="1.0" encoding="utf-8"?>
<!-- Generator: Adobe Illustrator 25.2.1, SVG Export Plug-In . SVG Version: 6.00 Build 0)  -->
<svg version="1.1" id="Camada_1" xmlns="http://www.w3.org/2000/svg" xmlns:xlink="http://www.w3.org/1999/xlink" x="0px" y="0px"
	 viewBox="0 0 120 120" style="enable-background:new 0 0 120 120;" xml:space="preserve">
<style type="text/css">
	.st0{fill:none;}
	.st1{clip-path:url(#SVGID_2_);fill:#667117;}
	.st2{clip-path:url(#SVGID_2_);}
	.st3{display:none;}
</style>
<rect x="37" y="37" class="st0" width="46" height="46"/>
<g>
	<defs>
		<path id="SVGID_1_" d="M8.8,119c4.3,0,7.8-3.5,7.8-7.8c0-4.3-3.5-7.8-7.8-7.8c-4.3,0-7.8,3.5-7.8,7.8C1,115.5,4.5,119,8.8,119
			 M60,1l52.8,0.2c3.3,0,6,2.7,6,6L119,60c0,32.6-26.4,59-59,59C27.4,119,1,92.6,1,60C1,27.4,27.4,1,60,1z"/>
	</defs>
	<clipPath id="SVGID_2_">
		<use xlink:href="#SVGID_1_"  style="overflow:visible;"/>
	</clipPath>
	<rect x="1" y="1" class="st1" width="118" height="118"/>
	<g class="st2">
		<defs>
			<rect id="SVGID_3_" x="-41.3" y="-4" width="185.8" height="123.9"/>
		</defs>
		<clipPath id="SVGID_4_">
			<use xlink:href="#SVGID_3_"  style="overflow:visible;"/>
		</clipPath>
		<g style="opacity:0.43;clip-path:url(#SVGID_4_);">
			
				<image style="overflow:visible;" width="750" height="500" xlink:href="C:\Users\Robson\OneDrive\Ãrea de Trabalho\Site MultSacch\Saccharomyces-Cerevisiae.png"  transform="matrix(0.3171 0 0 0.3171 -71.9213 -14.2222)">
			</image>
		</g>
	</g>
</g>
<g class="st3">
	
		<text transform="matrix(1 0 0 1 -361.2664 116.7397)" style="display:inline;fill:#646C73; font-family:'Ubuntu-BoldItalic'; font-size:45px;">Aves</text>
</g>
</svg>
